<svg xmlns="http://www.w3.org/2000/svg" viewBox="0 0 100 120">
  <ellipse cx="50" cy="112" rx="22" ry="7" fill="#5D4037" opacity="0.25"/>
  <!-- Bamboo stalks -->
  <path d="M42 110 Q42 70 42 20" stroke="#558B2F" stroke-width="5" fill="none" stroke-linecap="round"/>
  <path d="M55 110 Q55 75 55 30" stroke="#689F38" stroke-width="5" fill="none" stroke-linecap="round"/>
  <path d="M48 110 Q48 72 48 25" stroke="#4CAF50" stroke-width="4" fill="none" stroke-linecap="round"/>
  <!-- Joints -->
  <rect x="39" y="40" width="8" height="3" rx="1" fill="#33691E" opacity="0.4"/>
  <rect x="39" y="70" width="8" height="3" rx="1" fill="#33691E" opacity="0.4"/>
  <rect x="52" y="50" width="8" height="3" rx="1" fill="#33691E" opacity="0.4"/>
  <rect x="52" y="80" width="8" height="3" rx="1" fill="#33691E" opacity="0.4"/>
  <rect x="45" y="55" width="8" height="2" rx="1" fill="#33691E" opacity="0.3"/>
  <rect x="45" y="85" width="8" height="2" rx="1" fill="#33691E" opacity="0.3"/>
  <!-- Leaves -->
  <ellipse cx="30" cy="28" rx="12" ry="4" fill="#8BC34A" transform="rotate(-30 30 28)"/>
  <ellipse cx="66" cy="36" rx="11" ry="3.5" fill="#7CB342" transform="rotate(25 66 36)"/>
  <ellipse cx="28" cy="52" rx="10" ry="3.5" fill="#9CCC65" transform="rotate(-20 28 52)"/>
  <ellipse cx="64" cy="58" rx="10" ry="3" fill="#8BC34A" transform="rotate(20 64 58)"/>
  <ellipse cx="34" cy="75" rx="9" ry="3" fill="#7CB342" transform="rotate(-15 34 75)"/>
</svg>
