<svg xmlns="http://www.w3.org/2000/svg" viewBox="0 0 100 120">
  <defs>
    <linearGradient id="b1" x1="0" y1="0" x2="1" y2="0">
      <stop offset="0%" stop-color="#1B5E20"/>
      <stop offset="50%" stop-color="#558B2F"/>
      <stop offset="100%" stop-color="#1B5E20"/>
    </linearGradient>
    <filter id="s"><feGaussianBlur stdDeviation="2.5"/></filter>
  </defs>
  <ellipse cx="50" cy="112" rx="22" ry="7" fill="#3E2723" opacity="0.13" filter="url(#s)"/>
  <!-- 2 culms -->
  <path d="M40 110 Q38 82 40 46" stroke="url(#b1)" stroke-width="6.5" fill="none" stroke-linecap="round"/>
  <path d="M58 110 Q60 84 58 50" stroke="#2E7D32" stroke-width="6" fill="none" stroke-linecap="round"/>
  <!-- Joints -->
  <rect x="35" y="60" width="10" height="3.5" rx="2" fill="#1B5E20" opacity="0.45"/>
  <rect x="35" y="82" width="10" height="3.5" rx="2" fill="#1B5E20" opacity="0.4"/>
  <rect x="53" y="68" width="10" height="3.5" rx="2" fill="#1B5E20" opacity="0.45"/>
  <rect x="53" y="90" width="10" height="3.5" rx="2" fill="#1B5E20" opacity="0.4"/>
  <!-- Leaves -->
  <path d="M40 52 Q20 38 12 46 Q18 54 40 52Z" fill="#66BB6A"/>
  <path d="M58 56 Q76 42 84 50 Q78 58 58 56Z" fill="#8BC34A"/>
  <path d="M40 70 Q24 58 16 64 Q22 72 40 70Z" fill="#558B2F"/>
  <path d="M58 74 Q72 62 80 68 Q74 76 58 74Z" fill="#7CB342"/>
</svg>
