<svg xmlns="http://www.w3.org/2000/svg" viewBox="0 0 100 120">
  <defs>
    <linearGradient id="cG" x1="0.3" y1="0" x2="0.7" y2="1">
      <stop offset="0%" stop-color="#81C784"/>
      <stop offset="50%" stop-color="#43A047"/>
      <stop offset="100%" stop-color="#1B5E20"/>
    </linearGradient>
    <radialGradient id="fG" cx="50%" cy="40%">
      <stop offset="0%" stop-color="#FFF9C4"/>
      <stop offset="100%" stop-color="#F9A825"/>
    </radialGradient>
    <filter id="s"><feGaussianBlur stdDeviation="3"/></filter>
  </defs>
  <ellipse cx="50" cy="114" rx="24" ry="7" fill="#3E2723" opacity="0.15" filter="url(#s)"/>
  <!-- Body — big thick cactus -->
  <path d="M38 112 Q28 92 24 68 Q20 40 50 14 Q80 40 76 68 Q72 92 62 112Z" fill="url(#cG)"/>
  <!-- Depth -->
  <path d="M42 110 Q34 92 30 68 Q28 46 50 20 Q50 50 50 80 Q50 96 50 112Z" fill="#2E7D32" opacity="0.35"/>
  <!-- Center ridge highlight -->
  <path d="M50 112 Q50 80 50 18" stroke="#A5D6A7" stroke-width="1.5" fill="none" opacity="0.15"/>
  <!-- Ridges -->
  <path d="M50 28 Q36 42 30 62" stroke="#1B5E20" stroke-width="2" fill="none" opacity="0.3"/>
  <path d="M50 40 Q62 52 70 70" stroke="#1B5E20" stroke-width="2" fill="none" opacity="0.3"/>
  <path d="M50 52 Q38 62 34 78" stroke="#1B5E20" stroke-width="1.5" fill="none" opacity="0.25"/>
  <path d="M50 64 Q60 72 66 86" stroke="#1B5E20" stroke-width="1.5" fill="none" opacity="0.25"/>
  <!-- Flowers -->
  <circle cx="32" cy="56" r="4.5" fill="url(#fG)"/>
  <path d="M28 54 L32 48 L36 54 L30 57Z" fill="#FDD835" opacity="0.8"/>
  <circle cx="68" cy="66" r="4" fill="url(#fG)"/>
  <path d="M64 64 L68 58 L72 64 L66 67Z" fill="#FDD835" opacity="0.8"/>
  <circle cx="40" cy="84" r="3.5" fill="url(#fG)"/>
  <path d="M37 82 L40 77 L43 82 L38 85Z" fill="#FDD835" opacity="0.7"/>
  <!-- Spines -->
  <line x1="34" y1="44" x2="28" y2="40" stroke="#E8F5E9" stroke-width="0.8" opacity="0.4"/>
  <line x1="64" y1="50" x2="70" y2="46" stroke="#E8F5E9" stroke-width="0.8" opacity="0.4"/>
  <line x1="36" y1="68" x2="30" y2="66" stroke="#E8F5E9" stroke-width="0.7" opacity="0.35"/>
  <line x1="62" y1="80" x2="68" y2="78" stroke="#E8F5E9" stroke-width="0.7" opacity="0.3"/>
</svg>
