<svg xmlns="http://www.w3.org/2000/svg" viewBox="0 0 100 120">
  <defs>
    <linearGradient id="t1" x1="0" y1="0" x2="0" y2="1">
      <stop offset="0%" stop-color="#2E7D32"/>
      <stop offset="100%" stop-color="#1B5E20"/>
    </linearGradient>
    <linearGradient id="t2" x1="0" y1="0" x2="0" y2="1">
      <stop offset="0%" stop-color="#388E3C"/>
      <stop offset="100%" stop-color="#2E7D32"/>
    </linearGradient>
    <linearGradient id="t3" x1="0" y1="0" x2="0" y2="1">
      <stop offset="0%" stop-color="#43A047"/>
      <stop offset="100%" stop-color="#388E3C"/>
    </linearGradient>
    <linearGradient id="t4" x1="0" y1="0" x2="0" y2="1">
      <stop offset="0%" stop-color="#4CAF50"/>
      <stop offset="100%" stop-color="#43A047"/>
    </linearGradient>
    <linearGradient id="trG" x1="0" y1="0" x2="1" y2="0">
      <stop offset="0%" stop-color="#5D4037"/>
      <stop offset="50%" stop-color="#8D6E63"/>
      <stop offset="100%" stop-color="#5D4037"/>
    </linearGradient>
    <radialGradient id="stG" cx="50%" cy="30%">
      <stop offset="0%" stop-color="#FFEE58"/>
      <stop offset="100%" stop-color="#FFC107"/>
    </radialGradient>
    <filter id="sh"><feGaussianBlur stdDeviation="2.5"/></filter>
    <filter id="gl"><feGaussianBlur stdDeviation="1.5"/></filter>
  </defs>
  <ellipse cx="50" cy="114" rx="28" ry="8" fill="#3E2723" opacity="0.18" filter="url(#sh)"/>
  <!-- Trunk -->
  <rect x="45" y="84" width="10" height="28" rx="3" fill="url(#trG)"/>
  <!-- Tiers -->
  <polygon points="50,3 18,38 82,38" fill="url(#t1)"/>
  <polygon points="50,20 20,53 80,53" fill="url(#t2)"/>
  <polygon points="50,36 23,70 77,70" fill="url(#t3)"/>
  <polygon points="50,50 26,86 74,86" fill="url(#t4)"/>
  <!-- Star -->
  <circle cx="50" cy="2" r="5" fill="url(#stG)" filter="url(#gl)"/>
  <polygon points="50,-3 51.5,0 54,0 52,2 53,5 50,3.5 47,5 48,2 46,0 48.5,0" fill="#FFF9C4"/>
  <!-- Ornaments -->
  <circle cx="34" cy="33" r="3.5" fill="#E53935"/>
  <circle cx="33" cy="32" r="1.2" fill="#EF9A9A" opacity="0.5"/>
  <circle cx="62" cy="46" r="3.5" fill="#E53935"/>
  <circle cx="61" cy="45" r="1.2" fill="#EF9A9A" opacity="0.5"/>
  <circle cx="44" cy="60" r="3.5" fill="#E53935"/>
  <circle cx="43" cy="59" r="1.2" fill="#EF9A9A" opacity="0.5"/>
  <circle cx="56" cy="74" r="3.5" fill="#E53935"/>
  <circle cx="55" cy="73" r="1.2" fill="#EF9A9A" opacity="0.5"/>
  <circle cx="68" cy="62" r="3" fill="#FDD835"/>
  <circle cx="67" cy="61" r="1" fill="#FFF9C4" opacity="0.5"/>
  <circle cx="36" cy="48" r="3" fill="#FDD835"/>
  <circle cx="35" cy="47" r="1" fill="#FFF9C4" opacity="0.5"/>
  <circle cx="54" cy="28" r="3" fill="#FDD835"/>
  <circle cx="53" cy="27" r="1" fill="#FFF9C4" opacity="0.5"/>
  <!-- Tinsel highlights -->
  <path d="M30 36 Q42 32 52 36" stroke="#FFF9C4" stroke-width="0.8" fill="none" opacity="0.3"/>
  <path d="M32 52 Q48 48 64 52" stroke="#FFF9C4" stroke-width="0.8" fill="none" opacity="0.25"/>
  <path d="M36 68 Q50 64 62 69" stroke="#FFF9C4" stroke-width="0.8" fill="none" opacity="0.2"/>
</svg>
