<svg xmlns="http://www.w3.org/2000/svg" viewBox="0 0 100 120">
  <defs>
    <linearGradient id="t1" x1="0" y1="0" x2="0" y2="1">
      <stop offset="0%" stop-color="#2E7D32"/>
      <stop offset="100%" stop-color="#1B5E20"/>
    </linearGradient>
    <linearGradient id="t2" x1="0" y1="0" x2="0" y2="1">
      <stop offset="0%" stop-color="#388E3C"/>
      <stop offset="100%" stop-color="#2E7D32"/>
    </linearGradient>
    <linearGradient id="t3" x1="0" y1="0" x2="0" y2="1">
      <stop offset="0%" stop-color="#43A047"/>
      <stop offset="100%" stop-color="#388E3C"/>
    </linearGradient>
    <linearGradient id="tG" x1="0" y1="0" x2="1" y2="0">
      <stop offset="0%" stop-color="#4E342E"/>
      <stop offset="40%" stop-color="#6D4C41"/>
      <stop offset="60%" stop-color="#6D4C41"/>
      <stop offset="100%" stop-color="#4E342E"/>
    </linearGradient>
    <radialGradient id="sG" cx="50%" cy="30%">
      <stop offset="0%" stop-color="#FFF9C4"/>
      <stop offset="60%" stop-color="#FFD54F"/>
      <stop offset="100%" stop-color="#F9A825"/>
    </radialGradient>
    <filter id="s"><feGaussianBlur stdDeviation="3"/></filter>
    <filter id="gl"><feGaussianBlur stdDeviation="2"/></filter>
  </defs>
  <ellipse cx="50" cy="114" rx="32" ry="9" fill="#3E2723" opacity="0.15" filter="url(#s)"/>
  <!-- Trunk -->
  <path d="M44 112 Q44 100 46 88 Q48 86 52 86 Q54 86 55 88 Q56 100 56 112Z" fill="url(#tG)"/>
  <!-- Tiers — wide, edge-to-edge -->
  <path d="M50 2 L10 46 L90 46 Z" fill="url(#t1)"/>
  <path d="M50 20 L6 66 L94 66 Z" fill="url(#t2)"/>
  <path d="M50 38 L4 88 L96 88 Z" fill="url(#t3)"/>
  <!-- Snow highlights -->
  <path d="M24 40 Q38 36 50 40 Q64 36 76 40" stroke="#E8F5E9" stroke-width="1.5" fill="none" opacity="0.2"/>
  <path d="M16 58 Q36 52 56 58 Q72 54 86 58" stroke="#E8F5E9" stroke-width="1.5" fill="none" opacity="0.18"/>
  <path d="M14 78 Q38 72 62 78 Q78 74 88 78" stroke="#E8F5E9" stroke-width="1.5" fill="none" opacity="0.15"/>
  <!-- Star — glowing -->
  <polygon points="50,0 53,7 60,8 55,13 56,20 50,16 44,20 45,13 40,8 47,7" fill="url(#sG)"/>
  <circle cx="50" cy="10" r="6" fill="#FFF9C4" opacity="0.15" filter="url(#gl)"/>
  <!-- Ornaments — shiny balls -->
  <circle cx="30" cy="42" r="4" fill="#E53935"/>
  <circle cx="28" cy="40" r="1.5" fill="#FFCDD2" opacity="0.35"/>
  <circle cx="70" cy="40" r="3.5" fill="#FDD835"/>
  <circle cx="68" cy="38" r="1.3" fill="#FFF9C4" opacity="0.3"/>
  <circle cx="22" cy="60" r="3.5" fill="#1E88E5"/>
  <circle cx="20" cy="58" r="1.2" fill="#BBDEFB" opacity="0.3"/>
  <circle cx="50" cy="56" r="4" fill="#E53935"/>
  <circle cx="48" cy="54" r="1.5" fill="#FFCDD2" opacity="0.35"/>
  <circle cx="78" cy="62" r="3.5" fill="#FDD835"/>
  <circle cx="76" cy="60" r="1.2" fill="#FFF9C4" opacity="0.3"/>
  <circle cx="34" cy="78" r="4" fill="#1E88E5"/>
  <circle cx="32" cy="76" r="1.5" fill="#BBDEFB" opacity="0.3"/>
  <circle cx="66" cy="76" r="3.5" fill="#E53935"/>
  <circle cx="64" cy="74" r="1.3" fill="#FFCDD2" opacity="0.3"/>
  <!-- Tinsel -->
  <path d="M32 44 Q40 50 50 48 Q60 50 68 44" stroke="#FDD835" stroke-width="0.8" fill="none" opacity="0.3"/>
  <path d="M24 62 Q40 68 56 64 Q72 68 82 62" stroke="#FDD835" stroke-width="0.8" fill="none" opacity="0.25"/>
</svg>
