<svg xmlns="http://www.w3.org/2000/svg" viewBox="0 0 100 120">
  <defs>
    <linearGradient id="tG" x1="0" y1="0" x2="1" y2="0">
      <stop offset="0%" stop-color="#4E342E"/>
      <stop offset="50%" stop-color="#6D4C41"/>
      <stop offset="100%" stop-color="#4E342E"/>
    </linearGradient>
    <filter id="s"><feGaussianBlur stdDeviation="2.5"/></filter>
  </defs>
  <ellipse cx="50" cy="112" rx="24" ry="7" fill="#3E2723" opacity="0.13" filter="url(#s)"/>
  <path d="M46 110 Q46 100 47 90 Q49 88 51 88 Q53 88 54 90 Q55 100 54 110Z" fill="url(#tG)"/>
  <path d="M50 20 L26 54 L74 54 Z" fill="#2E7D32"/>
  <path d="M50 36 L22 72 L78 72 Z" fill="#388E3C"/>
  <path d="M50 50 L20 90 L80 90 Z" fill="#43A047"/>
  <polygon points="50,16 52,22 56,22 53,26 54,30 50,27 46,30 47,26 44,22 48,22" fill="#FDD835"/>
  <circle cx="38" cy="50" r="3" fill="#E53935"/>
  <circle cx="64" cy="48" r="2.5" fill="#1E88E5"/>
  <circle cx="32" cy="68" r="2.5" fill="#FDD835"/>
  <circle cx="56" cy="64" r="3" fill="#E53935"/>
  <circle cx="42" cy="82" r="3" fill="#1E88E5"/>
</svg>
