<svg xmlns="http://www.w3.org/2000/svg" viewBox="0 0 100 120">
  <ellipse cx="50" cy="112" rx="26" ry="8" fill="#5D4037" opacity="0.25"/>
  <rect x="46" y="85" width="8" height="25" rx="2" fill="#6D4C41"/>
  <polygon points="50,5 20,40 80,40" fill="#2E7D32"/>
  <polygon points="50,22 22,55 78,55" fill="#388E3C"/>
  <polygon points="50,38 25,72 75,72" fill="#43A047"/>
  <polygon points="50,52 28,88 72,88" fill="#4CAF50"/>
  <circle cx="35" cy="35" r="3" fill="#F44336"/>
  <circle cx="60" cy="48" r="3" fill="#F44336"/>
  <circle cx="45" cy="62" r="3" fill="#F44336"/>
  <circle cx="55" cy="75" r="3" fill="#F44336"/>
  <circle cx="68" cy="62" r="3" fill="#FFEB3B"/>
  <circle cx="38" cy="50" r="3" fill="#FFEB3B"/>
  <circle cx="52" cy="28" r="3" fill="#FFEB3B"/>
  <polygon points="50,0 52,5 48,5" fill="#FFC107"/>
  <rect x="48" y="1" width="4" height="4" fill="#FFC107" rx="1"/>
</svg>
