<svg xmlns="http://www.w3.org/2000/svg" viewBox="0 0 100 120">
  <ellipse cx="50" cy="112" rx="22" ry="7" fill="#5D4037" opacity="0.25"/>
  <!-- Stem -->
  <path d="M50 110 Q49 85 48 58" stroke="#558B2F" stroke-width="4" fill="none" stroke-linecap="round"/>
  <!-- Leaves -->
  <ellipse cx="38" cy="88" rx="9" ry="5" fill="#689F38" transform="rotate(-30 38 88)"/>
  <ellipse cx="60" cy="80" rx="9" ry="4" fill="#7CB342" transform="rotate(25 60 80)"/>
  <!-- Chrysanthemum petals - many thin petals -->
  <g transform="translate(48, 36)">
    <ellipse cx="0" cy="-12" rx="2.5" ry="10" fill="#FFC107" transform="rotate(0 0 0)"/>
    <ellipse cx="0" cy="-12" rx="2.5" ry="10" fill="#FFD54F" transform="rotate(24 0 0)"/>
    <ellipse cx="0" cy="-12" rx="2.5" ry="10" fill="#FFC107" transform="rotate(48 0 0)"/>
    <ellipse cx="0" cy="-12" rx="2.5" ry="10" fill="#FFD54F" transform="rotate(72 0 0)"/>
    <ellipse cx="0" cy="-12" rx="2.5" ry="10" fill="#FFCA28" transform="rotate(96 0 0)"/>
    <ellipse cx="0" cy="-12" rx="2.5" ry="10" fill="#FFC107" transform="rotate(120 0 0)"/>
    <ellipse cx="0" cy="-12" rx="2.5" ry="10" fill="#FFD54F" transform="rotate(144 0 0)"/>
    <ellipse cx="0" cy="-12" rx="2.5" ry="10" fill="#FFC107" transform="rotate(168 0 0)"/>
    <ellipse cx="0" cy="-12" rx="2.5" ry="10" fill="#FFCA28" transform="rotate(192 0 0)"/>
    <ellipse cx="0" cy="-12" rx="2.5" ry="10" fill="#FFC107" transform="rotate(216 0 0)"/>
    <ellipse cx="0" cy="-12" rx="2.5" ry="10" fill="#FFD54F" transform="rotate(240 0 0)"/>
    <ellipse cx="0" cy="-12" rx="2.5" ry="10" fill="#FFC107" transform="rotate(264 0 0)"/>
    <ellipse cx="0" cy="-12" rx="2.5" ry="10" fill="#FFCA28" transform="rotate(288 0 0)"/>
    <ellipse cx="0" cy="-12" rx="2.5" ry="10" fill="#FFC107" transform="rotate(312 0 0)"/>
    <ellipse cx="0" cy="-12" rx="2.5" ry="10" fill="#FFD54F" transform="rotate(336 0 0)"/>
    <!-- Inner petals -->
    <ellipse cx="0" cy="-7" rx="2" ry="6" fill="#FFB300" transform="rotate(12 0 0)"/>
    <ellipse cx="0" cy="-7" rx="2" ry="6" fill="#FFB300" transform="rotate(60 0 0)"/>
    <ellipse cx="0" cy="-7" rx="2" ry="6" fill="#FFB300" transform="rotate(108 0 0)"/>
    <ellipse cx="0" cy="-7" rx="2" ry="6" fill="#FFB300" transform="rotate(156 0 0)"/>
    <ellipse cx="0" cy="-7" rx="2" ry="6" fill="#FFB300" transform="rotate(204 0 0)"/>
    <ellipse cx="0" cy="-7" rx="2" ry="6" fill="#FFB300" transform="rotate(252 0 0)"/>
    <ellipse cx="0" cy="-7" rx="2" ry="6" fill="#FFB300" transform="rotate(300 0 0)"/>
    <ellipse cx="0" cy="-7" rx="2" ry="6" fill="#FFB300" transform="rotate(348 0 0)"/>
    <circle cx="0" cy="0" r="4" fill="#FF8F00"/>
  </g>
</svg>
