<svg xmlns="http://www.w3.org/2000/svg" viewBox="0 0 100 120">
  <defs>
    <linearGradient id="stG" x1="0" y1="0" x2="1" y2="0">
      <stop offset="0%" stop-color="#33691E"/>
      <stop offset="50%" stop-color="#689F38"/>
      <stop offset="100%" stop-color="#33691E"/>
    </linearGradient>
    <radialGradient id="pG" cx="42%" cy="30%">
      <stop offset="0%" stop-color="#FFE082"/>
      <stop offset="50%" stop-color="#FFC107"/>
      <stop offset="100%" stop-color="#FF8F00"/>
    </radialGradient>
    <filter id="sh"><feGaussianBlur stdDeviation="2.5"/></filter>
  </defs>
  <ellipse cx="50" cy="114" rx="24" ry="7" fill="#3E2723" opacity="0.18" filter="url(#sh)"/>
  <path d="M50 112 Q49 86 48 56" stroke="url(#stG)" stroke-width="4.5" fill="none" stroke-linecap="round"/>
  <ellipse cx="36" cy="88" rx="10" ry="5" fill="#558B2F" transform="rotate(-30 36 88)"/>
  <ellipse cx="37" cy="87" rx="7" ry="3" fill="#7CB342" opacity="0.3" transform="rotate(-30 37 87)"/>
  <ellipse cx="62" cy="80" rx="10" ry="4.5" fill="#689F38" transform="rotate(25 62 80)"/>
  <!-- Chrysanthemum -->
  <g transform="translate(48, 34)">
    <ellipse cx="0" cy="-13" rx="2.8" ry="11" fill="url(#pG)" transform="rotate(0 0 0)"/>
    <ellipse cx="0" cy="-13" rx="2.8" ry="11" fill="#FFD54F" transform="rotate(24 0 0)"/>
    <ellipse cx="0" cy="-13" rx="2.8" ry="11" fill="url(#pG)" transform="rotate(48 0 0)"/>
    <ellipse cx="0" cy="-13" rx="2.8" ry="11" fill="#FFD54F" transform="rotate(72 0 0)"/>
    <ellipse cx="0" cy="-13" rx="2.8" ry="11" fill="#FFCA28" transform="rotate(96 0 0)"/>
    <ellipse cx="0" cy="-13" rx="2.8" ry="11" fill="url(#pG)" transform="rotate(120 0 0)"/>
    <ellipse cx="0" cy="-13" rx="2.8" ry="11" fill="#FFD54F" transform="rotate(144 0 0)"/>
    <ellipse cx="0" cy="-13" rx="2.8" ry="11" fill="url(#pG)" transform="rotate(168 0 0)"/>
    <ellipse cx="0" cy="-13" rx="2.8" ry="11" fill="#FFCA28" transform="rotate(192 0 0)"/>
    <ellipse cx="0" cy="-13" rx="2.8" ry="11" fill="url(#pG)" transform="rotate(216 0 0)"/>
    <ellipse cx="0" cy="-13" rx="2.8" ry="11" fill="#FFD54F" transform="rotate(240 0 0)"/>
    <ellipse cx="0" cy="-13" rx="2.8" ry="11" fill="url(#pG)" transform="rotate(264 0 0)"/>
    <ellipse cx="0" cy="-13" rx="2.8" ry="11" fill="#FFCA28" transform="rotate(288 0 0)"/>
    <ellipse cx="0" cy="-13" rx="2.8" ry="11" fill="url(#pG)" transform="rotate(312 0 0)"/>
    <ellipse cx="0" cy="-13" rx="2.8" ry="11" fill="#FFD54F" transform="rotate(336 0 0)"/>
    <!-- Inner -->
    <ellipse cx="0" cy="-8" rx="2.2" ry="7" fill="#FFB300" transform="rotate(12 0 0)"/>
    <ellipse cx="0" cy="-8" rx="2.2" ry="7" fill="#FFB300" transform="rotate(60 0 0)"/>
    <ellipse cx="0" cy="-8" rx="2.2" ry="7" fill="#FFB300" transform="rotate(108 0 0)"/>
    <ellipse cx="0" cy="-8" rx="2.2" ry="7" fill="#FFB300" transform="rotate(156 0 0)"/>
    <ellipse cx="0" cy="-8" rx="2.2" ry="7" fill="#FFB300" transform="rotate(204 0 0)"/>
    <ellipse cx="0" cy="-8" rx="2.2" ry="7" fill="#FFB300" transform="rotate(252 0 0)"/>
    <ellipse cx="0" cy="-8" rx="2.2" ry="7" fill="#FFB300" transform="rotate(300 0 0)"/>
    <ellipse cx="0" cy="-8" rx="2.2" ry="7" fill="#FFB300" transform="rotate(348 0 0)"/>
    <circle cx="0" cy="0" r="5" fill="#FF8F00"/>
    <circle cx="-1" cy="-1" r="2" fill="#FFE082" opacity="0.3"/>
  </g>
</svg>
