<svg xmlns="http://www.w3.org/2000/svg" viewBox="0 0 100 120">
  <defs>
    <linearGradient id="stG" x1="0" y1="0" x2="1" y2="0">
      <stop offset="0%" stop-color="#33691E"/>
      <stop offset="50%" stop-color="#689F38"/>
      <stop offset="100%" stop-color="#33691E"/>
    </linearGradient>
    <filter id="sh"><feGaussianBlur stdDeviation="2"/></filter>
  </defs>
  <ellipse cx="50" cy="112" rx="18" ry="6" fill="#3E2723" opacity="0.15" filter="url(#sh)"/>
  <path d="M50 108 Q50 94 50 76" stroke="url(#stG)" stroke-width="3.5" fill="none" stroke-linecap="round"/>
  <ellipse cx="41" cy="96" rx="7" ry="3" fill="#558B2F" transform="rotate(-15 41 96)"/>
  <g transform="translate(50, 62)">
    <ellipse cx="0" cy="-8" rx="2.2" ry="8" fill="#FFC107" transform="rotate(0 0 0)"/>
    <ellipse cx="0" cy="-8" rx="2.2" ry="8" fill="#FFD54F" transform="rotate(36 0 0)"/>
    <ellipse cx="0" cy="-8" rx="2.2" ry="8" fill="#FFC107" transform="rotate(72 0 0)"/>
    <ellipse cx="0" cy="-8" rx="2.2" ry="8" fill="#FFD54F" transform="rotate(108 0 0)"/>
    <ellipse cx="0" cy="-8" rx="2.2" ry="8" fill="#FFC107" transform="rotate(144 0 0)"/>
    <ellipse cx="0" cy="-8" rx="2.2" ry="8" fill="#FFD54F" transform="rotate(180 0 0)"/>
    <ellipse cx="0" cy="-8" rx="2.2" ry="8" fill="#FFC107" transform="rotate(216 0 0)"/>
    <ellipse cx="0" cy="-8" rx="2.2" ry="8" fill="#FFD54F" transform="rotate(252 0 0)"/>
    <ellipse cx="0" cy="-8" rx="2.2" ry="8" fill="#FFC107" transform="rotate(288 0 0)"/>
    <ellipse cx="0" cy="-8" rx="2.2" ry="8" fill="#FFD54F" transform="rotate(324 0 0)"/>
    <circle cx="0" cy="0" r="3.5" fill="#FF8F00"/>
    <circle cx="0" cy="0" r="1.8" fill="#FFE082" opacity="0.25"/>
  </g>
</svg>
