<svg xmlns="http://www.w3.org/2000/svg" viewBox="0 0 100 120">
  <defs>
    <radialGradient id="l1" cx="35%" cy="30%">
      <stop offset="0%" stop-color="#A5D6A7"/>
      <stop offset="100%" stop-color="#1B5E20"/>
    </radialGradient>
    <radialGradient id="l2" cx="35%" cy="30%">
      <stop offset="0%" stop-color="#C8E6C9"/>
      <stop offset="100%" stop-color="#2E7D32"/>
    </radialGradient>
    <linearGradient id="sG" x1="0" y1="0" x2="1" y2="0">
      <stop offset="0%" stop-color="#1B5E20"/>
      <stop offset="50%" stop-color="#43A047"/>
      <stop offset="100%" stop-color="#1B5E20"/>
    </linearGradient>
    <filter id="s"><feGaussianBlur stdDeviation="3"/></filter>
  </defs>
  <ellipse cx="50" cy="114" rx="26" ry="7" fill="#3E2723" opacity="0.15" filter="url(#s)"/>
  <path d="M50 112 Q50 94 50 72" stroke="url(#sG)" stroke-width="4.5" fill="none" stroke-linecap="round"/>
  <!-- Big clover leaves -->
  <g transform="translate(50, 46)">
    <path d="M0 8 Q-22 10 -28 -6 Q-24 -20 0 -16 Q0 -4 0 8Z" fill="url(#l1)"/>
    <path d="M0 8 Q22 10 28 -6 Q24 -20 0 -16 Q0 -4 0 8Z" fill="url(#l2)"/>
    <path d="M0 -16 Q-22 -18 -26 -32 Q-20 -44 0 -40 Q0 -28 0 -16Z" fill="#4CAF50"/>
    <path d="M0 -16 Q22 -18 26 -32 Q20 -44 0 -40 Q0 -28 0 -16Z" fill="#66BB6A"/>
    <!-- Center vein -->
    <path d="M0 6 Q0 -8 0 -38" stroke="#1B5E20" stroke-width="1" fill="none" opacity="0.3"/>
    <path d="M-4 0 Q0 -10 4 0" stroke="#1B5E20" stroke-width="0.8" fill="none" opacity="0.25"/>
    <!-- Highlights -->
    <path d="M0 8 Q-12 6 -18 -4" fill="#E8F5E9" opacity="0.12"/>
    <path d="M0 -16 Q-12 -20 -16 -30" fill="#E8F5E9" opacity="0.1"/>
    <ellipse cx="-16" cy="0" rx="4" ry="3" fill="#C8E6C9" opacity="0.2"/>
    <ellipse cx="16" cy="-2" rx="4" ry="3" fill="#E8F5E9" opacity="0.15"/>
    <ellipse cx="-14" cy="-28" rx="3.5" ry="2.5" fill="#C8E6C9" opacity="0.15"/>
    <ellipse cx="14" cy="-26" rx="3.5" ry="2.5" fill="#E8F5E9" opacity="0.12"/>
  </g>
</svg>
