<svg xmlns="http://www.w3.org/2000/svg" viewBox="0 0 100 120">
  <defs>
    <linearGradient id="eG" x1="0.3" y1="0" x2="0.7" y2="1">
      <stop offset="0%" stop-color="#FFF9C4"/>
      <stop offset="40%" stop-color="#FFEE58"/>
      <stop offset="100%" stop-color="#F9A825"/>
    </linearGradient>
    <filter id="s"><feGaussianBlur stdDeviation="2.5"/></filter>
  </defs>
  <ellipse cx="46" cy="114" rx="26" ry="8" fill="#3E2723" opacity="0.15" filter="url(#s)"/>
  <!-- Thick jointed stalk -->
  <path d="M46 112 Q44 90 44 20" stroke="#558B2F" stroke-width="6" fill="none" stroke-linecap="round"/>
  <path d="M46 112 Q45 92 45 22" stroke="#7CB342" stroke-width="1.2" fill="none" opacity="0.1"/>
  <!-- Nodes/joints -->
  <ellipse cx="44" cy="42" rx="4.5" ry="2" fill="#33691E" opacity="0.4"/>
  <ellipse cx="44" cy="66" rx="4.5" ry="2" fill="#33691E" opacity="0.35"/>
  <ellipse cx="46" cy="90" rx="4.5" ry="2" fill="#33691E" opacity="0.3"/>
  <!-- Long strap leaves — alternating, drooping from nodes -->
  <path d="M44 42 Q6 28 -2 40 Q12 46 44 42Z" fill="#558B2F"/>
  <path d="M44 42 Q10 32 4 42" fill="#7CB342" opacity="0.1"/>
  <path d="M46 42 Q82 28 92 38 Q78 44 46 42Z" fill="#689F38"/>
  <path d="M44 66 Q8 52 0 64 Q14 68 44 66Z" fill="#558B2F"/>
  <path d="M46 66 Q78 54 88 62 Q76 68 46 66Z" fill="#689F38"/>
  <path d="M44 90 Q14 78 6 88 Q16 92 44 90Z" fill="#558B2F" opacity="0.9"/>
  <path d="M46 90 Q74 80 84 88 Q74 92 46 90Z" fill="#689F38" opacity="0.9"/>
  <!-- Ear growing from node at stalk side — wrapped in husk -->
  <path d="M44 48 Q50 46 54 44" stroke="#558B2F" stroke-width="2.5" fill="none" stroke-linecap="round"/>
  <!-- Husk leaves wrapping ear -->
  <path d="M54 44 Q48 42 46 28 Q56 26 62 32 Q66 38 66 48 Q62 50 54 44Z" fill="#689F38"/>
  <path d="M54 44 Q60 40 64 34 Q68 40 68 48 Q64 50 54 44Z" fill="#558B2F"/>
  <!-- Ear visible through husk opening -->
  <path d="M50 42 Q48 34 50 28 Q54 26 56 30 Q58 36 56 42Z" fill="url(#eG)"/>
  <!-- Individual kernel bumps -->
  <circle cx="52" cy="30" r="1.5" fill="#FFD54F" opacity="0.4"/>
  <circle cx="54" cy="34" r="1.5" fill="#FFCA28" opacity="0.35"/>
  <circle cx="52" cy="38" r="1.5" fill="#FFD54F" opacity="0.4"/>
  <!-- Silk coming out of husk top -->
  <path d="M50 28 Q46 20 42 16" stroke="#A1887F" stroke-width="1" fill="none" stroke-linecap="round"/>
  <path d="M52 26 Q50 18 52 12" stroke="#BCAAA4" stroke-width="1" fill="none" stroke-linecap="round"/>
  <path d="M54 28 Q56 20 60 16" stroke="#A1887F" stroke-width="1" fill="none" stroke-linecap="round"/>
  <!-- Tassel at top of stalk -->
  <path d="M44 20 Q38 10 34 4" stroke="#BCAAA4" stroke-width="1.8" fill="none" stroke-linecap="round"/>
  <path d="M44 20 Q44 8 44 0" stroke="#A1887F" stroke-width="1.8" fill="none" stroke-linecap="round"/>
  <path d="M44 20 Q50 10 54 4" stroke="#BCAAA4" stroke-width="1.8" fill="none" stroke-linecap="round"/>
  <path d="M44 20 Q40 12 38 8" stroke="#8D6E63" stroke-width="1.2" fill="none" stroke-linecap="round"/>
  <path d="M44 20 Q48 12 50 8" stroke="#8D6E63" stroke-width="1.2" fill="none" stroke-linecap="round"/>
</svg>
