<svg xmlns="http://www.w3.org/2000/svg" viewBox="0 0 100 120">
  <defs>
    <linearGradient id="sG" x1="0" y1="0" x2="1" y2="0">
      <stop offset="0%" stop-color="#33691E"/>
      <stop offset="50%" stop-color="#558B2F"/>
      <stop offset="100%" stop-color="#33691E"/>
    </linearGradient>
    <filter id="s"><feGaussianBlur stdDeviation="2.5"/></filter>
  </defs>
  <ellipse cx="50" cy="112" rx="20" ry="6" fill="#3E2723" opacity="0.13" filter="url(#s)"/>
  <path d="M50 108 Q48 82 46 46" stroke="url(#sG)" stroke-width="5.5" fill="none" stroke-linecap="round"/>
  <path d="M46 82 Q16 64 8 76 Q14 84 46 82Z" fill="#558B2F"/>
  <path d="M48 68 Q74 52 82 64 Q76 72 48 68Z" fill="#689F38"/>
  <path d="M46 56 Q18 42 10 54 Q16 62 46 56Z" fill="#558B2F" opacity="0.9"/>
  <!-- Side ear starting to form -->
  <path d="M48 60 Q54 58 56 56" stroke="#558B2F" stroke-width="2.5" fill="none" stroke-linecap="round"/>
  <path d="M56 56 Q56 46 54 40 Q56 36 60 38 Q62 42 62 52Z" fill="#FFEE58"/>
  <path d="M62 52 Q66 48 66 42 Q60 46 62 52Z" fill="#689F38"/>
  <!-- Tassel at top -->
  <path d="M46 46 Q42 38 38 32" stroke="#BCAAA4" stroke-width="1.2" fill="none" stroke-linecap="round"/>
  <path d="M46 46 Q46 36 46 28" stroke="#A1887F" stroke-width="1.2" fill="none" stroke-linecap="round"/>
  <path d="M46 46 Q50 38 54 32" stroke="#BCAAA4" stroke-width="1.2" fill="none" stroke-linecap="round"/>
</svg>
