<svg xmlns="http://www.w3.org/2000/svg" viewBox="0 0 100 120">
  <defs>
    <linearGradient id="sG" x1="0" y1="0" x2="1" y2="0">
      <stop offset="0%" stop-color="#33691E"/>
      <stop offset="50%" stop-color="#558B2F"/>
      <stop offset="100%" stop-color="#33691E"/>
    </linearGradient>
    <radialGradient id="cG" cx="45%" cy="30%">
      <stop offset="0%" stop-color="#FFF9C4"/>
      <stop offset="40%" stop-color="#FFD54F"/>
      <stop offset="100%" stop-color="#F9A825"/>
    </radialGradient>
    <radialGradient id="hG" cx="45%" cy="40%">
      <stop offset="0%" stop-color="#A1887F"/>
      <stop offset="100%" stop-color="#4E342E"/>
    </radialGradient>
    <filter id="s"><feGaussianBlur stdDeviation="3"/></filter>
  </defs>
  <ellipse cx="50" cy="114" rx="28" ry="8" fill="#3E2723" opacity="0.15" filter="url(#s)"/>
  <!-- Stalk -->
  <path d="M50 112 Q48 80 46 30" stroke="url(#sG)" stroke-width="6" fill="none" stroke-linecap="round"/>
  <path d="M50 112 Q49 82 47 32" stroke="#7CB342" stroke-width="1.5" fill="none" opacity="0.15"/>
  <!-- Leaves — big arching -->
  <path d="M46 86 Q18 72 8 82 Q16 92 46 86Z" fill="#558B2F"/>
  <path d="M46 86 Q22 74 14 84" fill="#7CB342" opacity="0.25"/>
  <path d="M46 74 Q72 62 82 70 Q74 78 46 74Z" fill="#689F38"/>
  <path d="M46 74 Q68 64 76 72" fill="#8BC34A" opacity="0.2"/>
  <path d="M46 60 Q20 50 10 58 Q18 66 46 60Z" fill="#558B2F" opacity="0.9"/>
  <path d="M46 50 Q68 40 78 48 Q70 56 46 50Z" fill="#689F38" opacity="0.9"/>
  <!-- Corn ear -->
  <path d="M46 30 Q36 28 32 16 Q34 4 46 2 Q58 4 60 16 Q56 28 46 30Z" fill="url(#cG)"/>
  <path d="M46 30 Q38 28 36 18 Q38 8 46 6 Q46 18 46 30Z" fill="#FFCA28" opacity="0.3"/>
  <!-- Corn rows -->
  <path d="M38 8 Q38 18 36 24" stroke="#F9A825" stroke-width="0.8" fill="none" opacity="0.4"/>
  <path d="M42 4 Q42 14 40 26" stroke="#F9A825" stroke-width="0.8" fill="none" opacity="0.35"/>
  <path d="M46 2 Q46 14 46 28" stroke="#F9A825" stroke-width="0.8" fill="none" opacity="0.3"/>
  <path d="M50 4 Q50 14 52 26" stroke="#F9A825" stroke-width="0.8" fill="none" opacity="0.35"/>
  <path d="M54 8 Q54 18 56 24" stroke="#F9A825" stroke-width="0.8" fill="none" opacity="0.4"/>
  <!-- Husk -->
  <path d="M46 30 Q30 26 28 18 Q36 28 46 30Z" fill="#689F38"/>
  <path d="M46 30 Q62 26 64 18 Q56 28 46 30Z" fill="#558B2F"/>
  <!-- Silk -->
  <path d="M46 4 Q42 -2 38 -4" stroke="url(#hG)" stroke-width="1" fill="none" stroke-linecap="round"/>
  <path d="M48 2 Q50 -4 52 -6" stroke="url(#hG)" stroke-width="1" fill="none" stroke-linecap="round"/>
  <path d="M50 4 Q54 -2 58 -2" stroke="url(#hG)" stroke-width="1" fill="none" stroke-linecap="round"/>
  <!-- Highlight -->
  <ellipse cx="42" cy="14" rx="3" ry="5" fill="#FFF9C4" opacity="0.15"/>
</svg>
