<svg xmlns="http://www.w3.org/2000/svg" viewBox="0 0 100 120">
  <defs>
    <linearGradient id="sG" x1="0" y1="0" x2="1" y2="0">
      <stop offset="0%" stop-color="#33691E"/>
      <stop offset="50%" stop-color="#558B2F"/>
      <stop offset="100%" stop-color="#33691E"/>
    </linearGradient>
    <radialGradient id="pG" cx="40%" cy="28%">
      <stop offset="0%" stop-color="#FFFFFF"/>
      <stop offset="40%" stop-color="#FFF9C4"/>
      <stop offset="100%" stop-color="#FDD835"/>
    </radialGradient>
    <filter id="s"><feGaussianBlur stdDeviation="3"/></filter>
  </defs>
  <ellipse cx="50" cy="114" rx="26" ry="7" fill="#3E2723" opacity="0.15" filter="url(#s)"/>
  <!-- Multi stems -->
  <path d="M50 112 Q48 88 46 56" stroke="url(#sG)" stroke-width="4" fill="none" stroke-linecap="round"/>
  <path d="M44 95 Q34 88 28 82" stroke="#388E3C" stroke-width="2.5" fill="none" stroke-linecap="round"/>
  <path d="M48 86 Q58 80 66 76" stroke="#388E3C" stroke-width="2.5" fill="none" stroke-linecap="round"/>
  <!-- Leaves -->
  <path d="M46 92 Q30 82 20 86 Q28 92 46 92Z" fill="#558B2F"/>
  <path d="M46 80 Q58 72 66 74 Q60 80 46 80Z" fill="#689F38"/>
  <path d="M46 68 Q34 60 26 64 Q32 70 46 68Z" fill="#558B2F"/>
  <!-- Main daisy — big white petals -->
  <g transform="translate(46 32)">
    <ellipse cx="0" cy="-14" rx="6" ry="13" fill="url(#pG)" transform="rotate(0 0 0)"/>
    <ellipse cx="0" cy="-14" rx="6" ry="13" fill="#FFFDE7" transform="rotate(30 0 0)"/>
    <ellipse cx="0" cy="-14" rx="6" ry="13" fill="url(#pG)" transform="rotate(60 0 0)"/>
    <ellipse cx="0" cy="-14" rx="6" ry="13" fill="#FFFDE7" transform="rotate(90 0 0)"/>
    <ellipse cx="0" cy="-14" rx="6" ry="13" fill="url(#pG)" transform="rotate(120 0 0)"/>
    <ellipse cx="0" cy="-14" rx="6" ry="13" fill="#FFFDE7" transform="rotate(150 0 0)"/>
    <ellipse cx="0" cy="-14" rx="6" ry="13" fill="url(#pG)" transform="rotate(180 0 0)"/>
    <ellipse cx="0" cy="-14" rx="6" ry="13" fill="#FFFDE7" transform="rotate(210 0 0)"/>
    <ellipse cx="0" cy="-14" rx="6" ry="13" fill="url(#pG)" transform="rotate(240 0 0)"/>
    <ellipse cx="0" cy="-14" rx="6" ry="13" fill="#FFFDE7" transform="rotate(270 0 0)"/>
    <ellipse cx="0" cy="-14" rx="6" ry="13" fill="url(#pG)" transform="rotate(300 0 0)"/>
    <ellipse cx="0" cy="-14" rx="6" ry="13" fill="#FFFDE7" transform="rotate(330 0 0)"/>
    <circle cx="0" cy="0" r="8" fill="#FDD835"/>
    <circle cx="-2" cy="-2" r="3" fill="#FFF9C4" opacity="0.25"/>
    <circle cx="2" cy="1" r="1.5" fill="#F9A825" opacity="0.4"/>
  </g>
  <!-- Side daisies -->
  <g transform="translate(28 72) scale(0.45)">
    <ellipse cx="0" cy="-14" rx="6" ry="13" fill="#FFFDE7" transform="rotate(0 0 0)"/>
    <ellipse cx="0" cy="-14" rx="6" ry="13" fill="#FFF9C4" transform="rotate(45 0 0)"/>
    <ellipse cx="0" cy="-14" rx="6" ry="13" fill="#FFFDE7" transform="rotate(90 0 0)"/>
    <ellipse cx="0" cy="-14" rx="6" ry="13" fill="#FFF9C4" transform="rotate(135 0 0)"/>
    <ellipse cx="0" cy="-14" rx="6" ry="13" fill="#FFFDE7" transform="rotate(180 0 0)"/>
    <ellipse cx="0" cy="-14" rx="6" ry="13" fill="#FFF9C4" transform="rotate(225 0 0)"/>
    <ellipse cx="0" cy="-14" rx="6" ry="13" fill="#FFFDE7" transform="rotate(270 0 0)"/>
    <ellipse cx="0" cy="-14" rx="6" ry="13" fill="#FFF9C4" transform="rotate(315 0 0)"/>
    <circle cx="0" cy="0" r="6" fill="#FDD835"/>
  </g>
  <g transform="translate(68 68) scale(0.4)">
    <ellipse cx="0" cy="-14" rx="6" ry="13" fill="#FFFDE7" transform="rotate(0 0 0)"/>
    <ellipse cx="0" cy="-14" rx="6" ry="13" fill="#FFF9C4" transform="rotate(60 0 0)"/>
    <ellipse cx="0" cy="-14" rx="6" ry="13" fill="#FFFDE7" transform="rotate(120 0 0)"/>
    <ellipse cx="0" cy="-14" rx="6" ry="13" fill="#FFF9C4" transform="rotate(180 0 0)"/>
    <ellipse cx="0" cy="-14" rx="6" ry="13" fill="#FFFDE7" transform="rotate(240 0 0)"/>
    <ellipse cx="0" cy="-14" rx="6" ry="13" fill="#FFF9C4" transform="rotate(300 0 0)"/>
    <circle cx="0" cy="0" r="6" fill="#FDD835"/>
  </g>
</svg>
