<svg xmlns="http://www.w3.org/2000/svg" viewBox="0 0 100 120">
  <defs>
    <linearGradient id="sG" x1="0" y1="0" x2="1" y2="0">
      <stop offset="0%" stop-color="#33691E"/>
      <stop offset="50%" stop-color="#558B2F"/>
      <stop offset="100%" stop-color="#33691E"/>
    </linearGradient>
    <filter id="s"><feGaussianBlur stdDeviation="2.5"/></filter>
  </defs>
  <ellipse cx="50" cy="112" rx="20" ry="6" fill="#3E2723" opacity="0.13" filter="url(#s)"/>
  <path d="M50 108 Q49 92 48 72" stroke="url(#sG)" stroke-width="3.5" fill="none" stroke-linecap="round"/>
  <path d="M48 92 Q36 84 28 88 Q34 92 48 92Z" fill="#558B2F"/>
  <g transform="translate(48 56)">
    <ellipse cx="0" cy="-10" rx="5" ry="10" fill="#FFFDE7" transform="rotate(0 0 0)"/>
    <ellipse cx="0" cy="-10" rx="5" ry="10" fill="#FFF9C4" transform="rotate(45 0 0)"/>
    <ellipse cx="0" cy="-10" rx="5" ry="10" fill="#FFFDE7" transform="rotate(90 0 0)"/>
    <ellipse cx="0" cy="-10" rx="5" ry="10" fill="#FFF9C4" transform="rotate(135 0 0)"/>
    <ellipse cx="0" cy="-10" rx="5" ry="10" fill="#FFFDE7" transform="rotate(180 0 0)"/>
    <ellipse cx="0" cy="-10" rx="5" ry="10" fill="#FFF9C4" transform="rotate(225 0 0)"/>
    <ellipse cx="0" cy="-10" rx="5" ry="10" fill="#FFFDE7" transform="rotate(270 0 0)"/>
    <ellipse cx="0" cy="-10" rx="5" ry="10" fill="#FFF9C4" transform="rotate(315 0 0)"/>
    <circle cx="0" cy="0" r="5.5" fill="#FDD835"/>
  </g>
</svg>
