<svg xmlns="http://www.w3.org/2000/svg" viewBox="0 0 100 120">
  <defs>
    <linearGradient id="sG" x1="0" y1="0" x2="1" y2="0">
      <stop offset="0%" stop-color="#33691E"/>
      <stop offset="50%" stop-color="#558B2F"/>
      <stop offset="100%" stop-color="#33691E"/>
    </linearGradient>
    <filter id="s"><feGaussianBlur stdDeviation="3"/></filter>
  </defs>
  <ellipse cx="50" cy="114" rx="26" ry="7" fill="#3E2723" opacity="0.15" filter="url(#s)"/>
  <!-- Multi stems — slightly asymmetric -->
  <path d="M50 112 Q48 88 46 56" stroke="url(#sG)" stroke-width="4" fill="none" stroke-linecap="round"/>
  <path d="M44 95 Q34 86 26 78" stroke="#388E3C" stroke-width="2.5" fill="none" stroke-linecap="round"/>
  <path d="M48 84 Q58 76 66 72" stroke="#388E3C" stroke-width="2.5" fill="none" stroke-linecap="round"/>
  <!-- Leaves -->
  <path d="M46 92 Q30 82 20 86 Q28 92 46 92Z" fill="#558B2F"/>
  <path d="M46 80 Q58 70 68 74 Q60 80 46 80Z" fill="#689F38"/>
  <path d="M46 68 Q34 58 24 62 Q32 68 46 68Z" fill="#558B2F"/>
  <!-- Main daisy — softer petals, less glowy -->
  <g transform="translate(46 32)">
    <ellipse cx="0" cy="-15" rx="5.5" ry="14" fill="#FFFDE7" transform="rotate(0 0 0)"/>
    <ellipse cx="0" cy="-15" rx="5.5" ry="14" fill="#FFF8E1" transform="rotate(26 0 0)"/>
    <ellipse cx="0" cy="-15" rx="5.5" ry="14" fill="#FFFDE7" transform="rotate(52 0 0)"/>
    <ellipse cx="0" cy="-15" rx="5.5" ry="14" fill="#FFF8E1" transform="rotate(78 0 0)"/>
    <ellipse cx="0" cy="-15" rx="5.5" ry="14" fill="#FFFDE7" transform="rotate(104 0 0)"/>
    <ellipse cx="0" cy="-15" rx="5.5" ry="14" fill="#FFF8E1" transform="rotate(130 0 0)"/>
    <ellipse cx="0" cy="-15" rx="5.5" ry="14" fill="#FFFDE7" transform="rotate(156 0 0)"/>
    <ellipse cx="0" cy="-15" rx="5.5" ry="14" fill="#FFF8E1" transform="rotate(182 0 0)"/>
    <ellipse cx="0" cy="-15" rx="5.5" ry="14" fill="#FFFDE7" transform="rotate(208 0 0)"/>
    <ellipse cx="0" cy="-15" rx="5.5" ry="14" fill="#FFF8E1" transform="rotate(234 0 0)"/>
    <ellipse cx="0" cy="-15" rx="5.5" ry="14" fill="#FFFDE7" transform="rotate(260 0 0)"/>
    <ellipse cx="0" cy="-15" rx="5.5" ry="14" fill="#FFF8E1" transform="rotate(286 0 0)"/>
    <ellipse cx="0" cy="-15" rx="5.5" ry="14" fill="#FFFDE7" transform="rotate(312 0 0)"/>
    <ellipse cx="0" cy="-15" rx="5.5" ry="14" fill="#FFF8E1" transform="rotate(338 0 0)"/>
    <circle cx="0" cy="0" r="8.5" fill="#FDD835"/>
    <circle cx="0" cy="0" r="5" fill="#F9A825" opacity="0.4"/>
    <circle cx="-2" cy="-2" r="2" fill="#FFEE58" opacity="0.25"/>
  </g>
  <!-- Side daisies — placed on branches -->
  <g transform="translate(26 68) scale(0.4)">
    <ellipse cx="0" cy="-14" rx="5.5" ry="13" fill="#FFFDE7" transform="rotate(0 0 0)"/>
    <ellipse cx="0" cy="-14" rx="5.5" ry="13" fill="#FFF8E1" transform="rotate(40 0 0)"/>
    <ellipse cx="0" cy="-14" rx="5.5" ry="13" fill="#FFFDE7" transform="rotate(80 0 0)"/>
    <ellipse cx="0" cy="-14" rx="5.5" ry="13" fill="#FFF8E1" transform="rotate(120 0 0)"/>
    <ellipse cx="0" cy="-14" rx="5.5" ry="13" fill="#FFFDE7" transform="rotate(160 0 0)"/>
    <ellipse cx="0" cy="-14" rx="5.5" ry="13" fill="#FFF8E1" transform="rotate(200 0 0)"/>
    <ellipse cx="0" cy="-14" rx="5.5" ry="13" fill="#FFFDE7" transform="rotate(240 0 0)"/>
    <ellipse cx="0" cy="-14" rx="5.5" ry="13" fill="#FFF8E1" transform="rotate(280 0 0)"/>
    <ellipse cx="0" cy="-14" rx="5.5" ry="13" fill="#FFFDE7" transform="rotate(320 0 0)"/>
    <circle cx="0" cy="0" r="7" fill="#FDD835"/>
  </g>
  <g transform="translate(68 64) scale(0.35)">
    <ellipse cx="0" cy="-14" rx="5.5" ry="13" fill="#FFFDE7" transform="rotate(0 0 0)"/>
    <ellipse cx="0" cy="-14" rx="5.5" ry="13" fill="#FFF8E1" transform="rotate(45 0 0)"/>
    <ellipse cx="0" cy="-14" rx="5.5" ry="13" fill="#FFFDE7" transform="rotate(90 0 0)"/>
    <ellipse cx="0" cy="-14" rx="5.5" ry="13" fill="#FFF8E1" transform="rotate(135 0 0)"/>
    <ellipse cx="0" cy="-14" rx="5.5" ry="13" fill="#FFFDE7" transform="rotate(180 0 0)"/>
    <ellipse cx="0" cy="-14" rx="5.5" ry="13" fill="#FFF8E1" transform="rotate(225 0 0)"/>
    <ellipse cx="0" cy="-14" rx="5.5" ry="13" fill="#FFFDE7" transform="rotate(270 0 0)"/>
    <ellipse cx="0" cy="-14" rx="5.5" ry="13" fill="#FFF8E1" transform="rotate(315 0 0)"/>
    <circle cx="0" cy="0" r="7" fill="#FDD835"/>
  </g>
</svg>
