<svg xmlns="http://www.w3.org/2000/svg" viewBox="0 0 100 120">
  <defs>
    <filter id="s"><feGaussianBlur stdDeviation="2.5"/></filter>
  </defs>
  <ellipse cx="50" cy="114" rx="28" ry="8" fill="#3E2723" opacity="0.15" filter="url(#s)"/>
  <!-- Woody vine — thin, winding, with visible bark texture -->
  <path d="M50 112 Q38 96 30 82 Q24 68 30 52 Q38 40 46 34" stroke="#5D4037" stroke-width="4" fill="none" stroke-linecap="round"/>
  <path d="M46 34 Q54 32 64 36 Q74 42 78 52" stroke="#6D4C41" stroke-width="3.5" fill="none" stroke-linecap="round"/>
  <!-- Side shoots -->
  <path d="M30 68 Q22 62 18 56" stroke="#795548" stroke-width="2" fill="none" stroke-linecap="round"/>
  <path d="M70 44 Q76 38 82 36" stroke="#795548" stroke-width="2" fill="none" stroke-linecap="round"/>
  <!-- Curly tendrils — signature grape feature -->
  <path d="M46 34 Q42 26 38 24 Q36 28 40 32" stroke="#8BC34A" stroke-width="1.2" fill="none"/>
  <path d="M78 52 Q82 44 80 40 Q76 44 78 50" stroke="#8BC34A" stroke-width="1.2" fill="none"/>
  <path d="M30 52 Q24 44 22 42 Q20 46 24 50" stroke="#7CB342" stroke-width="1" fill="none"/>
  <!-- Large palmate leaves (grape leaves are deeply lobed) -->
  <path d="M30 56 Q16 42 8 48 Q6 56 14 60 Q22 62 30 56Z" fill="#388E3C"/>
  <path d="M30 56 Q20 44 14 50" fill="#66BB6A" opacity="0.12"/>
  <path d="M70 38 Q82 24 90 30 Q88 40 80 44 Q72 44 70 38Z" fill="#43A047"/>
  <path d="M40 42 Q28 30 22 36 Q26 44 40 42Z" fill="#66BB6A"/>
  <path d="M56 36 Q64 26 72 30 Q68 38 56 36Z" fill="#388E3C"/>
  <path d="M18 56 Q8 48 4 54 Q8 58 18 56Z" fill="#2E7D32"/>
  <!-- Grape cluster 1 — hangs from branch with short stem, conical -->
  <path d="M64 42 Q66 44 66 48" stroke="#795548" stroke-width="1.5" fill="none" stroke-linecap="round"/>
  <g transform="translate(62 52)">
    <circle cx="4" cy="0" r="5" fill="#6A1B9A"/>
    <circle cx="4" cy="-1" r="1.8" fill="#9C27B0" opacity="0.15"/>
    <circle cx="-1" cy="7" r="5" fill="#7B1FA2"/>
    <circle cx="9" cy="6" r="5" fill="#6A1B9A"/>
    <circle cx="4" cy="13" r="5" fill="#8E24AA"/>
    <circle cx="-3" cy="14" r="4.5" fill="#6A1B9A"/>
    <circle cx="11" cy="13" r="4.5" fill="#7B1FA2"/>
    <circle cx="2" cy="20" r="4" fill="#8E24AA"/>
    <circle cx="8" cy="19" r="4" fill="#6A1B9A"/>
    <circle cx="5" cy="25" r="3.5" fill="#7B1FA2"/>
  </g>
  <!-- Grape cluster 2 — smaller, from other branch -->
  <path d="M18 56 Q16 60 16 64" stroke="#795548" stroke-width="1.2" fill="none" stroke-linecap="round"/>
  <g transform="translate(12 66)">
    <circle cx="4" cy="0" r="4.5" fill="#7B1FA2"/>
    <circle cx="-1" cy="6" r="4.5" fill="#6A1B9A"/>
    <circle cx="9" cy="5" r="4.5" fill="#8E24AA"/>
    <circle cx="2" cy="11" r="4" fill="#7B1FA2"/>
    <circle cx="7" cy="11" r="4" fill="#6A1B9A"/>
    <circle cx="4" cy="16" r="3.5" fill="#8E24AA"/>
  </g>
</svg>
