<svg xmlns="http://www.w3.org/2000/svg" viewBox="0 0 100 120">
  <defs>
    <linearGradient id="sG" x1="0" y1="0" x2="1" y2="0">
      <stop offset="0%" stop-color="#33691E"/>
      <stop offset="50%" stop-color="#558B2F"/>
      <stop offset="100%" stop-color="#33691E"/>
    </linearGradient>
    <radialGradient id="fG" cx="38%" cy="28%">
      <stop offset="0%" stop-color="#FFAB91"/>
      <stop offset="40%" stop-color="#FF5722"/>
      <stop offset="100%" stop-color="#D84315"/>
    </radialGradient>
    <filter id="s"><feGaussianBlur stdDeviation="3"/></filter>
  </defs>
  <ellipse cx="50" cy="114" rx="28" ry="8" fill="#3E2723" opacity="0.15" filter="url(#s)"/>
  <!-- Stem — thick, curved -->
  <path d="M50 112 Q46 86 42 56" stroke="url(#sG)" stroke-width="6" fill="none" stroke-linecap="round"/>
  <path d="M50 112 Q47 88 43 58" stroke="#7CB342" stroke-width="1.5" fill="none" opacity="0.12"/>
  <!-- Big organic leaves -->
  <path d="M42 92 Q20 78 8 86 Q18 96 42 92Z" fill="#558B2F"/>
  <path d="M42 80 Q60 66 76 74 Q66 84 42 80Z" fill="#689F38"/>
  <path d="M42 72 Q22 60 10 68 Q20 76 42 72Z" fill="#558B2F"/>
  <path d="M42 64 Q56 52 68 58 Q60 66 42 64Z" fill="#689F38"/>
  <!-- Hibiscus — big spread petals using bezier, not ellipses -->
  <g transform="translate(42 28)">
    <path d="M0 0 Q-10 -26 -18 -18 Q-22 -8 -12 -2 Q-4 2 0 0Z" fill="url(#fG)"/>
    <path d="M0 0 Q4 -28 14 -22 Q20 -12 12 -4 Q4 0 0 0Z" fill="#FF7043"/>
    <path d="M0 0 Q-18 -16 -24 -6 Q-22 4 -12 6 Q-4 4 0 0Z" fill="url(#fG)"/>
    <path d="M0 0 Q18 -16 24 -6 Q22 4 12 6 Q4 4 0 0Z" fill="#FF7043"/>
    <path d="M0 0 Q-4 -30 6 -28 Q14 -22 8 -8 Q2 -2 0 0Z" fill="#FF5722"/>
    <!-- Stamen — prominent -->
    <path d="M0 0 Q0 -14 2 -18" stroke="#FFEB3B" stroke-width="2" fill="none" stroke-linecap="round"/>
    <circle cx="2" cy="-18" r="2.5" fill="#FF6F00"/>
    <circle cx="-2" cy="-14" r="2" fill="#FF6F00" opacity="0.7"/>
    <circle cx="4" cy="-12" r="1.5" fill="#FF6F00" opacity="0.6"/>
    <circle cx="0" cy="0" r="4" fill="#FFEB3B"/>
    <circle cx="-1" cy="-1" r="1.5" fill="#FFF9C4" opacity="0.25"/>
  </g>
</svg>
