<svg xmlns="http://www.w3.org/2000/svg" viewBox="0 0 100 120">
  <defs>
    <linearGradient id="sG" x1="0" y1="0" x2="1" y2="0">
      <stop offset="0%" stop-color="#33691E"/>
      <stop offset="50%" stop-color="#558B2F"/>
      <stop offset="100%" stop-color="#33691E"/>
    </linearGradient>
    <filter id="s"><feGaussianBlur stdDeviation="2.5"/></filter>
  </defs>
  <ellipse cx="50" cy="112" rx="20" ry="6" fill="#3E2723" opacity="0.13" filter="url(#s)"/>
  <path d="M50 108 Q48 88 46 66" stroke="url(#sG)" stroke-width="4.5" fill="none" stroke-linecap="round"/>
  <path d="M46 90 Q30 80 20 84 Q26 90 46 90Z" fill="#558B2F"/>
  <path d="M46 78 Q58 68 68 72 Q62 78 46 78Z" fill="#689F38"/>
  <g transform="translate(46 46)">
    <path d="M0 0 Q-6 -16 -10 -10 Q-10 -4 -6 -2 Q-2 0 0 0Z" fill="#FF5722"/>
    <path d="M0 0 Q6 -16 10 -10 Q10 -4 6 -2 Q2 0 0 0Z" fill="#FF7043"/>
    <path d="M0 0 Q-10 -10 -12 -4 Q-10 2 -4 2 Q-2 0 0 0Z" fill="#FF5722"/>
    <path d="M0 0 Q10 -10 12 -4 Q10 2 4 2 Q2 0 0 0Z" fill="#FF7043"/>
    <path d="M0 0 Q0 -18 4 -14 Q4 -6 2 -2Z" fill="#FFAB91"/>
    <circle cx="0" cy="0" r="3.5" fill="#FFEB3B"/>
  </g>
</svg>
