<svg xmlns="http://www.w3.org/2000/svg" viewBox="0 0 100 120">
  <ellipse cx="50" cy="112" rx="22" ry="7" fill="#5D4037" opacity="0.25"/>
  <!-- Stem -->
  <path d="M50 110 Q48 88 46 60" stroke="#558B2F" stroke-width="4" fill="none" stroke-linecap="round"/>
  <!-- Leaves -->
  <ellipse cx="36" cy="90" rx="10" ry="5" fill="#689F38" transform="rotate(-25 36 90)"/>
  <ellipse cx="60" cy="82" rx="9" ry="4" fill="#7CB342" transform="rotate(20 60 82)"/>
  <ellipse cx="34" cy="72" rx="8" ry="4" fill="#8BC34A" transform="rotate(-15 34 72)"/>
  <!-- Flower petals -->
  <g transform="translate(46, 38)">
    <ellipse cx="0" cy="-12" rx="8" ry="14" fill="#FF5722" transform="rotate(0 0 0)"/>
    <ellipse cx="0" cy="-12" rx="8" ry="14" fill="#FF7043" transform="rotate(72 0 0)"/>
    <ellipse cx="0" cy="-12" rx="8" ry="14" fill="#FF5722" transform="rotate(144 0 0)"/>
    <ellipse cx="0" cy="-12" rx="8" ry="14" fill="#FF7043" transform="rotate(216 0 0)"/>
    <ellipse cx="0" cy="-12" rx="8" ry="14" fill="#FF5722" transform="rotate(288 0 0)"/>
    <!-- Stamen -->
    <circle cx="0" cy="0" r="5" fill="#FFEB3B"/>
    <circle cx="0" cy="-4" r="1.5" fill="#FF6F00"/>
    <circle cx="3" cy="1" r="1.2" fill="#FF6F00"/>
    <circle cx="-3" cy="1" r="1.2" fill="#FF6F00"/>
  </g>
</svg>
