<svg xmlns="http://www.w3.org/2000/svg" viewBox="0 0 100 120">
  <defs>
    <linearGradient id="stG" x1="0" y1="0" x2="1" y2="0">
      <stop offset="0%" stop-color="#33691E"/>
      <stop offset="50%" stop-color="#689F38"/>
      <stop offset="100%" stop-color="#33691E"/>
    </linearGradient>
    <radialGradient id="pG" cx="40%" cy="30%">
      <stop offset="0%" stop-color="#CE93D8"/>
      <stop offset="50%" stop-color="#9C27B0"/>
      <stop offset="100%" stop-color="#6A1B9A"/>
    </radialGradient>
    <filter id="sh"><feGaussianBlur stdDeviation="2.5"/></filter>
    <filter id="gl"><feGaussianBlur stdDeviation="1"/></filter>
  </defs>
  <ellipse cx="50" cy="114" rx="24" ry="7" fill="#3E2723" opacity="0.18" filter="url(#sh)"/>
  <path d="M50 112 Q50 90 50 54" stroke="url(#stG)" stroke-width="4.5" fill="none" stroke-linecap="round"/>
  <path d="M50 112 Q50 92 50 56" stroke="#8BC34A" stroke-width="1" fill="none" opacity="0.2"/>
  <!-- Leaves -->
  <ellipse cx="36" cy="88" rx="9" ry="4.5" fill="#558B2F" transform="rotate(-20 36 88)"/>
  <ellipse cx="37" cy="87" rx="6" ry="2.5" fill="#7CB342" opacity="0.35" transform="rotate(-20 37 87)"/>
  <ellipse cx="62" cy="80" rx="9" ry="4" fill="#689F38" transform="rotate(15 62 80)"/>
  <ellipse cx="63" cy="79" rx="6" ry="2" fill="#8BC34A" opacity="0.35" transform="rotate(15 63 79)"/>
  <!-- Rainbow petals -->
  <g transform="translate(50, 36)">
    <ellipse cx="0" cy="-15" rx="4.5" ry="13" fill="#7B1FA2" transform="rotate(0 0 0)"/>
    <ellipse cx="0" cy="-15" rx="4.5" ry="13" fill="#9C27B0" transform="rotate(24 0 0)"/>
    <ellipse cx="0" cy="-15" rx="4.5" ry="13" fill="#AB47BC" transform="rotate(48 0 0)"/>
    <ellipse cx="0" cy="-15" rx="4.5" ry="13" fill="#CE93D8" transform="rotate(72 0 0)"/>
    <ellipse cx="0" cy="-15" rx="4.5" ry="13" fill="#E1BEE7" transform="rotate(96 0 0)"/>
    <ellipse cx="0" cy="-15" rx="4.5" ry="13" fill="#F3E5F5" transform="rotate(120 0 0)"/>
    <ellipse cx="0" cy="-15" rx="4.5" ry="13" fill="#E1BEE7" transform="rotate(144 0 0)"/>
    <ellipse cx="0" cy="-15" rx="4.5" ry="13" fill="#CE93D8" transform="rotate(168 0 0)"/>
    <ellipse cx="0" cy="-15" rx="4.5" ry="13" fill="#AB47BC" transform="rotate(192 0 0)"/>
    <ellipse cx="0" cy="-15" rx="4.5" ry="13" fill="#9C27B0" transform="rotate(216 0 0)"/>
    <ellipse cx="0" cy="-15" rx="4.5" ry="13" fill="#7B1FA2" transform="rotate(240 0 0)"/>
    <ellipse cx="0" cy="-15" rx="4.5" ry="13" fill="#9C27B0" transform="rotate(264 0 0)"/>
    <ellipse cx="0" cy="-15" rx="4.5" ry="13" fill="#AB47BC" transform="rotate(288 0 0)"/>
    <ellipse cx="0" cy="-15" rx="4.5" ry="13" fill="#CE93D8" transform="rotate(312 0 0)"/>
    <ellipse cx="0" cy="-15" rx="4.5" ry="13" fill="#E1BEE7" transform="rotate(336 0 0)"/>
    <!-- Center -->
    <circle cx="0" cy="0" r="6" fill="#FFEB3B"/>
    <circle cx="0" cy="0" r="3.5" fill="#FFF9C4" opacity="0.4" filter="url(#gl)"/>
    <circle cx="-1.5" cy="-1" r="1.5" fill="#FFC107" opacity="0.6"/>
    <circle cx="2" cy="1" r="1" fill="#FFC107" opacity="0.5"/>
  </g>
</svg>
