<svg xmlns="http://www.w3.org/2000/svg" viewBox="0 0 100 120">
  <defs>
    <linearGradient id="sG" x1="0" y1="0" x2="1" y2="0">
      <stop offset="0%" stop-color="#33691E"/>
      <stop offset="50%" stop-color="#689F38"/>
      <stop offset="100%" stop-color="#33691E"/>
    </linearGradient>
    <filter id="s"><feGaussianBlur stdDeviation="2.5"/></filter>
  </defs>
  <ellipse cx="50" cy="112" rx="20" ry="6" fill="#3E2723" opacity="0.13" filter="url(#s)"/>
  <path d="M50 108 Q48 90 46 66" stroke="url(#sG)" stroke-width="4" fill="none" stroke-linecap="round"/>
  <path d="M46 90 Q32 80 22 84 Q28 90 46 90Z" fill="#558B2F"/>
  <path d="M46 78 Q58 68 66 72 Q60 78 46 78Z" fill="#689F38"/>
  <g transform="translate(46 48)">
    <path d="M0 0 Q-4 -14 -8 -10 Q-8 -4 -4 -2 Q-2 0 0 0Z" fill="#7B1FA2"/>
    <path d="M0 0 Q4 -14 8 -10 Q8 -4 4 -2 Q2 0 0 0Z" fill="#9C27B0"/>
    <path d="M0 0 Q-8 -8 -10 -4 Q-8 2 -4 2 Q-2 0 0 0Z" fill="#AB47BC"/>
    <path d="M0 0 Q8 -8 10 -4 Q8 2 4 2 Q2 0 0 0Z" fill="#CE93D8"/>
    <path d="M0 0 Q0 -16 2 -12 Q2 -6 0 -2Z" fill="#E1BEE7"/>
    <circle cx="0" cy="0" r="3.5" fill="#FFEB3B"/>
  </g>
</svg>
