<svg xmlns="http://www.w3.org/2000/svg" viewBox="0 0 100 120">
  <defs>
    <linearGradient id="sG" x1="0" y1="0" x2="1" y2="0">
      <stop offset="0%" stop-color="#33691E"/>
      <stop offset="50%" stop-color="#689F38"/>
      <stop offset="100%" stop-color="#33691E"/>
    </linearGradient>
    <filter id="s"><feGaussianBlur stdDeviation="3"/></filter>
    <filter id="gl"><feGaussianBlur stdDeviation="1.5"/></filter>
  </defs>
  <ellipse cx="50" cy="114" rx="26" ry="7" fill="#3E2723" opacity="0.15" filter="url(#s)"/>
  <!-- Stem -->
  <path d="M50 112 Q48 86 46 52" stroke="url(#sG)" stroke-width="5.5" fill="none" stroke-linecap="round"/>
  <!-- Leaves -->
  <path d="M46 92 Q24 78 10 86 Q20 96 46 92Z" fill="#558B2F"/>
  <path d="M46 80 Q64 66 78 74 Q68 84 46 80Z" fill="#689F38"/>
  <path d="M46 68 Q28 56 16 64 Q26 72 46 68Z" fill="#558B2F"/>
  <!-- Rainbow flower — organic bezier petals in rainbow colors -->
  <g transform="translate(46 26)">
    <path d="M0 0 Q-6 -20 -12 -14 Q-14 -6 -8 -2 Q-2 2 0 0Z" fill="#7B1FA2"/>
    <path d="M0 0 Q2 -22 8 -16 Q12 -8 6 -2 Q2 0 0 0Z" fill="#9C27B0"/>
    <path d="M0 0 Q-12 -14 -16 -6 Q-14 2 -6 4 Q-2 2 0 0Z" fill="#AB47BC"/>
    <path d="M0 0 Q12 -14 16 -6 Q14 2 6 4 Q2 2 0 0Z" fill="#CE93D8"/>
    <path d="M0 0 Q-2 -24 4 -22 Q8 -14 4 -4Z" fill="#E1BEE7"/>
    <path d="M0 0 Q-10 -18 -18 -10 Q-16 -2 -8 2 Q-2 0 0 0Z" fill="#8E24AA"/>
    <path d="M0 0 Q10 -18 18 -10 Q16 -2 8 2 Q2 0 0 0Z" fill="#BA68C8"/>
    <path d="M0 0 Q-8 -22 -4 -22 Q2 -18 2 -6Z" fill="#7B1FA2"/>
    <path d="M0 0 Q8 -22 14 -16 Q14 -8 8 -2 Q2 0 0 0Z" fill="#9C27B0"/>
    <path d="M0 0 Q-16 -12 -20 -4 Q-18 4 -10 6 Q-4 4 0 0Z" fill="#AB47BC"/>
    <!-- Center — glowing -->
    <circle cx="0" cy="0" r="5.5" fill="#FFEB3B"/>
    <circle cx="0" cy="0" r="3" fill="#FFF9C4" opacity="0.3" filter="url(#gl)"/>
    <circle cx="-1.5" cy="-1" r="1.5" fill="#FFC107" opacity="0.5"/>
  </g>
</svg>
