<svg xmlns="http://www.w3.org/2000/svg" viewBox="0 0 100 120">
  <defs>
    <linearGradient id="stG" x1="0" y1="0" x2="1" y2="0">
      <stop offset="0%" stop-color="#33691E"/>
      <stop offset="50%" stop-color="#689F38"/>
      <stop offset="100%" stop-color="#33691E"/>
    </linearGradient>
    <filter id="sh"><feGaussianBlur stdDeviation="2"/></filter>
  </defs>
  <ellipse cx="50" cy="112" rx="18" ry="6" fill="#3E2723" opacity="0.15" filter="url(#sh)"/>
  <path d="M50 108 Q50 94 50 72" stroke="url(#stG)" stroke-width="3.5" fill="none" stroke-linecap="round"/>
  <ellipse cx="40" cy="92" rx="6" ry="3" fill="#558B2F" transform="rotate(-15 40 92)"/>
  <ellipse cx="58" cy="86" rx="6" ry="2.5" fill="#689F38" transform="rotate(12 58 86)"/>
  <g transform="translate(50, 58)">
    <ellipse cx="0" cy="-10" rx="3.5" ry="9" fill="#7B1FA2" transform="rotate(0 0 0)"/>
    <ellipse cx="0" cy="-10" rx="3.5" ry="9" fill="#9C27B0" transform="rotate(36 0 0)"/>
    <ellipse cx="0" cy="-10" rx="3.5" ry="9" fill="#AB47BC" transform="rotate(72 0 0)"/>
    <ellipse cx="0" cy="-10" rx="3.5" ry="9" fill="#CE93D8" transform="rotate(108 0 0)"/>
    <ellipse cx="0" cy="-10" rx="3.5" ry="9" fill="#E1BEE7" transform="rotate(144 0 0)"/>
    <ellipse cx="0" cy="-10" rx="3.5" ry="9" fill="#CE93D8" transform="rotate(180 0 0)"/>
    <ellipse cx="0" cy="-10" rx="3.5" ry="9" fill="#AB47BC" transform="rotate(216 0 0)"/>
    <ellipse cx="0" cy="-10" rx="3.5" ry="9" fill="#9C27B0" transform="rotate(252 0 0)"/>
    <ellipse cx="0" cy="-10" rx="3.5" ry="9" fill="#7B1FA2" transform="rotate(288 0 0)"/>
    <ellipse cx="0" cy="-10" rx="3.5" ry="9" fill="#E1BEE7" transform="rotate(324 0 0)"/>
    <circle cx="0" cy="0" r="4" fill="#FFEB3B"/>
    <circle cx="0" cy="0" r="2" fill="#FFF9C4" opacity="0.3"/>
  </g>
</svg>
