<svg xmlns="http://www.w3.org/2000/svg" viewBox="0 0 100 120">
  <defs>
    <radialGradient id="wG" cx="50%" cy="50%">
      <stop offset="0%" stop-color="#81D4FA"/>
      <stop offset="100%" stop-color="#29B6F6" stop-opacity="0"/>
    </radialGradient>
    <radialGradient id="pG" cx="38%" cy="25%">
      <stop offset="0%" stop-color="#FCE4EC"/>
      <stop offset="35%" stop-color="#F48FB1"/>
      <stop offset="100%" stop-color="#C2185B"/>
    </radialGradient>
    <radialGradient id="padG" cx="35%" cy="30%">
      <stop offset="0%" stop-color="#A5D6A7"/>
      <stop offset="100%" stop-color="#1B5E20"/>
    </radialGradient>
    <filter id="s"><feGaussianBlur stdDeviation="3"/></filter>
    <filter id="gl"><feGaussianBlur stdDeviation="1.5"/></filter>
  </defs>
  <ellipse cx="50" cy="114" rx="30" ry="9" fill="#3E2723" opacity="0.12" filter="url(#s)"/>
  <!-- Water surface -->
  <ellipse cx="50" cy="108" rx="36" ry="14" fill="url(#wG)" opacity="0.5"/>
  <ellipse cx="50" cy="108" rx="30" ry="10" fill="#4FC3F7" opacity="0.2"/>
  <!-- Lily pads — organic shapes -->
  <path d="M22 108 Q10 100 16 92 Q24 92 30 98 Q34 104 22 108Z" fill="url(#padG)"/>
  <path d="M22 108 Q16 104 18 96" stroke="#1B5E20" stroke-width="0.6" fill="none" opacity="0.25"/>
  <path d="M74 104 Q82 96 86 98 Q84 104 78 108 Q74 108 74 104Z" fill="#4CAF50"/>
  <path d="M50 102 Q36 94 42 86 Q50 86 58 86 Q64 94 50 102Z" fill="#388E3C"/>
  <path d="M50 102 Q42 96 46 90" stroke="#1B5E20" stroke-width="0.6" fill="none" opacity="0.2"/>
  <!-- Stem -->
  <path d="M50 94 Q46 76 42 52" stroke="#558B2F" stroke-width="4.5" fill="none" stroke-linecap="round"/>
  <!-- Lotus — organic ruffled petals -->
  <g transform="translate(42 28)">
    <path d="M0 0 Q-8 -22 -14 -16 Q-18 -8 -10 -2 Q-4 2 0 0Z" fill="url(#pG)"/>
    <path d="M0 0 Q8 -22 14 -16 Q18 -8 10 -2 Q4 2 0 0Z" fill="#F06292"/>
    <path d="M0 0 Q-14 -18 -20 -8 Q-18 2 -8 4 Q-2 2 0 0Z" fill="#EC407A"/>
    <path d="M0 0 Q14 -18 20 -8 Q18 2 8 4 Q2 2 0 0Z" fill="url(#pG)"/>
    <path d="M0 0 Q-4 -26 4 -24 Q10 -18 6 -6 Q2 -2 0 0Z" fill="#F48FB1"/>
    <path d="M0 0 Q-12 -24 -18 -14 Q-16 -4 -8 0 Q-2 0 0 0Z" fill="#F06292"/>
    <path d="M0 0 Q12 -24 18 -14 Q16 -4 8 0 Q2 0 0 0Z" fill="#EC407A"/>
    <!-- Inner petals -->
    <path d="M0 -2 Q-4 -14 -8 -10 Q-8 -4 -4 -2 Q-2 0 0 -2Z" fill="#FCE4EC"/>
    <path d="M0 -2 Q4 -14 8 -10 Q8 -4 4 -2 Q2 0 0 -2Z" fill="#F8BBD0"/>
    <path d="M0 -2 Q0 -16 4 -14 Q4 -8 2 -2Z" fill="#FCE4EC"/>
    <!-- Seed pod -->
    <circle cx="0" cy="0" r="6" fill="#FFEB3B"/>
    <circle cx="0" cy="0" r="3.5" fill="#FFF9C4" opacity="0.25" filter="url(#gl)"/>
    <circle cx="-2" cy="-1" r="1.2" fill="#FBC02D" opacity="0.6"/>
    <circle cx="2" cy="-1" r="1.2" fill="#FBC02D" opacity="0.6"/>
    <circle cx="0" cy="2" r="1" fill="#FBC02D" opacity="0.5"/>
  </g>
</svg>
