<svg xmlns="http://www.w3.org/2000/svg" viewBox="0 0 100 120">
  <ellipse cx="50" cy="110" rx="18" ry="6" fill="#5D4037" opacity="0.2"/>
  <!-- Water -->
  <ellipse cx="50" cy="108" rx="20" ry="7" fill="#4FC3F7" opacity="0.3"/>
  <!-- Small lily pad -->
  <ellipse cx="40" cy="106" rx="8" ry="4" fill="#4CAF50"/>
  <ellipse cx="58" cy="104" rx="7" ry="3.5" fill="#66BB6A"/>
  <!-- Stem -->
  <path d="M50 100 Q49 88 48 75" stroke="#558B2F" stroke-width="2.5" fill="none" stroke-linecap="round"/>
  <!-- Small lotus bud -->
  <g transform="translate(48, 62)">
    <ellipse cx="0" cy="-7" rx="4" ry="9" fill="#F48FB1" transform="rotate(0 0 0)"/>
    <ellipse cx="0" cy="-7" rx="4" ry="9" fill="#F06292" transform="rotate(60 0 0)"/>
    <ellipse cx="0" cy="-7" rx="4" ry="9" fill="#EC407A" transform="rotate(120 0 0)"/>
    <ellipse cx="0" cy="-7" rx="4" ry="9" fill="#F48FB1" transform="rotate(180 0 0)"/>
    <ellipse cx="0" cy="-7" rx="4" ry="9" fill="#F06292" transform="rotate(240 0 0)"/>
    <ellipse cx="0" cy="-7" rx="4" ry="9" fill="#EC407A" transform="rotate(300 0 0)"/>
    <circle cx="0" cy="0" r="3" fill="#FFEB3B"/>
  </g>
</svg>
