<svg xmlns="http://www.w3.org/2000/svg" viewBox="0 0 100 120">
  <defs>
    <radialGradient id="wG" cx="50%" cy="50%">
      <stop offset="0%" stop-color="#81D4FA"/>
      <stop offset="100%" stop-color="#29B6F6" stop-opacity="0"/>
    </radialGradient>
    <filter id="sh"><feGaussianBlur stdDeviation="2"/></filter>
  </defs>
  <ellipse cx="50" cy="112" rx="20" ry="6" fill="#3E2723" opacity="0.15" filter="url(#sh)"/>
  <ellipse cx="50" cy="108" rx="22" ry="8" fill="url(#wG)" opacity="0.4"/>
  <ellipse cx="38" cy="107" rx="9" ry="4.5" fill="#4CAF50"/>
  <ellipse cx="60" cy="105" rx="8" ry="4" fill="#66BB6A"/>
  <path d="M50 100 Q49 88 48 74" stroke="#558B2F" stroke-width="2.5" fill="none" stroke-linecap="round"/>
  <g transform="translate(48, 60)">
    <ellipse cx="0" cy="-8" rx="4.5" ry="10" fill="#F48FB1" transform="rotate(0 0 0)"/>
    <ellipse cx="0" cy="-8" rx="4.5" ry="10" fill="#F06292" transform="rotate(60 0 0)"/>
    <ellipse cx="0" cy="-8" rx="4.5" ry="10" fill="#EC407A" transform="rotate(120 0 0)"/>
    <ellipse cx="0" cy="-8" rx="4.5" ry="10" fill="#F48FB1" transform="rotate(180 0 0)"/>
    <ellipse cx="0" cy="-8" rx="4.5" ry="10" fill="#F06292" transform="rotate(240 0 0)"/>
    <ellipse cx="0" cy="-8" rx="4.5" ry="10" fill="#EC407A" transform="rotate(300 0 0)"/>
    <circle cx="0" cy="0" r="3.5" fill="#FFEB3B"/>
    <circle cx="0" cy="0" r="1.8" fill="#FFF9C4" opacity="0.3"/>
  </g>
</svg>
