<svg xmlns="http://www.w3.org/2000/svg" viewBox="0 0 100 120">
  <defs>
    <radialGradient id="wG" cx="50%" cy="50%">
      <stop offset="0%" stop-color="#81D4FA"/>
      <stop offset="100%" stop-color="#29B6F6" stop-opacity="0"/>
    </radialGradient>
    <radialGradient id="padG" cx="35%" cy="30%">
      <stop offset="0%" stop-color="#A5D6A7"/>
      <stop offset="100%" stop-color="#1B5E20"/>
    </radialGradient>
    <filter id="s"><feGaussianBlur stdDeviation="2.5"/></filter>
  </defs>
  <ellipse cx="50" cy="112" rx="24" ry="7" fill="#3E2723" opacity="0.12" filter="url(#s)"/>
  <ellipse cx="50" cy="106" rx="28" ry="10" fill="url(#wG)" opacity="0.4"/>
  <path d="M30 106 Q20 100 24 94 Q30 94 36 98 Q38 102 30 106Z" fill="url(#padG)"/>
  <path d="M68 102 Q74 96 78 98 Q76 102 70 106 Q68 104 68 102Z" fill="#4CAF50"/>
  <path d="M50 98 Q50 86 48 68" stroke="#558B2F" stroke-width="3.5" fill="none" stroke-linecap="round"/>
  <g transform="translate(48 50)">
    <path d="M0 0 Q-6 -16 -10 -10 Q-10 -4 -6 -2 Q-2 0 0 0Z" fill="#EC407A"/>
    <path d="M0 0 Q6 -16 10 -10 Q10 -4 6 -2 Q2 0 0 0Z" fill="#F06292"/>
    <path d="M0 0 Q-10 -10 -12 -4 Q-10 2 -4 2 Q-2 0 0 0Z" fill="#F48FB1"/>
    <path d="M0 0 Q10 -10 12 -4 Q10 2 4 2 Q2 0 0 0Z" fill="#EC407A"/>
    <path d="M0 0 Q0 -18 4 -14 Q4 -6 2 -2Z" fill="#FCE4EC"/>
    <circle cx="0" cy="0" r="4" fill="#FFEB3B"/>
  </g>
</svg>
