<svg xmlns="http://www.w3.org/2000/svg" viewBox="0 0 100 120">
  <defs>
    <linearGradient id="tG" x1="0" y1="0" x2="1" y2="0">
      <stop offset="0%" stop-color="#3E2723"/>
      <stop offset="40%" stop-color="#5D4037"/>
      <stop offset="60%" stop-color="#5D4037"/>
      <stop offset="100%" stop-color="#3E2723"/>
    </linearGradient>
    <filter id="s"><feGaussianBlur stdDeviation="3"/></filter>
  </defs>
  <ellipse cx="50" cy="114" rx="34" ry="9" fill="#3E2723" opacity="0.15" filter="url(#s)"/>
  <!-- Trunk -->
  <path d="M44 112 Q42 90 44 66 Q46 64 54 64 Q56 64 58 66 Q58 90 58 112Z" fill="url(#tG)"/>
  <!-- Branches — angular, reaching upward -->
  <path d="M43 82 Q22 68 8 56" stroke="#4E342E" stroke-width="5" fill="none" stroke-linecap="round"/>
  <path d="M8 56 Q4 48 6 40" stroke="#5D4037" stroke-width="3.5" fill="none" stroke-linecap="round"/>
  <path d="M8 56 Q14 46 20 42" stroke="#5D4037" stroke-width="3" fill="none" stroke-linecap="round"/>
  <path d="M57 76 Q78 60 92 50" stroke="#4E342E" stroke-width="5" fill="none" stroke-linecap="round"/>
  <path d="M92 50 Q96 42 94 34" stroke="#5D4037" stroke-width="3.5" fill="none" stroke-linecap="round"/>
  <path d="M92 50 Q86 42 82 38" stroke="#5D4037" stroke-width="3" fill="none" stroke-linecap="round"/>
  <path d="M44 72 Q34 62 28 58" stroke="#5D4037" stroke-width="3" fill="none" stroke-linecap="round"/>
  <path d="M56 68 Q66 56 72 52" stroke="#5D4037" stroke-width="3" fill="none" stroke-linecap="round"/>
  <!-- Maple leaf clusters — using star-like pointed shapes -->
  <!-- Each cluster uses a pointed, lobed shape to suggest maple leaves -->
  <path d="M6 40 Q2 30 8 24 Q14 20 20 24 Q18 16 24 12 Q28 16 28 24 Q34 20 38 24 Q34 30 28 34 Q32 38 28 42 Q22 40 18 44 Q14 42 6 40Z" fill="#E53935"/>
  <path d="M8 42 Q6 34 12 28 Q24 22 30 28 Q28 36 20 40Z" fill="#FF7043" opacity="0.35"/>

  <path d="M20 46 Q16 38 20 32 Q26 28 32 30 Q30 22 36 18 Q40 22 38 30 Q44 26 48 30 Q44 36 38 40 Q42 44 38 50 Q32 48 28 52 Q24 50 20 46Z" fill="#FF5722"/>

  <path d="M82 38 Q78 28 84 22 Q90 18 94 22 Q92 14 98 10 Q102 14 100 22 Q106 18 108 24 Q104 30 98 32 Q102 36 98 40 Q92 38 88 42 Q84 40 82 38Z" fill="#E53935"/>
  <path d="M84 40 Q82 32 88 26 Q96 20 100 26 Q98 34 90 38Z" fill="#FF7043" opacity="0.3"/>

  <path d="M72 48 Q68 40 72 34 Q76 30 80 32 Q80 24 86 22 Q88 26 86 32 Q92 28 94 34 Q90 38 84 40 Q88 44 84 48 Q80 46 76 50 Q74 48 72 48Z" fill="#FF5722"/>

  <path d="M28 56 Q24 48 28 42 Q34 38 38 42 Q38 36 42 34 Q44 38 42 44 Q46 40 48 44 Q44 48 40 50 Q44 54 40 58 Q34 56 32 60 Q30 58 28 56Z" fill="#EF5350"/>

  <!-- Central canopy fill -->
  <path d="M40 50 Q36 42 42 36 Q48 32 52 36 Q50 28 56 26 Q60 30 58 38 Q64 34 66 38 Q62 44 58 46 Q62 50 58 54 Q52 52 50 56 Q46 54 40 50Z" fill="#F44336"/>

  <path d="M58 52 Q54 44 60 38 Q66 34 70 38 Q68 30 74 28 Q78 32 76 40 Q80 36 82 40 Q78 46 74 48 Q78 52 74 56 Q68 54 66 58 Q62 56 58 52Z" fill="#EF5350"/>

  <!-- Falling leaves -->
  <path d="M12 82 Q14 78 18 80 Q16 84 12 82Z" fill="#E65100" opacity="0.5"/>
  <path d="M88 78 Q90 74 94 76 Q92 80 88 78Z" fill="#FF7043" opacity="0.45"/>
  <path d="M22 96 Q24 92 28 94 Q26 98 22 96Z" fill="#E53935" opacity="0.4"/>
</svg>
