<svg xmlns="http://www.w3.org/2000/svg" viewBox="0 0 100 120">
  <defs>
    <radialGradient id="cG" cx="38%" cy="30%">
      <stop offset="0%" stop-color="#FFCC80"/>
      <stop offset="60%" stop-color="#FF7043"/>
      <stop offset="100%" stop-color="#E53935"/>
    </radialGradient>
    <linearGradient id="tG" x1="0" y1="0" x2="1" y2="0">
      <stop offset="0%" stop-color="#4E342E"/>
      <stop offset="50%" stop-color="#6D4C41"/>
      <stop offset="100%" stop-color="#4E342E"/>
    </linearGradient>
    <filter id="s"><feGaussianBlur stdDeviation="2.5"/></filter>
  </defs>
  <ellipse cx="50" cy="112" rx="26" ry="7" fill="#3E2723" opacity="0.13" filter="url(#s)"/>
  <path d="M46 110 Q46 92 47 76 Q49 74 51 74 Q53 74 54 76 Q55 92 54 110Z" fill="url(#tG)"/>
  <path d="M46 90 Q34 84 28 88" stroke="#5D4037" stroke-width="3.5" fill="none" stroke-linecap="round"/>
  <path d="M50 28 Q18 28 10 44 Q4 56 24 62 Q42 68 50 66 Q58 68 76 62 Q96 56 90 44 Q82 28 50 28Z" fill="url(#cG)"/>
  <path d="M50 30 Q26 32 16 44 Q12 54 28 60 Q50 64 50 30Z" fill="#FF5722" opacity="0.3"/>
  <circle cx="34" cy="40" r="3" fill="#FFE082" opacity="0.2"/>
</svg>
