<svg xmlns="http://www.w3.org/2000/svg" viewBox="0 0 100 120">
  <defs>
    <filter id="s"><feGaussianBlur stdDeviation="2"/></filter>
  </defs>
  <ellipse cx="50" cy="112" rx="26" ry="7" fill="#3E2723" opacity="0.13" filter="url(#s)"/>
  <!-- Trunk -->
  <path d="M50 110 Q48 98 48 86" stroke="#4E342E" stroke-width="5.5" fill="none" stroke-linecap="round"/>
  <!-- Branches -->
  <path d="M48 86 Q30 72 16 66" stroke="#5D4037" stroke-width="3.5" fill="none" stroke-linecap="round"/>
  <path d="M48 86 Q66 70 82 64" stroke="#5D4037" stroke-width="3.5" fill="none" stroke-linecap="round"/>
  <path d="M48 86 Q48 68 50 54" stroke="#5D4037" stroke-width="3" fill="none" stroke-linecap="round"/>
  <!-- Star-pointed leaf clusters -->
  <path d="M16 66 Q10 58 16 52 Q22 48 26 52 Q24 44 30 42 Q32 46 30 52 Q36 48 38 52 Q34 56 28 58 Q32 62 28 66 Q22 64 20 68 Q18 66 16 66Z" fill="#E53935"/>
  <path d="M82 64 Q88 56 82 50 Q76 46 72 50 Q74 42 68 40 Q66 44 68 50 Q62 46 60 50 Q64 54 70 56 Q66 60 70 64 Q76 62 78 66 Q80 64 82 64Z" fill="#EF5350"/>
  <path d="M50 54 Q44 46 50 40 Q56 36 60 40 Q58 32 64 30 Q66 34 64 40 Q68 36 70 40 Q66 44 62 46 Q66 50 62 54 Q56 52 54 56 Q52 54 50 54Z" fill="#F44336"/>
  <!-- Falling leaf -->
  <path d="M24 92 Q26 88 30 90 Q28 94 24 92Z" fill="#FF7043" opacity="0.45"/>
</svg>
