<svg xmlns="http://www.w3.org/2000/svg" viewBox="0 0 100 120">
  <defs>
    <filter id="s"><feGaussianBlur stdDeviation="2.5"/></filter>
  </defs>
  <ellipse cx="50" cy="114" rx="32" ry="8" fill="#3E2723" opacity="0.15" filter="url(#s)"/>
  <!-- Trunk — tall, dark -->
  <path d="M50 112 Q48 98 48 82" stroke="#4E342E" stroke-width="7" fill="none" stroke-linecap="round"/>
  <!-- Branches — angular, reaching upward like maple -->
  <path d="M48 82 Q26 64 10 52" stroke="#5D4037" stroke-width="4.5" fill="none" stroke-linecap="round"/>
  <path d="M48 82 Q70 62 88 50" stroke="#5D4037" stroke-width="4.5" fill="none" stroke-linecap="round"/>
  <path d="M48 82 Q48 62 50 44" stroke="#5D4037" stroke-width="3.5" fill="none" stroke-linecap="round"/>
  <path d="M10 52 Q6 44 4 36" stroke="#6D4C41" stroke-width="3" fill="none" stroke-linecap="round"/>
  <path d="M10 52 Q16 42 22 36" stroke="#6D4C41" stroke-width="2.5" fill="none" stroke-linecap="round"/>
  <path d="M88 50 Q92 42 96 34" stroke="#6D4C41" stroke-width="3" fill="none" stroke-linecap="round"/>
  <path d="M88 50 Q84 40 80 34" stroke="#6D4C41" stroke-width="2.5" fill="none" stroke-linecap="round"/>
  <path d="M50 44 Q42 34 36 28" stroke="#6D4C41" stroke-width="2.5" fill="none" stroke-linecap="round"/>
  <path d="M50 44 Q58 34 64 28" stroke="#6D4C41" stroke-width="2.5" fill="none" stroke-linecap="round"/>
  <!-- Maple leaf clusters — use star-pointed shapes, NOT circles -->
  <!-- Each "cluster" has jagged edges suggesting maple leaves -->
  <path d="M4 36 Q0 28 6 22 Q12 18 18 22 Q16 14 22 10 Q26 14 26 22 Q32 18 36 22 Q32 28 26 32 Q30 36 26 40 Q18 38 16 42 Q12 40 4 36Z" fill="#E53935"/>
  <path d="M22 36 Q18 28 24 22 Q30 18 36 22 Q34 14 40 10 Q44 14 44 22 Q50 18 52 22 Q48 28 42 32 Q46 36 42 40 Q36 38 34 42 Q28 40 22 36Z" fill="#FF5722"/>
  <path d="M96 34 Q100 26 94 20 Q88 16 82 20 Q84 12 78 8 Q74 12 74 20 Q68 16 66 20 Q70 26 76 30 Q72 34 76 38 Q82 36 84 40 Q88 38 96 34Z" fill="#E53935"/>
  <path d="M80 34 Q84 26 78 20 Q72 16 66 20 Q68 12 62 8 Q58 12 58 20 Q52 16 50 20 Q54 26 60 30 Q56 34 60 38 Q66 36 68 40 Q74 38 80 34Z" fill="#EF5350"/>
  <path d="M36 28 Q32 20 38 14 Q44 10 50 14 Q48 6 54 2 Q58 6 58 14 Q64 10 66 14 Q62 20 56 24 Q60 28 56 32 Q50 30 48 34 Q42 32 36 28Z" fill="#F44336"/>
  <path d="M10 48 Q6 42 12 38 Q18 36 22 40 Q20 34 26 32 Q28 36 26 42 Q30 38 32 42 Q28 46 24 48 Q28 50 26 54 Q20 52 18 56 Q14 54 10 48Z" fill="#FF7043"/>
  <path d="M88 46 Q92 40 86 36 Q80 34 76 38 Q78 32 72 30 Q70 34 72 40 Q68 36 66 40 Q70 44 74 46 Q70 48 72 52 Q78 50 80 54 Q84 52 88 46Z" fill="#FF7043"/>
  <!-- Falling maple leaves -->
  <path d="M14 80 Q16 76 20 78 Q18 82 14 80Z" fill="#E65100" opacity="0.55"/>
  <path d="M86 76 Q88 72 92 74 Q90 78 86 76Z" fill="#FF7043" opacity="0.5"/>
  <path d="M26 96 Q28 92 32 94 Q30 98 26 96Z" fill="#E53935" opacity="0.4"/>
  <path d="M74 92 Q76 88 80 90 Q78 94 74 92Z" fill="#FFAB40" opacity="0.4"/>
</svg>
