<svg xmlns="http://www.w3.org/2000/svg" viewBox="0 0 100 120">
  <defs>
    <linearGradient id="tG" x1="0" y1="0" x2="1" y2="0">
      <stop offset="0%" stop-color="#3E2723"/>
      <stop offset="50%" stop-color="#5D4037"/>
      <stop offset="100%" stop-color="#3E2723"/>
    </linearGradient>
    <filter id="s"><feGaussianBlur stdDeviation="2.5"/></filter>
  </defs>
  <ellipse cx="50" cy="112" rx="26" ry="7" fill="#3E2723" opacity="0.13" filter="url(#s)"/>
  <path d="M46 110 Q46 92 47 76 Q49 74 51 74 Q53 74 54 76 Q55 92 54 110Z" fill="url(#tG)"/>
  <path d="M46 90 Q34 82 26 86" stroke="#4E342E" stroke-width="3.5" fill="none" stroke-linecap="round"/>
  <path d="M54 84 Q66 74 76 78" stroke="#4E342E" stroke-width="3.5" fill="none" stroke-linecap="round"/>
  <!-- Pointed maple leaf clusters for canopy -->
  <path d="M50 28 Q36 22 30 28 Q28 16 34 12 Q38 16 38 24 Q44 20 48 24 Q44 28 38 32 Q44 34 40 38 Q36 36 32 40 Q30 38 26 36 Q26 32 50 28Z" fill="#FF5722"/>
  <path d="M50 28 Q64 22 70 28 Q72 16 66 12 Q62 16 62 24 Q56 20 52 24 Q56 28 62 32 Q56 34 60 38 Q64 36 68 40 Q70 38 74 36 Q74 32 50 28Z" fill="#E53935"/>
  <path d="M36 40 Q24 36 20 42 Q18 34 24 30 Q28 32 28 38 Q32 34 36 38Z" fill="#EF5350"/>
  <path d="M64 40 Q76 36 80 42 Q82 34 76 30 Q72 32 72 38 Q68 34 64 38Z" fill="#FF7043"/>
  <circle cx="38" cy="26" r="2" fill="#FFE082" opacity="0.18"/>
</svg>
