<svg xmlns="http://www.w3.org/2000/svg" viewBox="0 0 100 120">
  <defs>
    <radialGradient id="cG" cx="38%" cy="30%">
      <stop offset="0%" stop-color="#FFCC80"/>
      <stop offset="30%" stop-color="#FF7043"/>
      <stop offset="60%" stop-color="#E53935"/>
      <stop offset="100%" stop-color="#B71C1C"/>
    </radialGradient>
    <linearGradient id="tG" x1="0" y1="0" x2="1" y2="0">
      <stop offset="0%" stop-color="#4E342E"/>
      <stop offset="40%" stop-color="#6D4C41"/>
      <stop offset="60%" stop-color="#6D4C41"/>
      <stop offset="100%" stop-color="#4E342E"/>
    </linearGradient>
    <filter id="s"><feGaussianBlur stdDeviation="3"/></filter>
  </defs>
  <ellipse cx="50" cy="114" rx="34" ry="9" fill="#3E2723" opacity="0.15" filter="url(#s)"/>
  <!-- Trunk -->
  <path d="M42 112 Q42 88 44 64 Q46 62 54 62 Q56 62 58 64 Q60 88 58 112Z" fill="url(#tG)"/>
  <path d="M46 110 Q46 90 48 66 Q50 90 50 110Z" fill="#8D6E63" opacity="0.1"/>
  <!-- Branches -->
  <path d="M43 84 Q22 72 10 80" stroke="#5D4037" stroke-width="5" fill="none" stroke-linecap="round"/>
  <path d="M57 76 Q78 64 90 72" stroke="#5D4037" stroke-width="5" fill="none" stroke-linecap="round"/>
  <path d="M44 70 Q36 62 30 64" stroke="#5D4037" stroke-width="3" fill="none" stroke-linecap="round"/>
  <!-- Canopy — autumn colors -->
  <path d="M50 4 Q10 4 -2 28 Q-8 48 14 58 Q4 66 18 72 Q32 80 46 76 Q38 84 50 84 Q62 84 54 76 Q68 80 82 72 Q96 66 86 58 Q108 48 102 28 Q90 4 50 4Z" fill="url(#cG)"/>
  <!-- Depth layers -->
  <path d="M50 6 Q18 8 6 28 Q0 44 18 54 Q40 64 50 60 Q50 30 50 6Z" fill="#FF5722" opacity="0.4"/>
  <path d="M50 6 Q82 8 94 28 Q100 44 82 54 Q60 64 50 60 Q50 30 50 6Z" fill="#C62828" opacity="0.2"/>
  <!-- Light spots — golden autumn glow -->
  <circle cx="26" cy="28" r="4" fill="#FFE082" opacity="0.25"/>
  <circle cx="68" cy="24" r="3.5" fill="#FFCC80" opacity="0.2"/>
  <circle cx="40" cy="46" r="3" fill="#FFF9C4" opacity="0.18"/>
  <circle cx="72" cy="42" r="2.5" fill="#FFCC80" opacity="0.15"/>
  <!-- Falling leaves -->
  <path d="M12 78 Q14 76 16 78 Q15 80 12 78Z" fill="#E65100" opacity="0.5"/>
  <path d="M88 74 Q90 72 92 74 Q91 76 88 74Z" fill="#FF7043" opacity="0.45"/>
  <path d="M20 90 Q22 88 24 90 Q23 92 20 90Z" fill="#E53935" opacity="0.4"/>
</svg>
