<svg xmlns="http://www.w3.org/2000/svg" viewBox="0 0 100 120">
  <defs>
    <radialGradient id="cG" cx="38%" cy="30%">
      <stop offset="0%" stop-color="#FFCC80"/>
      <stop offset="25%" stop-color="#FF8A65"/>
      <stop offset="60%" stop-color="#E53935"/>
      <stop offset="100%" stop-color="#B71C1C"/>
    </radialGradient>
    <linearGradient id="tG" x1="0" y1="0" x2="1" y2="0">
      <stop offset="0%" stop-color="#3E2723"/>
      <stop offset="40%" stop-color="#5D4037"/>
      <stop offset="60%" stop-color="#5D4037"/>
      <stop offset="100%" stop-color="#3E2723"/>
    </linearGradient>
    <filter id="s"><feGaussianBlur stdDeviation="3"/></filter>
  </defs>
  <ellipse cx="50" cy="114" rx="34" ry="9" fill="#3E2723" opacity="0.15" filter="url(#s)"/>
  <!-- Trunk — darker for maple -->
  <path d="M44 112 Q42 88 44 64 Q46 62 54 62 Q56 62 58 64 Q58 88 58 112Z" fill="url(#tG)"/>
  <!-- Branches — more angular/jagged for maple -->
  <path d="M43 84 Q24 72 8 78" stroke="#4E342E" stroke-width="5" fill="none" stroke-linecap="round"/>
  <path d="M57 76 Q76 62 92 70" stroke="#4E342E" stroke-width="5" fill="none" stroke-linecap="round"/>
  <path d="M44 72 Q34 62 26 64" stroke="#5D4037" stroke-width="3.5" fill="none" stroke-linecap="round"/>
  <path d="M56 68 Q64 58 74 60" stroke="#5D4037" stroke-width="3" fill="none" stroke-linecap="round"/>
  <!-- Canopy — jagged/irregular edges for maple -->
  <path d="M50 2 Q30 -2 14 10 Q2 20 4 36 Q-2 42 6 50 Q0 58 10 64 Q16 72 26 74 Q22 80 36 82 Q44 86 50 84 Q56 86 64 82 Q78 80 74 74 Q84 72 90 64 Q100 58 94 50 Q102 42 96 36 Q98 20 86 10 Q70 -2 50 2Z" fill="url(#cG)"/>
  <!-- Leaf cluster variations — make it look textured -->
  <circle cx="20" cy="30" r="8" fill="#FF7043" opacity="0.3"/>
  <circle cx="38" cy="16" r="7" fill="#FFB74D" opacity="0.25"/>
  <circle cx="62" cy="14" r="7" fill="#FF8A65" opacity="0.25"/>
  <circle cx="80" cy="30" r="8" fill="#FFCC80" opacity="0.2"/>
  <circle cx="50" cy="42" r="7" fill="#FF7043" opacity="0.2"/>
  <circle cx="30" cy="52" r="6" fill="#FFB74D" opacity="0.2"/>
  <circle cx="70" cy="48" r="6" fill="#FFCC80" opacity="0.18"/>
  <!-- Depth -->
  <path d="M50 4 Q22 2 10 16 Q2 28 8 42 Q12 52 24 60 Q50 70 50 4Z" fill="#E65100" opacity="0.25"/>
  <!-- Golden highlights -->
  <circle cx="30" cy="20" r="3" fill="#FFE082" opacity="0.2"/>
  <circle cx="68" cy="18" r="2.5" fill="#FFE082" opacity="0.18"/>
  <!-- Falling maple leaves -->
  <path d="M10 80 Q12 78 14 80 Q13 82 10 80Z" fill="#E65100" opacity="0.5"/>
  <path d="M90 76 Q92 74 94 76 Q93 78 90 76Z" fill="#FF7043" opacity="0.45"/>
  <path d="M18 94 Q20 92 22 94 Q21 96 18 94Z" fill="#E53935" opacity="0.4"/>
  <path d="M82 90 Q84 88 86 90 Q85 92 82 90Z" fill="#FFAB40" opacity="0.4"/>
</svg>
