<svg xmlns="http://www.w3.org/2000/svg" viewBox="0 0 100 120">
  <defs>
    <radialGradient id="lfG" cx="35%" cy="25%">
      <stop offset="0%" stop-color="#C8E6C9"/>
      <stop offset="50%" stop-color="#66BB6A"/>
      <stop offset="100%" stop-color="#1B5E20"/>
    </radialGradient>
    <radialGradient id="flG" cx="50%" cy="40%">
      <stop offset="0%" stop-color="#E1BEE7"/>
      <stop offset="100%" stop-color="#7B1FA2"/>
    </radialGradient>
    <filter id="s"><feGaussianBlur stdDeviation="3"/></filter>
  </defs>
  <ellipse cx="50" cy="114" rx="28" ry="8" fill="#3E2723" opacity="0.15" filter="url(#s)"/>
  <!-- Multi stems — bush-like -->
  <path d="M50 112 Q46 90 42 66" stroke="#2E7D32" stroke-width="4.5" fill="none" stroke-linecap="round"/>
  <path d="M44 96 Q28 86 16 78" stroke="#2E7D32" stroke-width="3.5" fill="none" stroke-linecap="round"/>
  <path d="M48 88 Q62 78 76 72" stroke="#2E7D32" stroke-width="3.5" fill="none" stroke-linecap="round"/>
  <path d="M42 80 Q32 72 22 66" stroke="#388E3C" stroke-width="3" fill="none" stroke-linecap="round"/>
  <!-- Big organic leaves -->
  <path d="M42 66 Q28 52 18 58 Q26 66 42 66Z" fill="url(#lfG)"/>
  <path d="M42 66 Q50 52 62 56 Q56 64 42 66Z" fill="#66BB6A"/>
  <path d="M22 66 Q10 52 4 58 Q10 66 22 66Z" fill="#4CAF50"/>
  <path d="M16 78 Q4 66 -2 72 Q4 80 16 78Z" fill="url(#lfG)"/>
  <path d="M76 72 Q88 58 94 64 Q88 72 76 72Z" fill="#81C784"/>
  <path d="M76 72 Q86 66 92 68" fill="#AED581" opacity="0.2"/>
  <path d="M36 54 Q22 42 14 48 Q22 56 36 54Z" fill="#43A047"/>
  <path d="M54 56 Q66 42 76 48 Q68 56 54 56Z" fill="#66BB6A"/>
  <path d="M28 44 Q16 32 10 38 Q18 46 28 44Z" fill="url(#lfG)"/>
  <path d="M66 48 Q78 34 86 40 Q80 50 66 48Z" fill="#81C784"/>
  <!-- Leaf veins (subtle) -->
  <path d="M42 66 Q34 58 24 62" stroke="#1B5E20" stroke-width="0.6" fill="none" opacity="0.2"/>
  <path d="M16 78 Q8 70 2 74" stroke="#1B5E20" stroke-width="0.6" fill="none" opacity="0.18"/>
  <!-- Tiny flowers -->
  <circle cx="20" cy="38" r="5" fill="url(#flG)"/>
  <circle cx="20" cy="38" r="2.5" fill="#E1BEE7" opacity="0.3"/>
  <circle cx="72" cy="42" r="4.5" fill="url(#flG)"/>
  <circle cx="72" cy="42" r="2" fill="#E1BEE7" opacity="0.25"/>
  <circle cx="42" cy="48" r="3.5" fill="url(#flG)"/>
</svg>
