<svg xmlns="http://www.w3.org/2000/svg" viewBox="0 0 100 120">
  <defs>
    <radialGradient id="lfG" cx="35%" cy="25%">
      <stop offset="0%" stop-color="#C8E6C9"/>
      <stop offset="100%" stop-color="#1B5E20"/>
    </radialGradient>
    <filter id="s"><feGaussianBlur stdDeviation="2.5"/></filter>
  </defs>
  <ellipse cx="50" cy="112" rx="20" ry="6" fill="#3E2723" opacity="0.13" filter="url(#s)"/>
  <path d="M50 108 Q48 92 46 74" stroke="#2E7D32" stroke-width="3.5" fill="none" stroke-linecap="round"/>
  <path d="M48 96 Q34 86 24 90 Q30 96 48 96Z" fill="url(#lfG)"/>
  <path d="M48 84 Q58 74 68 78 Q62 84 48 84Z" fill="#66BB6A"/>
  <path d="M46 74 Q32 64 22 68 Q28 74 46 74Z" fill="#4CAF50"/>
  <path d="M46 66 Q56 56 66 60 Q60 66 46 66Z" fill="url(#lfG)"/>
  <path d="M46 74 Q38 66 28 70" stroke="#1B5E20" stroke-width="0.5" fill="none" opacity="0.2"/>
  <circle cx="36" cy="58" r="3.5" fill="#9C27B0" opacity="0.7"/>
  <circle cx="36" cy="58" r="1.5" fill="#E1BEE7" opacity="0.2"/>
</svg>
