<svg xmlns="http://www.w3.org/2000/svg" viewBox="0 0 100 120">
  <defs>
    <filter id="s"><feGaussianBlur stdDeviation="2.5"/></filter>
  </defs>
  <ellipse cx="50" cy="114" rx="34" ry="9" fill="#3E2723" opacity="0.15" filter="url(#s)"/>
  <!-- Trunk — thick, gnarled -->
  <path d="M42 112 Q40 94 42 74 Q44 72 50 72 Q56 72 58 74 Q60 94 58 112Z" fill="#5D4037"/>
  <path d="M45 112 Q44 96 44 76" stroke="#795548" stroke-width="1.5" fill="none" opacity="0.15"/>
  <!-- Major branches — spreading wide -->
  <path d="M42 82 Q22 68 8 60" stroke="#4E342E" stroke-width="5" fill="none" stroke-linecap="round"/>
  <path d="M58 76 Q78 62 92 56" stroke="#4E342E" stroke-width="5" fill="none" stroke-linecap="round"/>
  <path d="M50 74 Q50 56 50 42" stroke="#5D4037" stroke-width="4" fill="none" stroke-linecap="round"/>
  <!-- Sub branches -->
  <path d="M8 60 Q4 50 2 42" stroke="#6D4C41" stroke-width="3" fill="none" stroke-linecap="round"/>
  <path d="M8 60 Q14 50 20 44" stroke="#6D4C41" stroke-width="2.5" fill="none" stroke-linecap="round"/>
  <path d="M92 56 Q96 46 98 38" stroke="#6D4C41" stroke-width="3" fill="none" stroke-linecap="round"/>
  <path d="M92 56 Q86 46 82 40" stroke="#6D4C41" stroke-width="2.5" fill="none" stroke-linecap="round"/>
  <path d="M50 42 Q40 32 34 26" stroke="#6D4C41" stroke-width="2.5" fill="none" stroke-linecap="round"/>
  <path d="M50 42 Q60 32 66 26" stroke="#6D4C41" stroke-width="2.5" fill="none" stroke-linecap="round"/>
  <!-- Leaf clusters — many small circles, organic canopy -->
  <circle cx="2" cy="38" r="10" fill="#2E7D32"/>
  <circle cx="20" cy="38" r="12" fill="#43A047"/>
  <circle cx="8" cy="54" r="10" fill="#388E3C"/>
  <circle cx="34" cy="22" r="12" fill="#2E7D32"/>
  <circle cx="50" cy="34" r="12" fill="#43A047"/>
  <circle cx="66" cy="22" r="12" fill="#388E3C"/>
  <circle cx="82" cy="34" r="12" fill="#2E7D32"/>
  <circle cx="98" cy="34" r="10" fill="#43A047"/>
  <circle cx="92" cy="50" r="10" fill="#388E3C"/>
  <circle cx="50" cy="18" r="10" fill="#66BB6A"/>
  <circle cx="14" cy="44" r="8" fill="#43A047"/>
  <circle cx="26" cy="30" r="9" fill="#388E3C"/>
  <circle cx="74" cy="28" r="9" fill="#43A047"/>
  <circle cx="40" cy="40" r="9" fill="#2E7D32"/>
  <circle cx="60" cy="38" r="9" fill="#388E3C"/>
  <!-- Acorns — tiny -->
  <ellipse cx="12" cy="58" rx="2" ry="3" fill="#A1887F"/>
  <path d="M10 56 L14 56" stroke="#6D4C41" stroke-width="1.5" fill="none"/>
  <ellipse cx="88" cy="54" rx="2" ry="3" fill="#8D6E63"/>
  <path d="M86 52 L90 52" stroke="#6D4C41" stroke-width="1.5" fill="none"/>
</svg>
