<svg xmlns="http://www.w3.org/2000/svg" viewBox="0 0 100 120">
  <defs>
    <radialGradient id="cG" cx="42%" cy="38%">
      <stop offset="0%" stop-color="#A5D6A7"/>
      <stop offset="40%" stop-color="#66BB6A"/>
      <stop offset="100%" stop-color="#2E7D32"/>
    </radialGradient>
    <linearGradient id="trG" x1="0" y1="0" x2="1" y2="0">
      <stop offset="0%" stop-color="#5D4037"/>
      <stop offset="50%" stop-color="#8D6E63"/>
      <stop offset="100%" stop-color="#5D4037"/>
    </linearGradient>
    <filter id="sh"><feGaussianBlur stdDeviation="2.5"/></filter>
  </defs>
  <ellipse cx="50" cy="114" rx="32" ry="9" fill="#3E2723" opacity="0.18" filter="url(#sh)"/>
  <!-- Trunk -->
  <rect x="43" y="63" width="14" height="48" rx="5" fill="url(#trG)"/>
  <rect x="46" y="65" width="4" height="44" rx="2" fill="#BCAAA4" opacity="0.1"/>
  <!-- Branches -->
  <path d="M43 79 Q26 73 20 82" stroke="#795548" stroke-width="4.5" fill="none" stroke-linecap="round"/>
  <path d="M57 71 Q74 64 80 72" stroke="#795548" stroke-width="4.5" fill="none" stroke-linecap="round"/>
  <!-- Canopy -->
  <circle cx="50" cy="40" r="30" fill="url(#cG)"/>
  <circle cx="26" cy="52" r="19" fill="#388E3C"/>
  <circle cx="74" cy="49" r="19" fill="#388E3C"/>
  <circle cx="36" cy="26" r="17" fill="#4CAF50"/>
  <circle cx="64" cy="24" r="17" fill="#66BB6A"/>
  <circle cx="50" cy="16" r="13" fill="#81C784"/>
  <circle cx="20" cy="46" r="9" fill="#388E3C"/>
  <circle cx="80" cy="43" r="9" fill="#43A047"/>
  <!-- Highlights -->
  <circle cx="34" cy="36" r="4" fill="#C8E6C9" opacity="0.3"/>
  <circle cx="58" cy="30" r="3.5" fill="#E8F5E9" opacity="0.25"/>
  <circle cx="50" cy="48" r="2.5" fill="#1B5E20" opacity="0.2"/>
  <circle cx="42" cy="18" r="2.5" fill="#E8F5E9" opacity="0.2"/>
</svg>
