<svg xmlns="http://www.w3.org/2000/svg" viewBox="0 0 100 120">
  <defs>
    <radialGradient id="cG" cx="38%" cy="30%">
      <stop offset="0%" stop-color="#A5D6A7"/>
      <stop offset="35%" stop-color="#66BB6A"/>
      <stop offset="100%" stop-color="#1B5E20"/>
    </radialGradient>
    <linearGradient id="tG" x1="0" y1="0" x2="1" y2="0">
      <stop offset="0%" stop-color="#4E342E"/>
      <stop offset="40%" stop-color="#795548"/>
      <stop offset="60%" stop-color="#795548"/>
      <stop offset="100%" stop-color="#4E342E"/>
    </linearGradient>
    <filter id="s"><feGaussianBlur stdDeviation="3"/></filter>
  </defs>
  <ellipse cx="50" cy="114" rx="34" ry="9" fill="#3E2723" opacity="0.15" filter="url(#s)"/>
  <!-- Trunk -->
  <path d="M42 112 Q42 90 44 66 Q46 64 54 64 Q56 64 58 66 Q58 90 58 112Z" fill="url(#tG)"/>
  <path d="M46 110 Q46 94 46 68 Q50 94 50 110Z" fill="#A1887F" opacity="0.1"/>
  <!-- Branches -->
  <path d="M43 82 Q22 72 12 82" stroke="#6D4C41" stroke-width="5" fill="none" stroke-linecap="round"/>
  <path d="M57 74 Q78 64 88 72" stroke="#6D4C41" stroke-width="5" fill="none" stroke-linecap="round"/>
  <!-- Canopy — massive organic blob -->
  <path d="M50 6 Q14 6 2 30 Q-4 48 14 56 Q8 64 18 70 Q28 78 42 74 Q36 82 50 82 Q64 82 58 74 Q72 78 82 70 Q92 64 86 56 Q104 48 98 30 Q86 6 50 6Z" fill="url(#cG)"/>
  <!-- Depth -->
  <path d="M50 8 Q22 10 10 32 Q4 46 20 54 Q38 62 50 58 Q50 30 50 8Z" fill="#388E3C" opacity="0.4"/>
  <path d="M50 8 Q78 10 90 32 Q96 46 80 54 Q62 62 50 58 Q50 30 50 8Z" fill="#1B5E20" opacity="0.2"/>
  <!-- Highlights -->
  <circle cx="28" cy="30" r="4" fill="#C8E6C9" opacity="0.25"/>
  <circle cx="66" cy="26" r="3.5" fill="#E8F5E9" opacity="0.2"/>
  <circle cx="38" cy="48" r="3" fill="#E8F5E9" opacity="0.18"/>
  <circle cx="22" cy="56" r="2.5" fill="#C8E6C9" opacity="0.15"/>
</svg>
