<svg xmlns="http://www.w3.org/2000/svg" viewBox="0 0 100 120">
  <defs>
    <radialGradient id="wG" cx="40%" cy="30%">
      <stop offset="0%" stop-color="#C5E1A5"/>
      <stop offset="50%" stop-color="#7CB342"/>
      <stop offset="100%" stop-color="#33691E"/>
    </radialGradient>
    <filter id="s"><feGaussianBlur stdDeviation="3"/></filter>
  </defs>
  <ellipse cx="50" cy="114" rx="28" ry="8" fill="#3E2723" opacity="0.15" filter="url(#s)"/>
  <!-- Dense weed cluster — multiple organic leaves -->
  <path d="M50 112 Q36 92 24 80 Q22 108 50 112Z" fill="url(#wG)"/>
  <path d="M50 112 Q64 92 76 80 Q78 108 50 112Z" fill="#689F38"/>
  <path d="M50 112 Q42 84 30 66 Q28 90 50 112Z" fill="#558B2F" opacity="0.9"/>
  <path d="M50 112 Q58 84 72 66 Q74 90 50 112Z" fill="#8BC34A" opacity="0.85"/>
  <path d="M50 112 Q46 78 34 52 Q30 80 50 112Z" fill="url(#wG)" opacity="0.8"/>
  <path d="M50 112 Q54 78 66 52 Q70 80 50 112Z" fill="#7CB342" opacity="0.8"/>
  <path d="M50 112 Q48 70 40 38 Q36 70 50 112Z" fill="#558B2F" opacity="0.7"/>
  <path d="M50 112 Q52 70 60 38 Q64 70 50 112Z" fill="#689F38" opacity="0.7"/>
  <path d="M50 112 Q50 64 50 28 Q48 68 50 112Z" fill="#66BB6A" opacity="0.65"/>
  <!-- Tiny wild flowers -->
  <circle cx="28" cy="74" r="3.5" fill="#FFEB3B" opacity="0.7"/>
  <circle cx="28" cy="74" r="1.5" fill="#fff" opacity="0.2"/>
  <circle cx="72" cy="70" r="3" fill="#FDD835" opacity="0.65"/>
  <circle cx="72" cy="70" r="1.2" fill="#fff" opacity="0.18"/>
  <circle cx="44" cy="52" r="2.5" fill="#FFEB3B" opacity="0.6"/>
  <circle cx="58" cy="48" r="2.5" fill="#FDD835" opacity="0.55"/>
  <!-- Veins on outer leaves -->
  <path d="M50 112 Q38 92 26 82" stroke="#33691E" stroke-width="0.7" fill="none" opacity="0.15"/>
  <path d="M50 112 Q62 92 74 82" stroke="#33691E" stroke-width="0.7" fill="none" opacity="0.12"/>
</svg>
