<svg xmlns="http://www.w3.org/2000/svg" viewBox="0 0 100 120">
  <defs>
    <radialGradient id="wG" cx="50%" cy="50%">
      <stop offset="0%" stop-color="#AED581"/>
      <stop offset="100%" stop-color="#689F38"/>
    </radialGradient>
    <filter id="sh"><feGaussianBlur stdDeviation="2"/></filter>
  </defs>
  <ellipse cx="50" cy="106" rx="27" ry="9" fill="#3E2723" opacity="0.15" filter="url(#sh)"/>
  <!-- Weed mass -->
  <path d="M35 105 Q32 88 38 93 Q34 78 42 83 Q40 68 50 73 Q55 66 55 78 Q62 73 60 86 Q68 80 65 93 Q70 88 68 105Z" fill="url(#wG)" opacity="0.8"/>
  <!-- Inner detail -->
  <path d="M42 100 Q40 86 45 90 Q43 76 50 80 Q50 88 48 98Z" fill="#7CB342"/>
  <path d="M55 98 Q58 83 52 86 Q55 73 55 80 Q58 88 56 100Z" fill="#558B2F"/>
  <!-- Tiny flowers -->
  <circle cx="44" cy="82" r="2.5" fill="#CDDC39" opacity="0.6"/>
  <circle cx="45" cy="81" r="1" fill="#FFF9C4" opacity="0.3"/>
  <circle cx="56" cy="76" r="2" fill="#CDDC39" opacity="0.5"/>
  <circle cx="57" cy="75" r="0.8" fill="#FFF9C4" opacity="0.2"/>
  <!-- Leaf veins -->
  <path d="M42 88 Q44 84 46 86" stroke="#33691E" stroke-width="0.6" fill="none" opacity="0.3"/>
  <path d="M55 84 Q53 80 54 82" stroke="#33691E" stroke-width="0.6" fill="none" opacity="0.25"/>
</svg>
