<svg xmlns="http://www.w3.org/2000/svg" viewBox="0 0 100 120">
  <defs>
    <linearGradient id="tG" x1="0" y1="0" x2="1" y2="0">
      <stop offset="0%" stop-color="#3E2723"/>
      <stop offset="40%" stop-color="#5D4037"/>
      <stop offset="60%" stop-color="#5D4037"/>
      <stop offset="100%" stop-color="#3E2723"/>
    </linearGradient>
    <radialGradient id="cG" cx="38%" cy="30%">
      <stop offset="0%" stop-color="#A1887F"/>
      <stop offset="50%" stop-color="#6D4C41"/>
      <stop offset="100%" stop-color="#3E2723"/>
    </radialGradient>
    <filter id="s"><feGaussianBlur stdDeviation="3"/></filter>
  </defs>
  <ellipse cx="50" cy="114" rx="30" ry="9" fill="#3E2723" opacity="0.15" filter="url(#s)"/>
  <!-- Thick dead trunk -->
  <path d="M40 112 Q38 86 42 56 Q44 52 50 50 Q56 52 58 56 Q62 86 60 112Z" fill="url(#tG)"/>
  <path d="M44 110 Q42 88 46 58 Q48 54 50 52 Q50 76 48 98 Q48 106 50 112Z" fill="#4E342E" opacity="0.15"/>
  <!-- Bark cracks -->
  <path d="M44 66 Q50 62 56 66" stroke="#3E2723" stroke-width="1" fill="none" opacity="0.2"/>
  <path d="M44 82 Q50 78 56 82" stroke="#3E2723" stroke-width="1" fill="none" opacity="0.18"/>
  <path d="M44 96 Q50 92 56 96" stroke="#3E2723" stroke-width="0.8" fill="none" opacity="0.15"/>
  <!-- Dead branches — angular, bare -->
  <path d="M42 70 Q24 58 14 48" stroke="#5D4037" stroke-width="5" fill="none" stroke-linecap="round"/>
  <path d="M14 48 Q10 40 6 36" stroke="#5D4037" stroke-width="3" fill="none" stroke-linecap="round"/>
  <path d="M14 48 Q18 38 22 34" stroke="#6D4C41" stroke-width="2.5" fill="none" stroke-linecap="round"/>
  <path d="M58 64 Q76 50 88 42" stroke="#5D4037" stroke-width="5" fill="none" stroke-linecap="round"/>
  <path d="M88 42 Q92 34 94 28" stroke="#5D4037" stroke-width="3" fill="none" stroke-linecap="round"/>
  <path d="M88 42 Q84 34 80 30" stroke="#6D4C41" stroke-width="2.5" fill="none" stroke-linecap="round"/>
  <!-- Sparse dead canopy — irregular muted shape -->
  <path d="M50 44 Q30 38 18 28 Q10 18 22 12 Q34 6 50 8 Q66 6 78 12 Q90 18 82 28 Q70 38 50 44Z" fill="url(#cG)"/>
  <path d="M50 44 Q34 40 22 30 Q16 22 26 16 Q50 12 50 44Z" fill="#795548" opacity="0.25"/>
  <!-- Dead leaf patches -->
  <circle cx="32" cy="18" r="3" fill="#8D6E63" opacity="0.18"/>
  <circle cx="66" cy="16" r="2.5" fill="#A1887F" opacity="0.15"/>
  <circle cx="50" cy="24" r="2.5" fill="#8D6E63" opacity="0.12"/>
</svg>
