<svg xmlns="http://www.w3.org/2000/svg" viewBox="0 0 100 120">
  <defs>
    <radialGradient id="rG" cx="35%" cy="25%">
      <stop offset="0%" stop-color="#CFD8DC"/>
      <stop offset="40%" stop-color="#90A4AE"/>
      <stop offset="100%" stop-color="#546E7A"/>
    </radialGradient>
    <filter id="s"><feGaussianBlur stdDeviation="3"/></filter>
  </defs>
  <ellipse cx="50" cy="114" rx="30" ry="9" fill="#3E2723" opacity="0.15" filter="url(#s)"/>
  <!-- Main rock — big irregular shape -->
  <path d="M50 108 Q18 112 10 90 Q4 70 18 56 Q28 44 42 40 Q56 36 68 42 Q82 50 90 66 Q96 82 86 96 Q78 110 50 108Z" fill="url(#rG)"/>
  <!-- Depth -->
  <path d="M50 108 Q24 110 14 88 Q8 72 22 58 Q50 48 50 108Z" fill="#78909C" opacity="0.3"/>
  <path d="M50 108 Q76 110 86 94 Q92 80 78 64 Q50 48 50 108Z" fill="#455A64" opacity="0.15"/>
  <!-- Cracks -->
  <path d="M30 66 Q38 58 44 64" stroke="#455A64" stroke-width="1.5" fill="none" opacity="0.25"/>
  <path d="M52 54 Q58 48 66 52" stroke="#455A64" stroke-width="1.2" fill="none" opacity="0.2"/>
  <path d="M24 84 Q32 78 38 82" stroke="#455A64" stroke-width="1" fill="none" opacity="0.18"/>
  <!-- Moss patches -->
  <ellipse cx="26" cy="96" rx="6" ry="3.5" fill="#66BB6A" opacity="0.3"/>
  <ellipse cx="72" cy="92" rx="5" ry="3" fill="#81C784" opacity="0.25"/>
  <ellipse cx="40" cy="100" rx="4" ry="2.5" fill="#558B2F" opacity="0.2"/>
  <!-- Highlights -->
  <ellipse cx="40" cy="52" rx="6" ry="4" fill="#ECEFF1" opacity="0.12" transform="rotate(-15 40 52)"/>
  <ellipse cx="62" cy="56" rx="4" ry="3" fill="#CFD8DC" opacity="0.1" transform="rotate(10 62 56)"/>
</svg>
