<svg xmlns="http://www.w3.org/2000/svg" viewBox="0 0 100 120">
  <ellipse cx="50" cy="105" rx="25" ry="8" fill="#5D4037" opacity="0.2"/>
  <path d="M35 105 Q32 90 38 95 Q34 80 42 85 Q40 70 50 75 Q55 68 55 80 Q62 75 60 88 Q68 82 65 95 Q70 90 68 105Z" fill="#8BC34A" opacity="0.7"/>
  <path d="M42 100 Q40 88 45 92 Q43 78 50 82 Q50 90 48 98Z" fill="#7CB342"/>
  <path d="M55 98 Q58 85 52 88 Q55 75 55 82 Q58 90 56 100Z" fill="#689F38"/>
  <circle cx="45" cy="85" r="2" fill="#CDDC39" opacity="0.5"/>
  <circle cx="55" cy="78" r="1.5" fill="#CDDC39" opacity="0.4"/>
</svg>
