<svg xmlns="http://www.w3.org/2000/svg" viewBox="0 0 100 120">
  <defs>
    <filter id="s"><feGaussianBlur stdDeviation="2.5"/></filter>
  </defs>
  <ellipse cx="50" cy="114" rx="32" ry="8" fill="#3E2723" opacity="0.15" filter="url(#s)"/>
  <!-- Trunk -->
  <path d="M50 112 Q48 100 48 90" stroke="#795548" stroke-width="6" fill="none" stroke-linecap="round"/>
  <!-- Main branches -->
  <path d="M48 90 Q28 76 14 72" stroke="#6D4C41" stroke-width="4" fill="none" stroke-linecap="round"/>
  <path d="M48 90 Q68 74 84 70" stroke="#6D4C41" stroke-width="4" fill="none" stroke-linecap="round"/>
  <path d="M48 90 Q48 70 50 54" stroke="#6D4C41" stroke-width="3.5" fill="none" stroke-linecap="round"/>
  <!-- Sub branches -->
  <path d="M14 72 Q8 64 6 56" stroke="#795548" stroke-width="2.5" fill="none" stroke-linecap="round"/>
  <path d="M14 72 Q20 62 24 56" stroke="#795548" stroke-width="2" fill="none" stroke-linecap="round"/>
  <path d="M84 70 Q90 62 94 54" stroke="#795548" stroke-width="2.5" fill="none" stroke-linecap="round"/>
  <path d="M84 70 Q80 60 78 54" stroke="#795548" stroke-width="2" fill="none" stroke-linecap="round"/>
  <path d="M50 54 Q40 44 36 38" stroke="#795548" stroke-width="2" fill="none" stroke-linecap="round"/>
  <path d="M50 54 Q60 44 64 38" stroke="#795548" stroke-width="2" fill="none" stroke-linecap="round"/>
  <!-- Many small leaf clusters -->
  <circle cx="6" cy="50" r="10" fill="#2E7D32"/>
  <circle cx="24" cy="50" r="12" fill="#43A047"/>
  <circle cx="14" cy="66" r="9" fill="#388E3C"/>
  <circle cx="36" cy="34" r="12" fill="#2E7D32"/>
  <circle cx="50" cy="46" r="11" fill="#43A047"/>
  <circle cx="64" cy="34" r="12" fill="#388E3C"/>
  <circle cx="78" cy="48" r="11" fill="#2E7D32"/>
  <circle cx="94" cy="48" r="10" fill="#43A047"/>
  <circle cx="86" cy="64" r="9" fill="#388E3C"/>
  <circle cx="50" cy="30" r="10" fill="#2E7D32"/>
  <circle cx="34" cy="54" r="9" fill="#43A047"/>
  <circle cx="66" cy="52" r="9" fill="#2E7D32"/>
  <!-- Oranges — hanging from branch junctions with tiny stem -->
  <circle cx="12" cy="64" r="7.5" fill="#FF9800"/>
  <circle cx="10" cy="60" r="2.5" fill="#FFE082" opacity="0.12"/>
  <path d="M12 56 L12 58" stroke="#558B2F" stroke-width="1.5" fill="none" stroke-linecap="round"/>
  <circle cx="88" cy="62" r="7" fill="#FFA726"/>
  <circle cx="86" cy="58" r="2.5" fill="#FFE082" opacity="0.1"/>
  <path d="M88 54 L88 56" stroke="#558B2F" stroke-width="1.5" fill="none" stroke-linecap="round"/>
  <circle cx="50" cy="68" r="6.5" fill="#FF9800"/>
  <path d="M50 62 L50 64" stroke="#558B2F" stroke-width="1.5" fill="none" stroke-linecap="round"/>
  <circle cx="32" cy="48" r="5.5" fill="#FFA726"/>
  <circle cx="68" cy="46" r="5.5" fill="#FF9800"/>
</svg>
