<svg xmlns="http://www.w3.org/2000/svg" viewBox="0 0 100 120">
  <defs>
    <radialGradient id="cG" cx="38%" cy="30%">
      <stop offset="0%" stop-color="#C8E6C9"/>
      <stop offset="40%" stop-color="#66BB6A"/>
      <stop offset="100%" stop-color="#1B5E20"/>
    </radialGradient>
    <linearGradient id="tG" x1="0" y1="0" x2="1" y2="0">
      <stop offset="0%" stop-color="#4E342E"/>
      <stop offset="40%" stop-color="#795548"/>
      <stop offset="60%" stop-color="#795548"/>
      <stop offset="100%" stop-color="#4E342E"/>
    </linearGradient>
    <radialGradient id="oG" cx="40%" cy="30%">
      <stop offset="0%" stop-color="#FFE082"/>
      <stop offset="40%" stop-color="#FFA726"/>
      <stop offset="100%" stop-color="#E65100"/>
    </radialGradient>
    <filter id="s"><feGaussianBlur stdDeviation="3"/></filter>
  </defs>
  <ellipse cx="50" cy="114" rx="32" ry="9" fill="#3E2723" opacity="0.15" filter="url(#s)"/>
  <!-- Trunk -->
  <path d="M46 112 Q44 90 46 66 Q48 64 52 64 Q54 64 55 66 Q54 90 56 112Z" fill="url(#tG)"/>
  <!-- Branches — more upward and spreading -->
  <path d="M44 82 Q24 72 12 78" stroke="#6D4C41" stroke-width="4.5" fill="none" stroke-linecap="round"/>
  <path d="M56 76 Q74 64 88 72" stroke="#6D4C41" stroke-width="4.5" fill="none" stroke-linecap="round"/>
  <path d="M44 70 Q38 62 32 64" stroke="#6D4C41" stroke-width="3" fill="none" stroke-linecap="round"/>
  <!-- Canopy — rounder, darker green, more bushy than maple -->
  <path d="M50 4 Q14 4 2 26 Q-6 44 10 54 Q4 60 14 68 Q26 76 40 74 Q36 80 50 82 Q64 80 60 74 Q74 76 86 68 Q96 60 90 54 Q106 44 98 26 Q86 4 50 4Z" fill="url(#cG)"/>
  <!-- Leaf clusters -->
  <circle cx="22" cy="28" r="9" fill="#4CAF50" opacity="0.3"/>
  <circle cx="42" cy="14" r="8" fill="#66BB6A" opacity="0.25"/>
  <circle cx="60" cy="16" r="8" fill="#4CAF50" opacity="0.25"/>
  <circle cx="78" cy="30" r="9" fill="#66BB6A" opacity="0.2"/>
  <circle cx="50" cy="38" r="7" fill="#81C784" opacity="0.2"/>
  <!-- Depth -->
  <path d="M50 6 Q22 8 8 26 Q2 40 14 52 Q36 62 50 58 Q50 30 50 6Z" fill="#388E3C" opacity="0.3"/>
  <!-- Oranges — round with small star tops -->
  <circle cx="20" cy="62" r="8" fill="url(#oG)"/>
  <circle cx="18" cy="60" r="3" fill="#FFE082" opacity="0.12"/>
  <path d="M18 54 L20 52 L22 54" stroke="#7CB342" stroke-width="1.5" fill="none" stroke-linecap="round"/>
  <circle cx="80" cy="58" r="7.5" fill="url(#oG)"/>
  <circle cx="78" cy="56" r="2.5" fill="#FFE082" opacity="0.1"/>
  <path d="M78 50 L80 48 L82 50" stroke="#7CB342" stroke-width="1.5" fill="none" stroke-linecap="round"/>
  <circle cx="50" cy="72" r="7" fill="url(#oG)"/>
  <circle cx="48" cy="70" r="2.5" fill="#FFE082" opacity="0.1"/>
  <circle cx="34" cy="50" r="6" fill="url(#oG)"/>
  <circle cx="66" cy="44" r="6" fill="url(#oG)"/>
  <!-- Highlight on canopy -->
  <circle cx="32" cy="22" r="3" fill="#E8F5E9" opacity="0.18"/>
  <circle cx="64" cy="20" r="2.5" fill="#E8F5E9" opacity="0.15"/>
</svg>
