<svg xmlns="http://www.w3.org/2000/svg" viewBox="0 0 100 120">
  <defs>
    <radialGradient id="cG" cx="38%" cy="30%">
      <stop offset="0%" stop-color="#C8E6C9"/>
      <stop offset="40%" stop-color="#66BB6A"/>
      <stop offset="100%" stop-color="#1B5E20"/>
    </radialGradient>
    <linearGradient id="tG" x1="0" y1="0" x2="1" y2="0">
      <stop offset="0%" stop-color="#4E342E"/>
      <stop offset="40%" stop-color="#795548"/>
      <stop offset="60%" stop-color="#795548"/>
      <stop offset="100%" stop-color="#4E342E"/>
    </linearGradient>
    <radialGradient id="oG" cx="40%" cy="30%">
      <stop offset="0%" stop-color="#FFE082"/>
      <stop offset="40%" stop-color="#FFA726"/>
      <stop offset="100%" stop-color="#E65100"/>
    </radialGradient>
    <filter id="s"><feGaussianBlur stdDeviation="3"/></filter>
  </defs>
  <ellipse cx="50" cy="114" rx="32" ry="9" fill="#3E2723" opacity="0.15" filter="url(#s)"/>
  <!-- Trunk -->
  <path d="M46 112 Q44 90 46 66 Q48 64 52 64 Q54 64 55 66 Q54 90 56 112Z" fill="url(#tG)"/>
  <!-- Branches — natural forking -->
  <path d="M44 80 Q28 70 16 74" stroke="#6D4C41" stroke-width="4" fill="none" stroke-linecap="round"/>
  <path d="M56 74 Q72 62 84 68" stroke="#6D4C41" stroke-width="4" fill="none" stroke-linecap="round"/>
  <path d="M44 70 Q38 62 32 62" stroke="#6D4C41" stroke-width="3" fill="none" stroke-linecap="round"/>
  <!-- Canopy — organic leaf clusters, not one blob -->
  <circle cx="16" cy="58" r="16" fill="url(#cG)"/>
  <circle cx="38" cy="42" r="18" fill="#43A047"/>
  <circle cx="62" cy="40" r="18" fill="url(#cG)"/>
  <circle cx="84" cy="54" r="16" fill="#4CAF50"/>
  <circle cx="50" cy="54" r="16" fill="#388E3C"/>
  <circle cx="28" cy="50" r="14" fill="#66BB6A"/>
  <circle cx="72" cy="48" r="14" fill="#43A047"/>
  <!-- Depth -->
  <path d="M14 58 Q6 48 14 38 Q30 32 38 42 Q30 50 14 58Z" fill="#2E7D32" opacity="0.25"/>
  <!-- Oranges with small stem nubs — slightly varied sizes -->
  <circle cx="18" cy="66" r="7" fill="url(#oG)"/>
  <path d="M16 60 L18 58 L20 60" stroke="#558B2F" stroke-width="1.5" fill="none" stroke-linecap="round"/>
  <circle cx="80" cy="62" r="6.5" fill="url(#oG)"/>
  <path d="M78 56 L80 54 L82 56" stroke="#558B2F" stroke-width="1.5" fill="none" stroke-linecap="round"/>
  <circle cx="48" cy="66" r="6" fill="url(#oG)"/>
  <path d="M46 60 L48 58 L50 60" stroke="#558B2F" stroke-width="1.5" fill="none" stroke-linecap="round"/>
  <circle cx="34" cy="54" r="5.5" fill="url(#oG)"/>
  <circle cx="66" cy="50" r="5.5" fill="url(#oG)"/>
</svg>
