<svg xmlns="http://www.w3.org/2000/svg" viewBox="0 0 100 120">
  <ellipse cx="50" cy="112" rx="26" ry="8" fill="#5D4037" opacity="0.25"/>
  <path d="M50 110 Q48 70 50 25" stroke="#A1887F" stroke-width="6" fill="none" stroke-linecap="round"/>
  <path d="M50 28 Q55 35 60 30" stroke="#795548" stroke-width="2" fill="none"/>
  <g transform="translate(50,22)">
    <path d="M0 0 Q-14 -20 -30 -8" stroke="none" fill="#4CAF50"/>
    <path d="M0 0 Q14 -20 30 -8" stroke="none" fill="#66BB6A"/>
    <path d="M0 0 Q-20 -14 -26 4" stroke="none" fill="#388E3C"/>
    <path d="M0 0 Q20 -14 26 4" stroke="none" fill="#43A047"/>
    <path d="M0 0 Q-8 -24 -14 -18" stroke="none" fill="#81C784"/>
    <path d="M0 0 Q8 -24 14 -18" stroke="none" fill="#81C784"/>
    <path d="M0 0 Q0 -26 4 -22" stroke="none" fill="#A5D6A7"/>
  </g>
  <ellipse cx="30" cy="95" rx="6" ry="3" fill="#8BC34A" opacity="0.4"/>
  <ellipse cx="70" cy="100" rx="5" ry="2.5" fill="#8BC34A" opacity="0.3"/>
</svg>
