<svg xmlns="http://www.w3.org/2000/svg" viewBox="0 0 100 120">
  <defs>
    <linearGradient id="tG" x1="0" y1="0" x2="1" y2="0">
      <stop offset="0%" stop-color="#5D4037"/>
      <stop offset="30%" stop-color="#8D6E63"/>
      <stop offset="50%" stop-color="#BCAAA4"/>
      <stop offset="70%" stop-color="#8D6E63"/>
      <stop offset="100%" stop-color="#5D4037"/>
    </linearGradient>
    <radialGradient id="fG" cx="40%" cy="30%">
      <stop offset="0%" stop-color="#A5D6A7"/>
      <stop offset="100%" stop-color="#1B5E20"/>
    </radialGradient>
    <filter id="s"><feGaussianBlur stdDeviation="3"/></filter>
  </defs>
  <ellipse cx="50" cy="114" rx="30" ry="9" fill="#3E2723" opacity="0.15" filter="url(#s)"/>
  <!-- Trunk — curved, thick -->
  <path d="M50 112 Q46 80 44 40 Q44 28 50 18 Q56 28 56 40 Q54 80 50 112Z" fill="url(#tG)"/>
  <path d="M48 112 Q46 82 45 44 Q46 32 50 22 Q50 40 50 82 Q50 98 50 112Z" fill="#A1887F" opacity="0.12"/>
  <!-- Bark rings -->
  <path d="M45 48 Q50 46 55 48" stroke="#4E342E" stroke-width="0.8" fill="none" opacity="0.25"/>
  <path d="M45 68 Q50 66 55 68" stroke="#4E342E" stroke-width="0.8" fill="none" opacity="0.2"/>
  <path d="M46 88 Q50 86 54 88" stroke="#4E342E" stroke-width="0.8" fill="none" opacity="0.18"/>
  <!-- Fronds — big dramatic leaves -->
  <g transform="translate(50,16)">
    <path d="M0 0 Q-20 -24 -42 -12 Q-30 -4 0 0Z" fill="url(#fG)"/>
    <path d="M0 0 Q20 -24 42 -12 Q30 -4 0 0Z" fill="#4CAF50"/>
    <path d="M0 0 Q-28 -18 -38 6 Q-24 4 0 0Z" fill="#388E3C"/>
    <path d="M0 0 Q28 -18 38 6 Q24 4 0 0Z" fill="#43A047"/>
    <path d="M0 0 Q-14 -28 -24 -22 Q-16 -8 0 0Z" fill="#66BB6A"/>
    <path d="M0 0 Q14 -28 24 -22 Q16 -8 0 0Z" fill="#81C784"/>
    <path d="M0 0 Q0 -30 6 -26 Q4 -10 0 0Z" fill="#A5D6A7"/>
    <!-- Frond veins -->
    <path d="M0 0 Q-12 -14 -28 -8" stroke="#1B5E20" stroke-width="0.7" fill="none" opacity="0.25"/>
    <path d="M0 0 Q12 -14 28 -8" stroke="#1B5E20" stroke-width="0.7" fill="none" opacity="0.25"/>
  </g>
  <!-- Coconuts -->
  <circle cx="48" cy="18" r="4.5" fill="#795548"/>
  <circle cx="46" cy="16" r="1.5" fill="#BCAAA4" opacity="0.25"/>
  <circle cx="55" cy="20" r="4" fill="#6D4C41"/>
  <circle cx="54" cy="18" r="1.2" fill="#BCAAA4" opacity="0.2"/>
  <!-- Ground grass -->
  <ellipse cx="28" cy="98" rx="8" ry="3.5" fill="#8BC34A" opacity="0.3"/>
  <ellipse cx="74" cy="102" rx="7" ry="3" fill="#8BC34A" opacity="0.25"/>
</svg>
