<svg xmlns="http://www.w3.org/2000/svg" viewBox="0 0 100 120">
  <defs>
    <linearGradient id="tG" x1="0" y1="0" x2="1" y2="0">
      <stop offset="0%" stop-color="#5D4037"/>
      <stop offset="50%" stop-color="#BCAAA4"/>
      <stop offset="100%" stop-color="#5D4037"/>
    </linearGradient>
    <filter id="s"><feGaussianBlur stdDeviation="2.5"/></filter>
  </defs>
  <ellipse cx="50" cy="112" rx="24" ry="7" fill="#3E2723" opacity="0.13" filter="url(#s)"/>
  <path d="M50 110 Q48 86 48 52 Q48 46 50 40 Q52 46 52 52 Q52 86 50 110Z" fill="url(#tG)"/>
  <path d="M47 66 Q50 64 53 66" stroke="#4E342E" stroke-width="0.6" fill="none" opacity="0.2"/>
  <path d="M47 86 Q50 84 53 86" stroke="#4E342E" stroke-width="0.6" fill="none" opacity="0.18"/>
  <g transform="translate(50,36)">
    <path d="M0 0 Q-12 -16 -24 -8 Q-16 -2 0 0Z" fill="#4CAF50"/>
    <path d="M0 0 Q12 -16 24 -8 Q16 -2 0 0Z" fill="#66BB6A"/>
    <path d="M0 0 Q-18 -10 -22 4 Q-14 3 0 0Z" fill="#388E3C"/>
    <path d="M0 0 Q18 -10 22 4 Q14 3 0 0Z" fill="#43A047"/>
    <path d="M0 0 Q0 -18 4 -16 Q3 -6 0 0Z" fill="#81C784"/>
  </g>
</svg>
