<svg xmlns="http://www.w3.org/2000/svg" viewBox="0 0 100 120">
  <defs>
    <radialGradient id="cG" cx="38%" cy="30%">
      <stop offset="0%" stop-color="#F8BBD0"/>
      <stop offset="35%" stop-color="#F48FB1"/>
      <stop offset="100%" stop-color="#C2185B"/>
    </radialGradient>
    <linearGradient id="tG" x1="0" y1="0" x2="1" y2="0">
      <stop offset="0%" stop-color="#4E342E"/>
      <stop offset="40%" stop-color="#795548"/>
      <stop offset="60%" stop-color="#795548"/>
      <stop offset="100%" stop-color="#4E342E"/>
    </linearGradient>
    <radialGradient id="fG" cx="40%" cy="30%">
      <stop offset="0%" stop-color="#FFAB91"/>
      <stop offset="50%" stop-color="#FF7043"/>
      <stop offset="100%" stop-color="#E64A19"/>
    </radialGradient>
    <filter id="s"><feGaussianBlur stdDeviation="3"/></filter>
  </defs>
  <ellipse cx="50" cy="114" rx="32" ry="9" fill="#3E2723" opacity="0.15" filter="url(#s)"/>
  <!-- Trunk — slightly curved -->
  <path d="M46 112 Q44 88 46 66 Q48 64 52 64 Q54 64 55 66 Q54 88 56 112Z" fill="url(#tG)"/>
  <!-- Branches — asymmetric spreading -->
  <path d="M44 84 Q26 76 12 82" stroke="#6D4C41" stroke-width="4.5" fill="none" stroke-linecap="round"/>
  <path d="M56 78 Q74 68 88 74" stroke="#6D4C41" stroke-width="4.5" fill="none" stroke-linecap="round"/>
  <path d="M44 72 Q36 64 28 66" stroke="#6D4C41" stroke-width="3" fill="none" stroke-linecap="round"/>
  <!-- Blossom canopy — wider, more spreading, less mushroom-like -->
  <path d="M50 6 Q20 4 4 22 Q-6 40 8 52 Q2 58 10 66 Q18 74 32 72 Q28 80 42 80 Q44 82 50 82 Q56 82 58 80 Q72 80 68 72 Q82 74 90 66 Q98 58 92 52 Q106 40 96 22 Q80 4 50 6Z" fill="url(#cG)"/>
  <!-- Blossom clusters — make it look like individual flower clusters -->
  <circle cx="22" cy="32" r="10" fill="#F48FB1" opacity="0.3"/>
  <circle cx="40" cy="18" r="9" fill="#F8BBD0" opacity="0.25"/>
  <circle cx="60" cy="20" r="9" fill="#F48FB1" opacity="0.25"/>
  <circle cx="78" cy="34" r="10" fill="#F8BBD0" opacity="0.3"/>
  <circle cx="50" cy="40" r="8" fill="#F8BBD0" opacity="0.2"/>
  <!-- Light petal spots -->
  <circle cx="28" cy="26" r="3" fill="#fff" opacity="0.2"/>
  <circle cx="66" cy="22" r="2.5" fill="#fff" opacity="0.18"/>
  <circle cx="44" cy="12" r="2" fill="#fff" opacity="0.22"/>
  <circle cx="18" cy="48" r="2.5" fill="#FCE4EC" opacity="0.2"/>
  <circle cx="82" cy="44" r="2" fill="#FCE4EC" opacity="0.18"/>
  <!-- Peaches hanging below canopy -->
  <circle cx="18" cy="72" r="6.5" fill="url(#fG)"/>
  <circle cx="16" cy="70" r="2" fill="#FFCCBC" opacity="0.15"/>
  <circle cx="82" cy="68" r="6" fill="url(#fG)"/>
  <circle cx="80" cy="66" r="2" fill="#FFCCBC" opacity="0.15"/>
  <circle cx="50" cy="76" r="5.5" fill="url(#fG)"/>
  <circle cx="48" cy="74" r="1.8" fill="#FFCCBC" opacity="0.12"/>
</svg>
