<svg xmlns="http://www.w3.org/2000/svg" viewBox="0 0 100 120">
  <defs>
    <filter id="s"><feGaussianBlur stdDeviation="2.5"/></filter>
  </defs>
  <ellipse cx="50" cy="114" rx="32" ry="8" fill="#3E2723" opacity="0.15" filter="url(#s)"/>
  <!-- Trunk — short, splitting -->
  <path d="M50 112 Q48 100 48 92" stroke="#795548" stroke-width="6" fill="none" stroke-linecap="round"/>
  <!-- Main branches — spreading wide -->
  <path d="M48 92 Q30 78 16 74" stroke="#6D4C41" stroke-width="4" fill="none" stroke-linecap="round"/>
  <path d="M48 92 Q66 76 82 72" stroke="#6D4C41" stroke-width="4" fill="none" stroke-linecap="round"/>
  <path d="M48 92 Q48 72 50 56" stroke="#6D4C41" stroke-width="3.5" fill="none" stroke-linecap="round"/>
  <!-- Sub branches -->
  <path d="M16 74 Q10 66 8 58" stroke="#795548" stroke-width="2.5" fill="none" stroke-linecap="round"/>
  <path d="M16 74 Q20 64 24 58" stroke="#795548" stroke-width="2" fill="none" stroke-linecap="round"/>
  <path d="M82 72 Q88 64 92 56" stroke="#795548" stroke-width="2.5" fill="none" stroke-linecap="round"/>
  <path d="M82 72 Q78 62 76 56" stroke="#795548" stroke-width="2" fill="none" stroke-linecap="round"/>
  <path d="M50 56 Q42 46 38 40" stroke="#795548" stroke-width="2" fill="none" stroke-linecap="round"/>
  <path d="M50 56 Q58 46 62 40" stroke="#795548" stroke-width="2" fill="none" stroke-linecap="round"/>
  <!-- Leaf clusters — many small groups, NOT one blob -->
  <circle cx="8" cy="54" r="10" fill="#43A047"/>
  <circle cx="24" cy="52" r="11" fill="#388E3C"/>
  <circle cx="38" cy="36" r="12" fill="#43A047"/>
  <circle cx="16" cy="68" r="9" fill="#2E7D32"/>
  <circle cx="50" cy="48" r="11" fill="#388E3C"/>
  <circle cx="62" cy="36" r="12" fill="#2E7D32"/>
  <circle cx="76" cy="50" r="11" fill="#43A047"/>
  <circle cx="92" cy="52" r="10" fill="#388E3C"/>
  <circle cx="84" cy="66" r="9" fill="#2E7D32"/>
  <circle cx="50" cy="32" r="10" fill="#43A047"/>
  <circle cx="34" cy="56" r="9" fill="#2E7D32"/>
  <circle cx="66" cy="54" r="9" fill="#388E3C"/>
  <!-- Peaches growing at branch tips — NOT pasted on canopy -->
  <path d="M10 66 Q6 62 8 56 Q12 54 16 58 Q18 62 14 66 Q12 68 10 66Z" fill="#FFAB91"/>
  <path d="M12 66 Q12 62 12 58" stroke="#BF360C" stroke-width="0.5" fill="none" opacity="0.3"/>
  <path d="M90 64 Q86 60 88 54 Q92 52 96 56 Q96 60 94 64 Q92 66 90 64Z" fill="#FF8A65"/>
  <path d="M92 64 Q92 60 92 56" stroke="#BF360C" stroke-width="0.5" fill="none" opacity="0.3"/>
  <path d="M50 72 Q46 68 48 62 Q52 60 56 64 Q56 68 54 72 Q52 74 50 72Z" fill="#FFAB91"/>
  <path d="M52 72 Q52 68 52 64" stroke="#BF360C" stroke-width="0.5" fill="none" opacity="0.3"/>
  <!-- Pink blossom spots -->
  <circle cx="20" cy="48" r="3" fill="#F48FB1" opacity="0.45"/>
  <circle cx="44" cy="32" r="2.5" fill="#F8BBD0" opacity="0.4"/>
  <circle cx="70" cy="46" r="3" fill="#F48FB1" opacity="0.4"/>
  <circle cx="58" cy="32" r="2.5" fill="#F8BBD0" opacity="0.35"/>
</svg>
