<svg xmlns="http://www.w3.org/2000/svg" viewBox="0 0 100 120">
  <defs>
    <radialGradient id="cG" cx="38%" cy="30%">
      <stop offset="0%" stop-color="#F8BBD0"/>
      <stop offset="100%" stop-color="#AD1457"/>
    </radialGradient>
    <linearGradient id="tG" x1="0" y1="0" x2="1" y2="0">
      <stop offset="0%" stop-color="#4E342E"/>
      <stop offset="50%" stop-color="#795548"/>
      <stop offset="100%" stop-color="#4E342E"/>
    </linearGradient>
    <filter id="s"><feGaussianBlur stdDeviation="2.5"/></filter>
  </defs>
  <ellipse cx="50" cy="112" rx="26" ry="7" fill="#3E2723" opacity="0.13" filter="url(#s)"/>
  <path d="M46 110 Q46 92 47 76 Q49 74 51 74 Q53 74 54 76 Q55 92 54 110Z" fill="url(#tG)"/>
  <path d="M46 92 Q34 86 28 90" stroke="#6D4C41" stroke-width="3" fill="none" stroke-linecap="round"/>
  <path d="M50 30 Q20 30 14 46 Q8 58 26 64 Q42 70 50 68 Q58 70 74 64 Q92 58 86 46 Q80 30 50 30Z" fill="url(#cG)"/>
  <path d="M50 32 Q28 34 20 46 Q16 56 30 62 Q50 66 50 32Z" fill="#EC407A" opacity="0.3"/>
  <circle cx="36" cy="42" r="2.5" fill="#fff" opacity="0.2"/>
</svg>
