<svg xmlns="http://www.w3.org/2000/svg" viewBox="0 0 100 120">
  <defs>
    <linearGradient id="sG" x1="0" y1="0" x2="1" y2="0">
      <stop offset="0%" stop-color="#33691E"/>
      <stop offset="50%" stop-color="#558B2F"/>
      <stop offset="100%" stop-color="#33691E"/>
    </linearGradient>
    <filter id="s"><feGaussianBlur stdDeviation="2.5"/></filter>
  </defs>
  <ellipse cx="50" cy="112" rx="20" ry="6" fill="#3E2723" opacity="0.13" filter="url(#s)"/>
  <path d="M50 108 Q49 92 48 72" stroke="url(#sG)" stroke-width="4.5" fill="none" stroke-linecap="round"/>
  <path d="M48 92 Q36 84 26 88 Q34 94 48 92Z" fill="#558B2F"/>
  <path d="M48 82 Q58 74 66 78 Q60 82 48 82Z" fill="#689F38"/>
  <g transform="translate(48 54)">
    <ellipse cx="0" cy="-12" rx="7.5" ry="12" fill="#EC407A" transform="rotate(0 0 0)"/>
    <ellipse cx="0" cy="-12" rx="7.5" ry="12" fill="#F06292" transform="rotate(60 0 0)"/>
    <ellipse cx="0" cy="-12" rx="7.5" ry="12" fill="#EC407A" transform="rotate(120 0 0)"/>
    <ellipse cx="0" cy="-12" rx="7.5" ry="12" fill="#F48FB1" transform="rotate(180 0 0)"/>
    <ellipse cx="0" cy="-12" rx="7.5" ry="12" fill="#EC407A" transform="rotate(240 0 0)"/>
    <ellipse cx="0" cy="-12" rx="7.5" ry="12" fill="#F06292" transform="rotate(300 0 0)"/>
    <ellipse cx="0" cy="-7" rx="4.5" ry="7" fill="#FCE4EC" transform="rotate(30 0 0)"/>
    <ellipse cx="0" cy="-7" rx="4.5" ry="7" fill="#F8BBD0" transform="rotate(150 0 0)"/>
    <ellipse cx="0" cy="-7" rx="4.5" ry="7" fill="#FCE4EC" transform="rotate(270 0 0)"/>
    <circle cx="0" cy="0" r="5" fill="#FFEB3B"/>
  </g>
</svg>
