<svg xmlns="http://www.w3.org/2000/svg" viewBox="0 0 100 120">
  <defs>
    <linearGradient id="sG" x1="0" y1="0" x2="1" y2="0">
      <stop offset="0%" stop-color="#33691E"/>
      <stop offset="50%" stop-color="#558B2F"/>
      <stop offset="100%" stop-color="#33691E"/>
    </linearGradient>
    <filter id="s"><feGaussianBlur stdDeviation="2.5"/></filter>
  </defs>
  <ellipse cx="50" cy="112" rx="20" ry="6" fill="#3E2723" opacity="0.13" filter="url(#s)"/>
  <path d="M50 108 Q48 88 46 66" stroke="url(#sG)" stroke-width="4" fill="none" stroke-linecap="round"/>
  <path d="M46 90 Q34 82 26 86 Q32 90 46 90Z" fill="#558B2F"/>
  <path d="M46 78 Q56 70 64 74 Q58 78 46 78Z" fill="#689F38"/>
  <g transform="translate(46 48)">
    <path d="M0 -4 Q-6 -18 -12 -14 Q-16 -8 -10 -4 Q-4 0 0 -4Z" fill="#EC407A"/>
    <path d="M0 -4 Q6 -18 12 -14 Q16 -8 10 -4 Q4 0 0 -4Z" fill="#F06292"/>
    <path d="M0 -4 Q0 -20 4 -18 Q6 -10 2 -4Z" fill="#F48FB1"/>
    <path d="M0 -4 Q-10 -14 -14 -8 Q-12 -2 -6 0 Q-2 -2 0 -4Z" fill="#EC407A"/>
    <path d="M0 -4 Q10 -14 14 -8 Q12 -2 6 0 Q2 -2 0 -4Z" fill="#F06292"/>
    <circle cx="0" cy="0" r="4" fill="#FFEB3B"/>
  </g>
</svg>
