<svg xmlns="http://www.w3.org/2000/svg" viewBox="0 0 100 120">
  <defs>
    <linearGradient id="t1" x1="0" y1="0" x2="0" y2="1">
      <stop offset="0%" stop-color="#2E7D32"/>
      <stop offset="100%" stop-color="#1B5E20"/>
    </linearGradient>
    <linearGradient id="t2" x1="0" y1="0" x2="0" y2="1">
      <stop offset="0%" stop-color="#388E3C"/>
      <stop offset="100%" stop-color="#2E7D32"/>
    </linearGradient>
    <linearGradient id="t3" x1="0" y1="0" x2="0" y2="1">
      <stop offset="0%" stop-color="#43A047"/>
      <stop offset="100%" stop-color="#388E3C"/>
    </linearGradient>
    <linearGradient id="trG" x1="0" y1="0" x2="1" y2="0">
      <stop offset="0%" stop-color="#5D4037"/>
      <stop offset="50%" stop-color="#8D6E63"/>
      <stop offset="100%" stop-color="#5D4037"/>
    </linearGradient>
    <filter id="sh"><feGaussianBlur stdDeviation="2.5"/></filter>
  </defs>
  <ellipse cx="50" cy="114" rx="28" ry="8" fill="#3E2723" opacity="0.18" filter="url(#sh)"/>
  <!-- Trunk -->
  <rect x="45" y="84" width="10" height="28" rx="3" fill="url(#trG)"/>
  <rect x="47" y="86" width="3" height="24" rx="1.5" fill="#BCAAA4" opacity="0.12"/>
  <!-- Tiers -->
  <polygon points="50,6 18,52 82,52" fill="url(#t1)"/>
  <polygon points="50,24 22,68 78,68" fill="url(#t2)"/>
  <polygon points="50,40 26,86 74,86" fill="url(#t3)"/>
  <!-- Snow / depth highlights -->
  <polygon points="50,6 44,18 56,18" fill="#1B5E20" opacity="0.35"/>
  <path d="M30 45 Q40 42 50 46" stroke="#C8E6C9" stroke-width="0.8" fill="none" opacity="0.3"/>
  <path d="M35 62 Q48 58 62 63" stroke="#C8E6C9" stroke-width="0.8" fill="none" opacity="0.25"/>
  <path d="M38 78 Q50 74 60 79" stroke="#C8E6C9" stroke-width="0.8" fill="none" opacity="0.2"/>
  <!-- Light spots -->
  <circle cx="38" cy="48" r="2.5" fill="#C8E6C9" opacity="0.3"/>
  <circle cx="56" cy="62" r="2.5" fill="#C8E6C9" opacity="0.3"/>
  <circle cx="44" cy="76" r="2" fill="#C8E6C9" opacity="0.25"/>
</svg>
