<svg xmlns="http://www.w3.org/2000/svg" viewBox="0 0 100 120">
  <defs>
    <linearGradient id="t1" x1="0" y1="0" x2="0" y2="1">
      <stop offset="0%" stop-color="#2E7D32"/>
      <stop offset="100%" stop-color="#1B5E20"/>
    </linearGradient>
    <linearGradient id="t2" x1="0" y1="0" x2="0" y2="1">
      <stop offset="0%" stop-color="#388E3C"/>
      <stop offset="100%" stop-color="#2E7D32"/>
    </linearGradient>
    <linearGradient id="t3" x1="0" y1="0" x2="0" y2="1">
      <stop offset="0%" stop-color="#43A047"/>
      <stop offset="100%" stop-color="#388E3C"/>
    </linearGradient>
    <linearGradient id="tG" x1="0" y1="0" x2="1" y2="0">
      <stop offset="0%" stop-color="#4E342E"/>
      <stop offset="40%" stop-color="#795548"/>
      <stop offset="60%" stop-color="#795548"/>
      <stop offset="100%" stop-color="#4E342E"/>
    </linearGradient>
    <filter id="s"><feGaussianBlur stdDeviation="3"/></filter>
  </defs>
  <ellipse cx="50" cy="114" rx="30" ry="9" fill="#3E2723" opacity="0.15" filter="url(#s)"/>
  <!-- Trunk -->
  <path d="M44 112 Q44 98 46 86 Q48 84 52 84 Q54 84 55 86 Q56 98 56 112Z" fill="url(#tG)"/>
  <path d="M47 110 Q47 100 48 88 Q50 100 50 110Z" fill="#A1887F" opacity="0.1"/>
  <!-- Tiers — wider and more solid -->
  <path d="M50 4 L12 48 L88 48 Z" fill="url(#t1)"/>
  <path d="M50 22 L10 66 L90 66 Z" fill="url(#t2)"/>
  <path d="M50 40 L8 86 L92 86 Z" fill="url(#t3)"/>
  <!-- Snow/light streaks -->
  <path d="M26 42 Q38 38 50 42 Q62 38 74 42" stroke="#E8F5E9" stroke-width="1" fill="none" opacity="0.2"/>
  <path d="M20 60 Q40 55 60 60 Q72 56 82 60" stroke="#E8F5E9" stroke-width="1" fill="none" opacity="0.18"/>
  <path d="M18 78 Q40 72 62 78 Q76 74 84 78" stroke="#E8F5E9" stroke-width="1" fill="none" opacity="0.15"/>
  <!-- Depth shadow -->
  <path d="M50 4 L45 14 L55 14 Z" fill="#1B5E20" opacity="0.3"/>
  <!-- Light spots -->
  <circle cx="36" cy="42" r="3" fill="#C8E6C9" opacity="0.25"/>
  <circle cx="60" cy="58" r="3" fill="#C8E6C9" opacity="0.22"/>
  <circle cx="42" cy="74" r="2.5" fill="#C8E6C9" opacity="0.2"/>
</svg>
