<svg xmlns="http://www.w3.org/2000/svg" viewBox="0 0 100 120">
  <defs>
    <linearGradient id="sG" x1="0" y1="0" x2="1" y2="0">
      <stop offset="0%" stop-color="#33691E"/>
      <stop offset="50%" stop-color="#558B2F"/>
      <stop offset="100%" stop-color="#33691E"/>
    </linearGradient>
    <filter id="s"><feGaussianBlur stdDeviation="2.5"/></filter>
  </defs>
  <ellipse cx="50" cy="112" rx="20" ry="6" fill="#3E2723" opacity="0.13" filter="url(#s)"/>
  <path d="M50 108 Q44 96 38 88" stroke="url(#sG)" stroke-width="4" fill="none" stroke-linecap="round"/>
  <path d="M42 92 Q34 84 28 86 Q32 92 42 92Z" fill="#558B2F"/>
  <path d="M50 100 Q28 100 22 82 Q20 68 34 60 Q44 54 50 52 Q56 54 66 60 Q80 68 78 82 Q72 100 50 100Z" fill="#FF9800"/>
  <path d="M50 100 Q34 100 28 82 Q26 70 38 62 Q50 58 50 100Z" fill="#FB8C00" opacity="0.3"/>
  <path d="M50 52 Q50 46 52 42" stroke="#5D4037" stroke-width="2.5" fill="none" stroke-linecap="round"/>
</svg>
