<svg xmlns="http://www.w3.org/2000/svg" viewBox="0 0 100 120">
  <defs>
    <radialGradient id="pG" cx="38%" cy="30%">
      <stop offset="0%" stop-color="#FFE082"/>
      <stop offset="40%" stop-color="#FF9800"/>
      <stop offset="100%" stop-color="#E65100"/>
    </radialGradient>
    <linearGradient id="sG" x1="0" y1="0" x2="1" y2="0">
      <stop offset="0%" stop-color="#33691E"/>
      <stop offset="50%" stop-color="#558B2F"/>
      <stop offset="100%" stop-color="#33691E"/>
    </linearGradient>
    <filter id="s"><feGaussianBlur stdDeviation="3"/></filter>
  </defs>
  <ellipse cx="50" cy="114" rx="30" ry="8" fill="#3E2723" opacity="0.15" filter="url(#s)"/>
  <!-- Vine -->
  <path d="M50 112 Q38 96 28 86 Q22 82 18 76" stroke="url(#sG)" stroke-width="5" fill="none" stroke-linecap="round"/>
  <path d="M28 86 Q40 80 54 74 Q62 70 68 66" stroke="#388E3C" stroke-width="4.5" fill="none" stroke-linecap="round"/>
  <!-- Leaves — asymmetric -->
  <path d="M24 82 Q10 72 8 80 Q14 88 24 82Z" fill="#558B2F"/>
  <path d="M38 78 Q46 66 56 70 Q48 78 38 78Z" fill="#689F38"/>
  <path d="M58 72 Q68 60 78 64 Q70 72 58 72Z" fill="#558B2F"/>
  <path d="M66 66 Q74 56 82 60 Q74 68 66 66Z" fill="#689F38"/>
  <!-- Pumpkin — wider, flatter, with pronounced ribs -->
  <path d="M50 104 Q18 104 10 78 Q6 58 22 46 Q36 38 50 36 Q64 38 78 46 Q94 58 90 78 Q82 104 50 104Z" fill="url(#pG)"/>
  <!-- Deep ribs — prominent -->
  <path d="M50 36 Q48 60 50 104" stroke="#BF360C" stroke-width="2.5" fill="none" opacity="0.2"/>
  <path d="M30 42 Q26 62 28 100" stroke="#BF360C" stroke-width="2" fill="none" opacity="0.18"/>
  <path d="M70 42 Q74 62 72 100" stroke="#BF360C" stroke-width="2" fill="none" opacity="0.18"/>
  <path d="M18 56 Q14 72 16 98" stroke="#BF360C" stroke-width="1.5" fill="none" opacity="0.12"/>
  <path d="M82 56 Q86 72 84 98" stroke="#BF360C" stroke-width="1.5" fill="none" opacity="0.12"/>
  <!-- Depth — left/right shading -->
  <path d="M50 104 Q24 104 16 78 Q12 62 26 48 Q50 44 50 104Z" fill="#FB8C00" opacity="0.3"/>
  <path d="M50 104 Q76 104 84 78 Q88 62 74 48 Q50 44 50 104Z" fill="#BF360C" opacity="0.12"/>
  <!-- Stem — chunky -->
  <path d="M48 38 Q46 28 48 22" stroke="#5D4037" stroke-width="4" fill="none" stroke-linecap="round"/>
  <path d="M48 24 Q54 18 62 16" stroke="#689F38" stroke-width="2" fill="none" stroke-linecap="round"/>
  <path d="M50 26 Q44 20 40 18" stroke="#558B2F" stroke-width="1.5" fill="none" stroke-linecap="round"/>
  <!-- Highlight — soft -->
  <ellipse cx="34" cy="58" rx="5" ry="12" fill="#FFE082" opacity="0.08" transform="rotate(-8 34 58)"/>
</svg>
