<svg xmlns="http://www.w3.org/2000/svg" viewBox="0 0 100 120">
  <defs>
    <radialGradient id="pG" cx="38%" cy="30%">
      <stop offset="0%" stop-color="#FFE082"/>
      <stop offset="40%" stop-color="#FF9800"/>
      <stop offset="100%" stop-color="#E65100"/>
    </radialGradient>
    <linearGradient id="sG" x1="0" y1="0" x2="1" y2="0">
      <stop offset="0%" stop-color="#33691E"/>
      <stop offset="50%" stop-color="#558B2F"/>
      <stop offset="100%" stop-color="#33691E"/>
    </linearGradient>
    <filter id="s"><feGaussianBlur stdDeviation="3"/></filter>
  </defs>
  <ellipse cx="50" cy="114" rx="32" ry="9" fill="#3E2723" opacity="0.15" filter="url(#s)"/>
  <!-- Ground vine — sprawling -->
  <path d="M10 108 Q30 102 50 100 Q70 102 90 108" stroke="url(#sG)" stroke-width="5" fill="none" stroke-linecap="round"/>
  <path d="M50 100 Q48 96 46 90" stroke="#388E3C" stroke-width="3" fill="none" stroke-linecap="round"/>
  <!-- Big lobed leaves on ground -->
  <path d="M18 106 Q6 94 4 100 Q8 108 18 106Z" fill="#558B2F"/>
  <path d="M80 106 Q88 94 92 100 Q88 108 80 106Z" fill="#689F38"/>
  <path d="M36 98 Q24 88 20 94 Q26 100 36 98Z" fill="#558B2F"/>
  <path d="M64 98 Q76 88 80 94 Q74 100 64 98Z" fill="#689F38"/>
  <!-- Pumpkin body — OBLATE (wider than tall), with rib segments -->
  <!-- Individual rib sections to create the pumpkin shape -->
  <path d="M50 90 Q26 90 20 74 Q18 62 28 56 Q38 52 50 50 Q50 66 50 90Z" fill="url(#pG)"/>
  <path d="M50 90 Q74 90 80 74 Q82 62 72 56 Q62 52 50 50 Q50 66 50 90Z" fill="#FB8C00"/>
  <path d="M50 90 Q34 90 28 76 Q26 64 34 58 Q50 54 50 90Z" fill="#F57C00" opacity="0.4"/>
  <path d="M50 90 Q66 90 72 76 Q74 64 66 58 Q50 54 50 90Z" fill="#E65100" opacity="0.15"/>
  <!-- Rib grooves — prominent dark lines -->
  <path d="M50 50 Q50 68 50 90" stroke="#BF360C" stroke-width="2.5" fill="none" opacity="0.22"/>
  <path d="M36 54 Q32 68 30 86" stroke="#BF360C" stroke-width="2" fill="none" opacity="0.18"/>
  <path d="M64 54 Q68 68 70 86" stroke="#BF360C" stroke-width="2" fill="none" opacity="0.18"/>
  <path d="M24 62 Q22 72 22 84" stroke="#BF360C" stroke-width="1.5" fill="none" opacity="0.12"/>
  <path d="M76 62 Q78 72 78 84" stroke="#BF360C" stroke-width="1.5" fill="none" opacity="0.12"/>
  <!-- Stem — chunky, centered -->
  <path d="M48 52 Q46 42 48 36" stroke="#5D4037" stroke-width="4" fill="none" stroke-linecap="round"/>
  <!-- Tendril curls -->
  <path d="M48 38 Q42 30 38 28 Q36 32 40 36" stroke="#689F38" stroke-width="1.5" fill="none"/>
  <path d="M50 40 Q56 32 60 30 Q62 34 58 38" stroke="#558B2F" stroke-width="1.5" fill="none"/>
  <!-- Highlight -->
  <ellipse cx="36" cy="64" rx="4" ry="8" fill="#FFE082" opacity="0.08" transform="rotate(-5 36 64)"/>
</svg>
