<svg xmlns="http://www.w3.org/2000/svg" viewBox="0 0 100 120">
  <defs>
    <filter id="s"><feGaussianBlur stdDeviation="2.5"/></filter>
  </defs>
  <ellipse cx="50" cy="114" rx="28" ry="8" fill="#3E2723" opacity="0.15" filter="url(#s)"/>
  <!-- Rice stalks — thin, upright, bending at top under weight of grain -->
  <path d="M26 112 Q24 82 26 50" stroke="#8BC34A" stroke-width="3" fill="none" stroke-linecap="round"/>
  <path d="M50 112 Q48 80 50 48" stroke="#7CB342" stroke-width="3" fill="none" stroke-linecap="round"/>
  <path d="M74 112 Q76 82 74 50" stroke="#8BC34A" stroke-width="3" fill="none" stroke-linecap="round"/>
  <!-- Long thin leaves — alternating from stalks -->
  <path d="M26 90 Q10 80 4 84 Q10 90 26 90Z" fill="#558B2F"/>
  <path d="M50 84 Q64 74 74 78 Q66 84 50 84Z" fill="#689F38"/>
  <path d="M74 92 Q88 82 96 86 Q88 92 74 92Z" fill="#558B2F"/>
  <path d="M26 72 Q14 64 6 68 Q14 74 26 72Z" fill="#7CB342"/>
  <path d="M50 68 Q36 58 28 62 Q36 68 50 68Z" fill="#689F38"/>
  <path d="M74 74 Q86 64 94 68 Q86 74 74 74Z" fill="#558B2F"/>
  <!-- Rice panicles — arching stems with individual elongated grains -->
  <!-- Panicle 1 — arching left -->
  <path d="M26 50 Q16 38 6 36" stroke="#CDDC39" stroke-width="1.5" fill="none" stroke-linecap="round"/>
  <path d="M20 44 Q18 40 14 38" stroke="#CDDC39" stroke-width="1" fill="none"/>
  <path d="M16 42 Q14 38 10 36" stroke="#CDDC39" stroke-width="1" fill="none"/>
  <ellipse cx="6" cy="36" rx="2.5" ry="4" fill="#FDD835" transform="rotate(-20 6 36)"/>
  <ellipse cx="12" cy="38" rx="2" ry="3.5" fill="#FFEE58" transform="rotate(-15 12 38)"/>
  <ellipse cx="18" cy="40" rx="2" ry="3.5" fill="#FDD835" transform="rotate(-10 18 40)"/>
  <ellipse cx="8" cy="42" rx="2" ry="3" fill="#FFEE58" transform="rotate(-25 8 42)"/>
  <ellipse cx="14" cy="44" rx="1.8" ry="3" fill="#FDD835" transform="rotate(-18 14 44)"/>
  <!-- Panicle 2 — arching right -->
  <path d="M50 48 Q40 34 30 30" stroke="#CDDC39" stroke-width="1.5" fill="none" stroke-linecap="round"/>
  <path d="M44 40 Q40 36 36 32" stroke="#CDDC39" stroke-width="1" fill="none"/>
  <ellipse cx="30" cy="30" rx="2.5" ry="4" fill="#FDD835" transform="rotate(-20 30 30)"/>
  <ellipse cx="36" cy="32" rx="2" ry="3.5" fill="#FFEE58" transform="rotate(-12 36 32)"/>
  <ellipse cx="42" cy="36" rx="2" ry="3.5" fill="#FDD835" transform="rotate(-8 42 36)"/>
  <ellipse cx="34" cy="36" rx="1.8" ry="3" fill="#FFEE58" transform="rotate(-22 34 36)"/>
  <!-- Panicle 3 — arching right -->
  <path d="M74 50 Q84 36 94 32" stroke="#CDDC39" stroke-width="1.5" fill="none" stroke-linecap="round"/>
  <path d="M80 44 Q84 38 88 34" stroke="#CDDC39" stroke-width="1" fill="none"/>
  <ellipse cx="94" cy="32" rx="2.5" ry="4" fill="#FDD835" transform="rotate(20 94 32)"/>
  <ellipse cx="88" cy="34" rx="2" ry="3.5" fill="#FFEE58" transform="rotate(15 88 34)"/>
  <ellipse cx="82" cy="38" rx="2" ry="3.5" fill="#FDD835" transform="rotate(10 82 38)"/>
  <ellipse cx="90" cy="38" rx="1.8" ry="3" fill="#FFEE58" transform="rotate(22 90 38)"/>
</svg>
