<svg xmlns="http://www.w3.org/2000/svg" viewBox="0 0 100 120">
  <defs>
    <filter id="s"><feGaussianBlur stdDeviation="2"/></filter>
  </defs>
  <ellipse cx="50" cy="112" rx="22" ry="6" fill="#3E2723" opacity="0.13" filter="url(#s)"/>
  <!-- Two young stalks -->
  <path d="M38 110 Q36 86 38 60" stroke="#8BC34A" stroke-width="2.5" fill="none" stroke-linecap="round"/>
  <path d="M62 110 Q64 86 62 60" stroke="#7CB342" stroke-width="2.5" fill="none" stroke-linecap="round"/>
  <!-- Leaves -->
  <path d="M38 88 Q22 80 16 84 Q22 90 38 88Z" fill="#558B2F"/>
  <path d="M62 84 Q76 76 84 80 Q78 86 62 84Z" fill="#689F38"/>
  <path d="M38 72 Q24 64 18 68 Q24 74 38 72Z" fill="#7CB342"/>
  <!-- Small panicles starting to form -->
  <path d="M38 60 Q30 50 24 48" stroke="#CDDC39" stroke-width="1.2" fill="none" stroke-linecap="round"/>
  <ellipse cx="24" cy="48" rx="1.8" ry="3" fill="#C5E1A5" transform="rotate(-15 24 48)"/>
  <ellipse cx="30" cy="50" rx="1.5" ry="2.5" fill="#DCEDC8" transform="rotate(-10 30 50)"/>
  <path d="M62 60 Q70 50 76 48" stroke="#CDDC39" stroke-width="1.2" fill="none" stroke-linecap="round"/>
  <ellipse cx="76" cy="48" rx="1.8" ry="3" fill="#C5E1A5" transform="rotate(15 76 48)"/>
  <ellipse cx="70" cy="50" rx="1.5" ry="2.5" fill="#DCEDC8" transform="rotate(10 70 50)"/>
</svg>
