<svg xmlns="http://www.w3.org/2000/svg" viewBox="0 0 100 120">
  <defs>
    <linearGradient id="stG" x1="0" y1="0" x2="1" y2="0">
      <stop offset="0%" stop-color="#558B2F"/>
      <stop offset="50%" stop-color="#8BC34A"/>
      <stop offset="100%" stop-color="#558B2F"/>
    </linearGradient>
    <radialGradient id="grG" cx="45%" cy="35%">
      <stop offset="0%" stop-color="#FFF9C4"/>
      <stop offset="50%" stop-color="#FDD835"/>
      <stop offset="100%" stop-color="#F9A825"/>
    </radialGradient>
    <filter id="sh"><feGaussianBlur stdDeviation="2.5"/></filter>
  </defs>
  <ellipse cx="50" cy="114" rx="24" ry="7" fill="#3E2723" opacity="0.18" filter="url(#sh)"/>
  <!-- Rice stalks -->
  <path d="M38 112 Q36 85 38 48" stroke="url(#stG)" stroke-width="3" fill="none" stroke-linecap="round"/>
  <path d="M50 112 Q50 82 52 46" stroke="#7CB342" stroke-width="3" fill="none" stroke-linecap="round"/>
  <path d="M62 112 Q64 85 62 48" stroke="#9CCC65" stroke-width="3" fill="none" stroke-linecap="round"/>
  <!-- Highlight -->
  <path d="M38 112 Q37 90 38 50" stroke="#C5E1A5" stroke-width="0.8" fill="none" opacity="0.15"/>
  <path d="M50 112 Q50 85 52 48" stroke="#C5E1A5" stroke-width="0.8" fill="none" opacity="0.12"/>
  <!-- Rice ears (drooping) -->
  <path d="M38 48 Q28 40 20 44" stroke="#CDDC39" stroke-width="2" fill="none" stroke-linecap="round"/>
  <circle cx="22" cy="44" r="2.5" fill="url(#grG)"/>
  <circle cx="26" cy="42" r="2.2" fill="url(#grG)"/>
  <circle cx="30" cy="41" r="2" fill="#FFEB3B"/>
  <circle cx="24" cy="47" r="1.8" fill="url(#grG)"/>
  <path d="M52 46 Q46 36 38 34" stroke="#CDDC39" stroke-width="2" fill="none" stroke-linecap="round"/>
  <circle cx="40" cy="34" r="2.5" fill="url(#grG)"/>
  <circle cx="44" cy="34" r="2.2" fill="url(#grG)"/>
  <circle cx="42" cy="37" r="2" fill="#FFEB3B"/>
  <circle cx="38" cy="37" r="1.8" fill="url(#grG)"/>
  <path d="M62 48 Q70 38 78 40" stroke="#CDDC39" stroke-width="2" fill="none" stroke-linecap="round"/>
  <circle cx="76" cy="40" r="2.5" fill="url(#grG)"/>
  <circle cx="72" cy="38" r="2.2" fill="url(#grG)"/>
  <circle cx="68" cy="40" r="2" fill="#FFEB3B"/>
  <circle cx="74" cy="43" r="1.8" fill="url(#grG)"/>
  <!-- Leaves -->
  <ellipse cx="28" cy="74" rx="11" ry="3.5" fill="#7CB342" transform="rotate(-20 28 74)"/>
  <ellipse cx="29" cy="73" rx="7" ry="2" fill="#C5E1A5" opacity="0.2" transform="rotate(-20 29 73)"/>
  <ellipse cx="60" cy="68" rx="10" ry="3" fill="#8BC34A" transform="rotate(15 60 68)"/>
  <ellipse cx="72" cy="78" rx="9" ry="3" fill="#9CCC65" transform="rotate(25 72 78)"/>
</svg>
