<svg xmlns="http://www.w3.org/2000/svg" viewBox="0 0 100 120">
  <defs>
    <linearGradient id="sG" x1="0" y1="0" x2="1" y2="0">
      <stop offset="0%" stop-color="#558B2F"/>
      <stop offset="50%" stop-color="#8BC34A"/>
      <stop offset="100%" stop-color="#558B2F"/>
    </linearGradient>
    <radialGradient id="grG" cx="40%" cy="30%">
      <stop offset="0%" stop-color="#FFF9C4"/>
      <stop offset="50%" stop-color="#FDD835"/>
      <stop offset="100%" stop-color="#F9A825"/>
    </radialGradient>
    <filter id="s"><feGaussianBlur stdDeviation="3"/></filter>
  </defs>
  <ellipse cx="50" cy="114" rx="28" ry="8" fill="#3E2723" opacity="0.15" filter="url(#s)"/>
  <!-- Rice stalks — 3 arching -->
  <path d="M32 112 Q28 82 32 44" stroke="url(#sG)" stroke-width="4" fill="none" stroke-linecap="round"/>
  <path d="M50 112 Q48 80 50 42" stroke="#7CB342" stroke-width="4" fill="none" stroke-linecap="round"/>
  <path d="M68 112 Q72 82 68 44" stroke="url(#sG)" stroke-width="4" fill="none" stroke-linecap="round"/>
  <!-- Leaves — droopy, organic -->
  <path d="M32 84 Q12 72 4 78 Q12 86 32 84Z" fill="#558B2F"/>
  <path d="M50 78 Q64 68 76 72 Q68 80 50 78Z" fill="#689F38"/>
  <path d="M68 86 Q84 74 92 80 Q84 88 68 86Z" fill="#558B2F"/>
  <path d="M32 68 Q18 58 10 64 Q18 72 32 68Z" fill="#7CB342"/>
  <!-- Rice ears — heavy drooping grain clusters -->
  <path d="M32 44 Q18 32 8 38" stroke="#CDDC39" stroke-width="2.5" fill="none" stroke-linecap="round"/>
  <circle cx="12" cy="38" r="3.5" fill="url(#grG)"/>
  <circle cx="18" cy="34" r="3" fill="url(#grG)"/>
  <circle cx="24" cy="34" r="2.8" fill="#FFEE58"/>
  <circle cx="14" cy="42" r="2.5" fill="url(#grG)"/>
  <circle cx="10" cy="34" r="2" fill="#FDD835"/>
  <path d="M50 42 Q40 28 28 30" stroke="#CDDC39" stroke-width="2.5" fill="none" stroke-linecap="round"/>
  <circle cx="32" cy="30" r="3.5" fill="url(#grG)"/>
  <circle cx="38" cy="28" r="3" fill="url(#grG)"/>
  <circle cx="34" cy="34" r="2.5" fill="#FFEE58"/>
  <circle cx="30" cy="26" r="2" fill="url(#grG)"/>
  <path d="M68 44 Q80 30 90 34" stroke="#CDDC39" stroke-width="2.5" fill="none" stroke-linecap="round"/>
  <circle cx="86" cy="34" r="3.5" fill="url(#grG)"/>
  <circle cx="80" cy="30" r="3" fill="url(#grG)"/>
  <circle cx="76" cy="34" r="2.8" fill="#FFEE58"/>
  <circle cx="88" cy="38" r="2.5" fill="url(#grG)"/>
</svg>
