<svg xmlns="http://www.w3.org/2000/svg" viewBox="0 0 100 120">
  <ellipse cx="50" cy="110" rx="16" ry="6" fill="#5D4037" opacity="0.25"/>
  <path d="M50 108 Q50 92 50 75" stroke="#4CAF50" stroke-width="3" fill="none" stroke-linecap="round"/>
  <ellipse cx="44" cy="92" rx="5" ry="2.5" fill="#66BB6A" transform="rotate(-15 44 92)"/>
  <ellipse cx="56" cy="88" rx="5" ry="2.5" fill="#81C784" transform="rotate(10 56 88)"/>
  <g transform="translate(50, 62)">
    <ellipse cx="0" cy="-7" rx="4" ry="6" fill="#E53935" transform="rotate(0 0 0)"/>
    <ellipse cx="0" cy="-7" rx="4" ry="6" fill="#F44336" transform="rotate(60 0 0)"/>
    <ellipse cx="0" cy="-7" rx="4" ry="6" fill="#E53935" transform="rotate(120 0 0)"/>
    <ellipse cx="0" cy="-7" rx="4" ry="6" fill="#EF5350" transform="rotate(180 0 0)"/>
    <ellipse cx="0" cy="-7" rx="4" ry="6" fill="#E53935" transform="rotate(240 0 0)"/>
    <ellipse cx="0" cy="-7" rx="4" ry="6" fill="#F44336" transform="rotate(300 0 0)"/>
    <circle cx="0" cy="0" r="3" fill="#FFEB3B"/>
  </g>
</svg>
