<svg xmlns="http://www.w3.org/2000/svg" viewBox="0 0 100 120">
  <defs>
    <linearGradient id="stG" x1="0" y1="0" x2="1" y2="0">
      <stop offset="0%" stop-color="#2E7D32"/>
      <stop offset="50%" stop-color="#4CAF50"/>
      <stop offset="100%" stop-color="#2E7D32"/>
    </linearGradient>
    <filter id="sh"><feGaussianBlur stdDeviation="2"/></filter>
  </defs>
  <ellipse cx="50" cy="112" rx="18" ry="6" fill="#3E2723" opacity="0.15" filter="url(#sh)"/>
  <path d="M50 108 Q50 92 50 74" stroke="url(#stG)" stroke-width="3.5" fill="none" stroke-linecap="round"/>
  <ellipse cx="43" cy="94" rx="6" ry="3" fill="#558B2F" transform="rotate(-15 43 94)"/>
  <ellipse cx="57" cy="88" rx="6" ry="2.5" fill="#689F38" transform="rotate(10 57 88)"/>
  <g transform="translate(50, 60)">
    <ellipse cx="0" cy="-8" rx="4.5" ry="7" fill="#E53935" transform="rotate(0 0 0)"/>
    <ellipse cx="0" cy="-8" rx="4.5" ry="7" fill="#F44336" transform="rotate(60 0 0)"/>
    <ellipse cx="0" cy="-8" rx="4.5" ry="7" fill="#E53935" transform="rotate(120 0 0)"/>
    <ellipse cx="0" cy="-8" rx="4.5" ry="7" fill="#EF5350" transform="rotate(180 0 0)"/>
    <ellipse cx="0" cy="-8" rx="4.5" ry="7" fill="#E53935" transform="rotate(240 0 0)"/>
    <ellipse cx="0" cy="-8" rx="4.5" ry="7" fill="#F44336" transform="rotate(300 0 0)"/>
    <circle cx="0" cy="0" r="3.5" fill="#FFEB3B"/>
  </g>
</svg>
