<svg xmlns="http://www.w3.org/2000/svg" viewBox="0 0 100 120">
  <defs>
    <radialGradient id="blG" cx="40%" cy="35%">
      <stop offset="0%" stop-color="#FCE4EC"/>
      <stop offset="40%" stop-color="#F8BBD0"/>
      <stop offset="100%" stop-color="#F48FB1"/>
    </radialGradient>
    <linearGradient id="tG" x1="0" y1="0" x2="1" y2="0">
      <stop offset="0%" stop-color="#6D4C41"/>
      <stop offset="50%" stop-color="#A1887F"/>
      <stop offset="100%" stop-color="#6D4C41"/>
    </linearGradient>
    <filter id="sh"><feGaussianBlur stdDeviation="2.5"/></filter>
  </defs>
  <ellipse cx="50" cy="114" rx="32" ry="8" fill="#3E2723" opacity="0.18" filter="url(#sh)"/>
  <!-- Trunk -->
  <rect x="45" y="64" width="10" height="48" rx="4" fill="url(#tG)"/>
  <rect x="47" y="66" width="3" height="44" rx="1.5" fill="#BCAAA4" opacity="0.12"/>
  <!-- Branches -->
  <path d="M46 84 Q30 78 24 88" stroke="#795548" stroke-width="3.5" fill="none" stroke-linecap="round"/>
  <path d="M54 76 Q70 70 76 78" stroke="#795548" stroke-width="3.5" fill="none" stroke-linecap="round"/>
  <!-- Blossom canopy -->
  <circle cx="50" cy="38" r="28" fill="url(#blG)"/>
  <circle cx="30" cy="50" r="17" fill="#F48FB1"/>
  <circle cx="70" cy="47" r="17" fill="#F48FB1"/>
  <circle cx="38" cy="26" r="15" fill="#F8BBD0"/>
  <circle cx="62" cy="24" r="15" fill="#FCE4EC"/>
  <circle cx="50" cy="16" r="11" fill="#F8BBD0"/>
  <!-- Highlights / sparkles -->
  <circle cx="36" cy="40" r="2.5" fill="#fff" opacity="0.4"/>
  <circle cx="56" cy="32" r="3" fill="#fff" opacity="0.3"/>
  <circle cx="44" cy="20" r="2" fill="#fff" opacity="0.35"/>
  <circle cx="64" cy="40" r="1.8" fill="#FCE4EC" opacity="0.5"/>
  <circle cx="28" cy="55" r="2" fill="#fff" opacity="0.25"/>
  <circle cx="72" cy="53" r="2" fill="#fff" opacity="0.2"/>
  <!-- Petal details -->
  <circle cx="22" cy="62" r="3" fill="#F8BBD0" opacity="0.5"/>
  <circle cx="78" cy="58" r="2.5" fill="#F8BBD0" opacity="0.4"/>
</svg>
