<svg xmlns="http://www.w3.org/2000/svg" viewBox="0 0 100 120">
  <defs>
    <filter id="s"><feGaussianBlur stdDeviation="2"/></filter>
  </defs>
  <ellipse cx="50" cy="112" rx="26" ry="7" fill="#3E2723" opacity="0.13" filter="url(#s)"/>
  <path d="M46 110 Q44 96 46 82 Q48 80 52 80 Q54 80 55 82 Q56 96 54 110Z" fill="#6D4C41"/>
  <path d="M46 92 Q30 80 20 78" stroke="#795548" stroke-width="3" fill="none" stroke-linecap="round"/>
  <path d="M54 86 Q68 74 78 72" stroke="#795548" stroke-width="3" fill="none" stroke-linecap="round"/>
  <path d="M50 82 Q50 68 50 58" stroke="#795548" stroke-width="2.5" fill="none" stroke-linecap="round"/>
  <circle cx="20" cy="72" r="10" fill="#F48FB1"/>
  <circle cx="50" cy="52" r="10" fill="#F8BBD0"/>
  <circle cx="78" cy="66" r="10" fill="#F06292"/>
  <circle cx="36" cy="62" r="8" fill="#F8BBD0"/>
  <circle cx="64" cy="60" r="8" fill="#F48FB1"/>
  <circle cx="36" cy="52" r="1.5" fill="#fff" opacity="0.25"/>
  <circle cx="60" cy="50" r="1.2" fill="#fff" opacity="0.2"/>
  <ellipse cx="26" cy="84" rx="2" ry="1" fill="#F8BBD0" opacity="0.35" transform="rotate(-15 26 84)"/>
</svg>
