<svg xmlns="http://www.w3.org/2000/svg" viewBox="0 0 100 120">
  <defs>
    <radialGradient id="bG" cx="40%" cy="30%">
      <stop offset="0%" stop-color="#FCE4EC"/>
      <stop offset="30%" stop-color="#F8BBD0"/>
      <stop offset="100%" stop-color="#E91E63"/>
    </radialGradient>
    <linearGradient id="tG" x1="0" y1="0" x2="1" y2="0">
      <stop offset="0%" stop-color="#5D4037"/>
      <stop offset="40%" stop-color="#8D6E63"/>
      <stop offset="60%" stop-color="#A1887F"/>
      <stop offset="100%" stop-color="#5D4037"/>
    </linearGradient>
    <filter id="s"><feGaussianBlur stdDeviation="3"/></filter>
  </defs>
  <ellipse cx="50" cy="114" rx="34" ry="9" fill="#3E2723" opacity="0.15" filter="url(#s)"/>
  <!-- Trunk -->
  <path d="M44 112 Q44 90 46 68 Q48 66 52 66 Q54 66 55 68 Q56 90 56 112Z" fill="url(#tG)"/>
  <path d="M47 110 Q47 92 48 70 Q50 92 50 110Z" fill="#BCAAA4" opacity="0.1"/>
  <!-- Branches -->
  <path d="M45 86 Q28 78 18 86" stroke="#795548" stroke-width="4" fill="none" stroke-linecap="round"/>
  <path d="M55 78 Q72 70 82 76" stroke="#795548" stroke-width="4" fill="none" stroke-linecap="round"/>
  <!-- Blossom canopy — massive organic blob -->
  <path d="M50 8 Q18 8 6 28 Q-2 46 12 56 Q6 62 14 68 Q22 76 36 72 Q32 80 50 80 Q68 80 64 72 Q78 76 86 68 Q94 62 88 56 Q102 46 94 28 Q82 8 50 8Z" fill="url(#bG)"/>
  <!-- Depth layers -->
  <path d="M50 10 Q26 12 14 30 Q8 42 18 52 Q30 60 50 56 Q50 30 50 10Z" fill="#F48FB1" opacity="0.45"/>
  <path d="M50 10 Q74 12 86 30 Q92 42 82 52 Q70 60 50 56 Q50 30 50 10Z" fill="#C2185B" opacity="0.15"/>
  <!-- Sparkles / petals -->
  <circle cx="28" cy="32" r="3" fill="#fff" opacity="0.3"/>
  <circle cx="66" cy="28" r="2.5" fill="#fff" opacity="0.25"/>
  <circle cx="40" cy="16" r="2" fill="#fff" opacity="0.3"/>
  <circle cx="20" cy="50" r="2.5" fill="#FCE4EC" opacity="0.3"/>
  <circle cx="78" cy="46" r="2" fill="#FCE4EC" opacity="0.25"/>
  <circle cx="50" cy="22" r="2" fill="#fff" opacity="0.2"/>
  <!-- Falling petals -->
  <ellipse cx="14" cy="76" rx="3" ry="2" fill="#F8BBD0" opacity="0.4" transform="rotate(-20 14 76)"/>
  <ellipse cx="86" cy="72" rx="2.5" ry="1.5" fill="#F8BBD0" opacity="0.35" transform="rotate(15 86 72)"/>
</svg>
