<svg xmlns="http://www.w3.org/2000/svg" viewBox="0 0 100 120">
  <defs>
    <filter id="s"><feGaussianBlur stdDeviation="2.5"/></filter>
  </defs>
  <ellipse cx="50" cy="114" rx="34" ry="9" fill="#3E2723" opacity="0.15" filter="url(#s)"/>
  <!-- Trunk — elegant, dark -->
  <path d="M44 112 Q42 94 44 72 Q46 70 52 70 Q54 70 56 72 Q56 94 56 112Z" fill="#6D4C41"/>
  <path d="M48 110 Q48 96 48 74" stroke="#8D6E63" stroke-width="1" fill="none" opacity="0.12"/>
  <!-- Branches — graceful, spreading -->
  <path d="M44 84 Q24 70 8 62" stroke="#795548" stroke-width="4" fill="none" stroke-linecap="round"/>
  <path d="M56 78 Q76 64 92 58" stroke="#795548" stroke-width="4" fill="none" stroke-linecap="round"/>
  <path d="M50 72 Q50 54 50 40" stroke="#795548" stroke-width="3.5" fill="none" stroke-linecap="round"/>
  <path d="M8 62 Q4 52 2 44" stroke="#8D6E63" stroke-width="2.5" fill="none" stroke-linecap="round"/>
  <path d="M8 62 Q14 52 20 46" stroke="#8D6E63" stroke-width="2" fill="none" stroke-linecap="round"/>
  <path d="M92 58 Q96 48 98 40" stroke="#8D6E63" stroke-width="2.5" fill="none" stroke-linecap="round"/>
  <path d="M92 58 Q86 48 82 42" stroke="#8D6E63" stroke-width="2" fill="none" stroke-linecap="round"/>
  <path d="M50 40 Q40 30 34 24" stroke="#8D6E63" stroke-width="2" fill="none" stroke-linecap="round"/>
  <path d="M50 40 Q60 30 66 24" stroke="#8D6E63" stroke-width="2" fill="none" stroke-linecap="round"/>
  <!-- Blossom clusters — soft pink circles scattered along branches -->
  <circle cx="2" cy="40" r="10" fill="#F48FB1"/>
  <circle cx="20" cy="40" r="11" fill="#F8BBD0"/>
  <circle cx="8" cy="56" r="9" fill="#F06292"/>
  <circle cx="34" cy="20" r="11" fill="#F8BBD0"/>
  <circle cx="50" cy="32" r="11" fill="#F48FB1"/>
  <circle cx="66" cy="20" r="11" fill="#F8BBD0"/>
  <circle cx="82" cy="36" r="11" fill="#F48FB1"/>
  <circle cx="98" cy="36" r="10" fill="#F8BBD0"/>
  <circle cx="92" cy="52" r="9" fill="#F06292"/>
  <circle cx="50" cy="16" r="9" fill="#F8BBD0"/>
  <circle cx="14" cy="48" r="8" fill="#F48FB1"/>
  <circle cx="26" cy="30" r="8" fill="#F06292"/>
  <circle cx="74" cy="28" r="8" fill="#F8BBD0"/>
  <circle cx="40" cy="36" r="8" fill="#F48FB1"/>
  <circle cx="60" cy="34" r="8" fill="#F06292"/>
  <!-- White sparkles within blossoms -->
  <circle cx="30" cy="22" r="2" fill="#fff" opacity="0.3"/>
  <circle cx="54" cy="18" r="1.5" fill="#fff" opacity="0.25"/>
  <circle cx="78" cy="30" r="1.8" fill="#fff" opacity="0.25"/>
  <circle cx="10" cy="42" r="1.5" fill="#fff" opacity="0.2"/>
  <circle cx="90" cy="40" r="1.5" fill="#fff" opacity="0.2"/>
  <!-- Falling petals -->
  <ellipse cx="16" cy="76" rx="3" ry="1.5" fill="#F8BBD0" opacity="0.45" transform="rotate(-20 16 76)"/>
  <ellipse cx="84" cy="72" rx="2.5" ry="1.2" fill="#F48FB1" opacity="0.4" transform="rotate(15 84 72)"/>
  <ellipse cx="36" cy="84" rx="2" ry="1" fill="#F8BBD0" opacity="0.35" transform="rotate(-30 36 84)"/>
</svg>
