<svg xmlns="http://www.w3.org/2000/svg" viewBox="0 0 100 120">
  <defs>
    <radialGradient id="cG" cx="38%" cy="32%">
      <stop offset="0%" stop-color="#C5E1A5"/>
      <stop offset="40%" stop-color="#81C784"/>
      <stop offset="100%" stop-color="#2E7D32"/>
    </radialGradient>
    <linearGradient id="tG" x1="0" y1="0" x2="1" y2="0">
      <stop offset="0%" stop-color="#5D4037"/>
      <stop offset="40%" stop-color="#A1887F"/>
      <stop offset="60%" stop-color="#A1887F"/>
      <stop offset="100%" stop-color="#5D4037"/>
    </linearGradient>
    <filter id="s"><feGaussianBlur stdDeviation="3"/></filter>
  </defs>
  <ellipse cx="50" cy="112" rx="32" ry="10" fill="#3E2723" opacity="0.15" filter="url(#s)"/>
  <!-- Trunk -->
  <path d="M44 110 Q44 88 46 70 Q48 68 52 68 Q54 68 56 70 Q58 88 56 110Z" fill="url(#tG)"/>
  <path d="M47 108 Q47 90 48 72 Q50 90 50 108Z" fill="#BCAAA4" opacity="0.12"/>
  <!-- Canopy — big organic blobs -->
  <path d="M50 30 Q22 30 14 52 Q10 66 24 72 Q30 76 38 72 Q34 80 50 80 Q66 80 62 72 Q70 76 76 72 Q90 66 86 52 Q78 30 50 30Z" fill="url(#cG)"/>
  <!-- Depth layers -->
  <path d="M50 34 Q30 36 22 52 Q20 62 30 68 Q50 74 50 34Z" fill="#388E3C" opacity="0.4"/>
  <path d="M50 34 Q70 36 78 52 Q80 62 70 68 Q50 74 50 34Z" fill="#1B5E20" opacity="0.2"/>
  <!-- Highlights -->
  <circle cx="34" cy="46" r="5" fill="#E8F5E9" opacity="0.2"/>
  <circle cx="60" cy="42" r="4" fill="#E8F5E9" opacity="0.15"/>
  <circle cx="44" cy="56" r="3" fill="#C8E6C9" opacity="0.2"/>
</svg>
