<svg xmlns="http://www.w3.org/2000/svg" viewBox="0 0 100 120">
  <defs>
    <linearGradient id="sG" x1="0" y1="0" x2="1" y2="0">
      <stop offset="0%" stop-color="#2E7D32"/>
      <stop offset="50%" stop-color="#66BB6A"/>
      <stop offset="100%" stop-color="#2E7D32"/>
    </linearGradient>
    <radialGradient id="lG" cx="35%" cy="30%">
      <stop offset="0%" stop-color="#C5E1A5"/>
      <stop offset="100%" stop-color="#558B2F"/>
    </radialGradient>
    <filter id="s"><feGaussianBlur stdDeviation="3"/></filter>
  </defs>
  <ellipse cx="50" cy="102" rx="28" ry="10" fill="#3E2723" opacity="0.15" filter="url(#s)"/>
  <ellipse cx="50" cy="97" rx="22" ry="8" fill="#795548"/>
  <ellipse cx="50" cy="95" rx="18" ry="6" fill="#8D6E63" opacity="0.4"/>
  <!-- Stem -->
  <path d="M50 97 Q48 76 50 58" stroke="url(#sG)" stroke-width="4.5" fill="none" stroke-linecap="round"/>
  <!-- Leaves — bigger, more organic -->
  <path d="M50 72 Q38 60 28 66 Q34 74 50 72Z" fill="url(#lG)"/>
  <path d="M50 66 Q62 54 72 60 Q66 68 50 66Z" fill="#81C784"/>
  <!-- Leaf top veins -->
  <path d="M42 68 Q36 66 30 68" stroke="#33691E" stroke-width="0.7" fill="none" opacity="0.35"/>
  <path d="M58 62 Q64 60 70 62" stroke="#33691E" stroke-width="0.7" fill="none" opacity="0.3"/>
  <!-- Highlights -->
  <path d="M50 72 Q42 64 36 68" fill="#E8F5E9" opacity="0.15"/>
  <path d="M50 66 Q58 58 64 62" fill="#E8F5E9" opacity="0.12"/>
</svg>
