<svg xmlns="http://www.w3.org/2000/svg" viewBox="0 0 100 120">
  <defs>
    <radialGradient id="cG" cx="38%" cy="32%">
      <stop offset="0%" stop-color="#C5E1A5"/>
      <stop offset="100%" stop-color="#2E7D32"/>
    </radialGradient>
    <linearGradient id="tG" x1="0" y1="0" x2="1" y2="0">
      <stop offset="0%" stop-color="#5D4037"/>
      <stop offset="50%" stop-color="#A1887F"/>
      <stop offset="100%" stop-color="#5D4037"/>
    </linearGradient>
    <filter id="s"><feGaussianBlur stdDeviation="2.5"/></filter>
  </defs>
  <ellipse cx="50" cy="110" rx="26" ry="8" fill="#3E2723" opacity="0.13" filter="url(#s)"/>
  <path d="M46 108 Q46 92 47 78 Q49 76 51 76 Q53 76 54 78 Q55 92 54 108Z" fill="url(#tG)"/>
  <path d="M50 48 Q30 48 24 62 Q20 72 32 76 Q44 80 50 78 Q56 80 68 76 Q80 72 76 62 Q70 48 50 48Z" fill="url(#cG)"/>
  <path d="M50 50 Q36 52 30 62 Q28 68 38 72 Q50 76 50 50Z" fill="#388E3C" opacity="0.35"/>
  <circle cx="38" cy="58" r="3.5" fill="#E8F5E9" opacity="0.18"/>
</svg>
