<svg xmlns="http://www.w3.org/2000/svg" viewBox="0 0 100 120">
  <defs>
    <filter id="s"><feGaussianBlur stdDeviation="2.5"/></filter>
  </defs>
  <ellipse cx="50" cy="108" rx="30" ry="7" fill="#3E2723" opacity="0.15" filter="url(#s)"/>
  <!-- Low bushy stems spreading along ground -->
  <path d="M50 104 Q42 100 32 96" stroke="#2E7D32" stroke-width="2.5" fill="none" stroke-linecap="round"/>
  <path d="M50 104 Q58 100 68 96" stroke="#388E3C" stroke-width="2.5" fill="none" stroke-linecap="round"/>
  <path d="M32 96 Q22 92 14 90" stroke="#2E7D32" stroke-width="2" fill="none" stroke-linecap="round"/>
  <path d="M68 96 Q78 92 86 90" stroke="#388E3C" stroke-width="2" fill="none" stroke-linecap="round"/>
  <!-- Runners -->
  <path d="M32 96 Q28 100 24 104" stroke="#66BB6A" stroke-width="1.2" fill="none"/>
  <path d="M68 96 Q72 100 76 104" stroke="#66BB6A" stroke-width="1.2" fill="none"/>
  <!-- Trifoliate leaf clusters -->
  <g fill="#388E3C">
    <path d="M32 96 Q24 86 18 88 Q20 94 32 96Z"/>
    <path d="M32 96 Q32 84 38 84 Q36 90 32 96Z"/>
    <path d="M32 96 Q22 90 16 94 Q20 98 32 96Z"/>
  </g>
  <g fill="#43A047">
    <path d="M68 96 Q76 86 82 88 Q80 94 68 96Z"/>
    <path d="M68 96 Q68 84 62 84 Q64 90 68 96Z"/>
    <path d="M68 96 Q78 90 84 94 Q80 98 68 96Z"/>
  </g>
  <g fill="#2E7D32">
    <path d="M14 90 Q6 80 4 84 Q6 88 14 90Z"/>
    <path d="M14 90 Q10 78 16 78 Q14 84 14 90Z"/>
  </g>
  <g fill="#43A047">
    <path d="M86 90 Q92 80 96 84 Q94 88 86 90Z"/>
    <path d="M86 90 Q90 78 84 78 Q86 84 86 90Z"/>
  </g>
  <!-- Main strawberry — hanging below leaf cluster, pointed down -->
  <path d="M34 94 Q34 96 36 96" stroke="#558B2F" stroke-width="1.5" fill="none"/>
  <path d="M36 96 Q29 100 27 106 Q26 110 30 114 Q34 118 38 116 Q44 112 44 106 Q43 100 36 96Z" fill="#D32F2F"/>
  <path d="M36 96 Q31 100 29 106 Q30 110 36 110 Q36 102 36 96Z" fill="#E53935" opacity="0.3"/>
  <!-- Calyx -->
  <path d="M36 96 Q34 94 32 96 Q34 98 36 96Z" fill="#2E7D32"/>
  <path d="M36 96 Q38 94 40 96 Q38 98 36 96Z" fill="#388E3C"/>
  <!-- Seeds -->
  <circle cx="32" cy="104" r="0.8" fill="#FFF9C4" opacity="0.5"/>
  <circle cx="36" cy="108" r="0.8" fill="#FFF9C4" opacity="0.5"/>
  <circle cx="40" cy="104" r="0.8" fill="#FFF9C4" opacity="0.5"/>
  <circle cx="34" cy="112" r="0.8" fill="#FFF9C4" opacity="0.45"/>
  <!-- Second strawberry — smaller -->
  <path d="M66 94 Q66 96 64 96" stroke="#558B2F" stroke-width="1.5" fill="none"/>
  <path d="M64 96 Q58 98 56 104 Q56 108 58 110 Q62 112 66 110 Q70 106 68 100 Q66 98 64 96Z" fill="#E53935"/>
  <path d="M64 96 Q62 94 60 96 Q62 98 64 96Z" fill="#2E7D32"/>
  <circle cx="60" cy="102" r="0.8" fill="#FFF9C4" opacity="0.45"/>
  <circle cx="64" cy="106" r="0.8" fill="#FFF9C4" opacity="0.45"/>
  <!-- Small green unripe berry -->
  <path d="M18 88 Q18 90 16 92 Q14 94 16 96 Q18 98 20 96 Q22 92 20 90Z" fill="#66BB6A"/>
  <path d="M18 88 Q17 88 16 90 Q17 90 18 88Z" fill="#2E7D32"/>
  <!-- White flowers -->
  <circle cx="82" cy="88" r="3" fill="#fff" opacity="0.7"/>
  <circle cx="82" cy="88" r="1.2" fill="#FDD835" opacity="0.6"/>
  <circle cx="24" cy="84" r="2.5" fill="#fff" opacity="0.6"/>
  <circle cx="24" cy="84" r="1" fill="#FDD835" opacity="0.5"/>
</svg>
