<svg xmlns="http://www.w3.org/2000/svg" viewBox="0 0 100 120">
  <defs>
    <radialGradient id="fG" cx="38%" cy="28%">
      <stop offset="0%" stop-color="#EF9A9A"/>
      <stop offset="40%" stop-color="#E53935"/>
      <stop offset="100%" stop-color="#B71C1C"/>
    </radialGradient>
    <linearGradient id="sG" x1="0" y1="0" x2="1" y2="0">
      <stop offset="0%" stop-color="#1B5E20"/>
      <stop offset="50%" stop-color="#388E3C"/>
      <stop offset="100%" stop-color="#1B5E20"/>
    </linearGradient>
    <filter id="s"><feGaussianBlur stdDeviation="3"/></filter>
  </defs>
  <ellipse cx="50" cy="114" rx="28" ry="8" fill="#3E2723" opacity="0.15" filter="url(#s)"/>
  <!-- Stems -->
  <path d="M50 112 Q48 95 44 80" stroke="url(#sG)" stroke-width="3.5" fill="none" stroke-linecap="round"/>
  <path d="M44 95 Q36 88 28 90" stroke="#2E7D32" stroke-width="2.5" fill="none" stroke-linecap="round"/>
  <path d="M48 88 Q56 82 62 84" stroke="#2E7D32" stroke-width="2.5" fill="none" stroke-linecap="round"/>
  <!-- Leaves -->
  <path d="M44 80 Q32 72 24 76 Q30 82 44 80Z" fill="#388E3C"/>
  <path d="M44 80 Q50 70 60 72 Q54 78 44 80Z" fill="#43A047"/>
  <path d="M28 90 Q18 84 14 88 Q20 94 28 90Z" fill="#558B2F"/>
  <path d="M62 84 Q70 78 74 82 Q68 88 62 84Z" fill="#689F38"/>
  <!-- Main strawberry -->
  <path d="M44 78 Q28 68 26 44 Q26 24 44 14 Q50 10 56 14 Q74 24 74 44 Q72 68 44 78Z" fill="url(#fG)"/>
  <path d="M44 78 Q32 70 30 48 Q30 30 44 18 Q44 40 44 78Z" fill="#EF5350" opacity="0.35"/>
  <!-- Seeds -->
  <ellipse cx="38" cy="34" rx="2" ry="1.5" fill="#FFF9C4" opacity="0.7" transform="rotate(-15 38 34)"/>
  <ellipse cx="52" cy="30" rx="2" ry="1.5" fill="#FFF9C4" opacity="0.7" transform="rotate(10 52 30)"/>
  <ellipse cx="44" cy="44" rx="2" ry="1.5" fill="#FFF9C4" opacity="0.65"/>
  <ellipse cx="58" cy="42" rx="2" ry="1.5" fill="#FFF9C4" opacity="0.65" transform="rotate(5 58 42)"/>
  <ellipse cx="36" cy="52" rx="2" ry="1.5" fill="#FFF9C4" opacity="0.6" transform="rotate(-10 36 52)"/>
  <ellipse cx="54" cy="54" rx="2" ry="1.5" fill="#FFF9C4" opacity="0.6"/>
  <ellipse cx="42" cy="64" rx="2" ry="1.5" fill="#FFF9C4" opacity="0.55"/>
  <ellipse cx="56" cy="64" rx="2" ry="1.5" fill="#FFF9C4" opacity="0.55" transform="rotate(8 56 64)"/>
  <!-- Top leaves -->
  <path d="M44 16 Q38 6 32 10 Q36 16 44 16Z" fill="#2E7D32"/>
  <path d="M44 16 Q44 4 50 6 Q48 14 44 16Z" fill="#43A047"/>
  <path d="M44 16 Q52 6 58 10 Q52 16 44 16Z" fill="#388E3C"/>
  <!-- Highlight -->
  <path d="M36 24 Q42 16 52 16" fill="#FFCDD2" opacity="0.15"/>
  <!-- Small berries -->
  <path d="M26 96 Q20 92 18 82 Q18 74 26 70 Q34 74 34 82 Q32 92 26 96Z" fill="#E53935"/>
  <ellipse cx="24" cy="78" rx="1.5" ry="1" fill="#FFF9C4" opacity="0.5"/>
  <ellipse cx="28" cy="84" rx="1.5" ry="1" fill="#FFF9C4" opacity="0.5"/>
  <path d="M64 90 Q58 86 56 78 Q56 72 64 68 Q72 72 72 78 Q70 86 64 90Z" fill="#E53935"/>
  <ellipse cx="62" cy="74" rx="1.5" ry="1" fill="#FFF9C4" opacity="0.5"/>
  <ellipse cx="66" cy="80" rx="1.5" ry="1" fill="#FFF9C4" opacity="0.5"/>
</svg>
