<svg xmlns="http://www.w3.org/2000/svg" viewBox="0 0 100 120">
  <defs>
    <linearGradient id="sG" x1="0" y1="0" x2="1" y2="0">
      <stop offset="0%" stop-color="#1B5E20"/>
      <stop offset="50%" stop-color="#388E3C"/>
      <stop offset="100%" stop-color="#1B5E20"/>
    </linearGradient>
    <filter id="s"><feGaussianBlur stdDeviation="2.5"/></filter>
  </defs>
  <ellipse cx="50" cy="112" rx="20" ry="6" fill="#3E2723" opacity="0.13" filter="url(#s)"/>
  <path d="M50 108 Q49 96 48 82" stroke="url(#sG)" stroke-width="3" fill="none" stroke-linecap="round"/>
  <path d="M48 82 Q38 74 32 78 Q36 82 48 82Z" fill="#388E3C"/>
  <path d="M48 82 Q54 74 60 76 Q56 80 48 82Z" fill="#43A047"/>
  <path d="M48 80 Q36 74 34 60 Q34 50 48 46 Q62 50 62 60 Q60 74 48 80Z" fill="#E53935"/>
  <path d="M48 80 Q40 76 38 64 Q38 54 48 50 Q48 65 48 80Z" fill="#EF5350" opacity="0.3"/>
  <ellipse cx="44" cy="58" rx="1.5" ry="1" fill="#FFF9C4" opacity="0.5"/>
  <ellipse cx="52" cy="62" rx="1.5" ry="1" fill="#FFF9C4" opacity="0.5"/>
  <ellipse cx="48" cy="70" rx="1.5" ry="1" fill="#FFF9C4" opacity="0.45"/>
</svg>
