<svg xmlns="http://www.w3.org/2000/svg" viewBox="0 0 100 120">
  <defs>
    <filter id="s"><feGaussianBlur stdDeviation="2.5"/></filter>
  </defs>
  <ellipse cx="50" cy="114" rx="30" ry="8" fill="#3E2723" opacity="0.15" filter="url(#s)"/>
  <!-- Low bushy stems spreading along ground -->
  <path d="M50 112 Q42 108 32 104" stroke="#2E7D32" stroke-width="2.5" fill="none" stroke-linecap="round"/>
  <path d="M50 112 Q58 108 68 104" stroke="#388E3C" stroke-width="2.5" fill="none" stroke-linecap="round"/>
  <path d="M32 104 Q22 100 14 98" stroke="#2E7D32" stroke-width="2" fill="none" stroke-linecap="round"/>
  <path d="M68 104 Q78 100 86 98" stroke="#388E3C" stroke-width="2" fill="none" stroke-linecap="round"/>
  <!-- Runners -->
  <path d="M32 104 Q28 106 24 110" stroke="#66BB6A" stroke-width="1.2" fill="none"/>
  <path d="M68 104 Q72 106 76 110" stroke="#66BB6A" stroke-width="1.2" fill="none"/>
  <!-- Trifoliate leaf clusters — round-toothed edges -->
  <g fill="#388E3C">
    <path d="M32 104 Q24 94 18 96 Q20 102 32 104Z"/>
    <path d="M32 104 Q32 92 38 92 Q36 98 32 104Z"/>
    <path d="M32 104 Q22 98 16 102 Q20 106 32 104Z"/>
  </g>
  <g fill="#43A047">
    <path d="M68 104 Q76 94 82 96 Q80 102 68 104Z"/>
    <path d="M68 104 Q68 92 62 92 Q64 98 68 104Z"/>
    <path d="M68 104 Q78 98 84 102 Q80 106 68 104Z"/>
  </g>
  <g fill="#2E7D32">
    <path d="M14 98 Q6 88 4 92 Q6 96 14 98Z"/>
    <path d="M14 98 Q10 86 16 86 Q14 92 14 98Z"/>
  </g>
  <g fill="#43A047">
    <path d="M86 98 Q92 88 96 92 Q94 96 86 98Z"/>
    <path d="M86 98 Q90 86 84 86 Q86 92 86 98Z"/>
  </g>
  <!-- Main strawberry — hanging below leaf cluster, pointed down -->
  <path d="M34 102 Q34 104 36 104" stroke="#558B2F" stroke-width="1.5" fill="none"/>
  <path d="M36 104 Q29 108 27 114 Q26 118 30 122 Q34 126 38 124 Q44 120 44 114 Q43 108 36 104Z" fill="#D32F2F"/>
  <path d="M36 104 Q31 108 29 114 Q30 118 36 118 Q36 110 36 104Z" fill="#E53935" opacity="0.3"/>
  <path d="M36 104 Q34 102 32 104 Q34 106 36 104Z" fill="#2E7D32"/>
  <path d="M36 104 Q38 102 40 104 Q38 106 36 104Z" fill="#388E3C"/>
  <circle cx="32" cy="112" r="0.8" fill="#FFF9C4" opacity="0.5"/>
  <circle cx="36" cy="116" r="0.8" fill="#FFF9C4" opacity="0.5"/>
  <circle cx="40" cy="112" r="0.8" fill="#FFF9C4" opacity="0.5"/>
  <circle cx="34" cy="120" r="0.8" fill="#FFF9C4" opacity="0.45"/>
  <!-- Second strawberry — smaller, different angle -->
  <path d="M66 102 Q66 104 64 104" stroke="#558B2F" stroke-width="1.5" fill="none"/>
  <path d="M64 104 Q58 106 56 112 Q56 116 58 118 Q62 120 66 118 Q70 114 68 108 Q66 106 64 104Z" fill="#E53935"/>
  <path d="M64 104 Q62 102 60 104 Q62 106 64 104Z" fill="#2E7D32"/>
  <circle cx="60" cy="110" r="0.8" fill="#FFF9C4" opacity="0.45"/>
  <circle cx="64" cy="114" r="0.8" fill="#FFF9C4" opacity="0.45"/>
  <!-- Small green (unripe) berry -->
  <path d="M18 96 Q18 98 16 100 Q14 102 16 104 Q18 106 20 104 Q22 100 20 98Z" fill="#66BB6A"/>
  <path d="M18 96 Q17 96 16 98 Q17 98 18 96Z" fill="#2E7D32"/>
  <!-- White flowers (strawberry flowers) -->
  <circle cx="82" cy="96" r="3" fill="#fff" opacity="0.7"/>
  <circle cx="82" cy="96" r="1.2" fill="#FDD835" opacity="0.6"/>
  <circle cx="24" cy="92" r="2.5" fill="#fff" opacity="0.6"/>
  <circle cx="24" cy="92" r="1" fill="#FDD835" opacity="0.5"/>
</svg>
