<svg xmlns="http://www.w3.org/2000/svg" viewBox="0 0 100 120">
  <defs>
    <radialGradient id="fG" cx="38%" cy="28%">
      <stop offset="0%" stop-color="#FFCDD2"/>
      <stop offset="40%" stop-color="#EF5350"/>
      <stop offset="100%" stop-color="#C62828"/>
    </radialGradient>
    <linearGradient id="sG" x1="0" y1="0" x2="1" y2="0">
      <stop offset="0%" stop-color="#1B5E20"/>
      <stop offset="50%" stop-color="#388E3C"/>
      <stop offset="100%" stop-color="#1B5E20"/>
    </linearGradient>
    <filter id="s"><feGaussianBlur stdDeviation="3"/></filter>
  </defs>
  <ellipse cx="50" cy="114" rx="28" ry="8" fill="#3E2723" opacity="0.15" filter="url(#s)"/>
  <!-- Stems — ground-hugging bush -->
  <path d="M50 112 Q46 96 42 82" stroke="url(#sG)" stroke-width="3.5" fill="none" stroke-linecap="round"/>
  <path d="M42 96 Q32 88 24 86" stroke="#2E7D32" stroke-width="2.5" fill="none" stroke-linecap="round"/>
  <path d="M46 90 Q56 84 64 82" stroke="#2E7D32" stroke-width="2.5" fill="none" stroke-linecap="round"/>
  <path d="M44 86 Q36 78 30 74" stroke="#388E3C" stroke-width="2" fill="none" stroke-linecap="round"/>
  <!-- Leaves — trifoliate -->
  <path d="M42 82 Q30 72 20 78 Q28 84 42 82Z" fill="#388E3C"/>
  <path d="M42 82 Q48 70 58 74 Q52 80 42 82Z" fill="#43A047"/>
  <path d="M24 86 Q14 78 10 84 Q16 90 24 86Z" fill="#558B2F"/>
  <path d="M64 82 Q74 74 78 80 Q72 86 64 82Z" fill="#689F38"/>
  <path d="M30 74 Q20 66 16 72 Q22 78 30 74Z" fill="#558B2F"/>
  <!-- Main strawberry — at center, teardrop proportional -->
  <path d="M42 78 Q30 70 28 52 Q28 36 42 28 Q48 24 54 28 Q68 36 68 52 Q66 70 42 78Z" fill="url(#fG)"/>
  <path d="M42 78 Q34 72 32 54 Q32 40 42 32 Q42 54 42 78Z" fill="#EF5350" opacity="0.3"/>
  <!-- Seeds — scattered organically -->
  <ellipse cx="36" cy="42" rx="1.8" ry="1.2" fill="#FFF9C4" opacity="0.65" transform="rotate(-10 36 42)"/>
  <ellipse cx="48" cy="38" rx="1.8" ry="1.2" fill="#FFF9C4" opacity="0.65" transform="rotate(8 48 38)"/>
  <ellipse cx="40" cy="52" rx="1.8" ry="1.2" fill="#FFF9C4" opacity="0.6"/>
  <ellipse cx="56" cy="48" rx="1.8" ry="1.2" fill="#FFF9C4" opacity="0.6" transform="rotate(5 56 48)"/>
  <ellipse cx="34" cy="62" rx="1.8" ry="1.2" fill="#FFF9C4" opacity="0.55" transform="rotate(-8 34 62)"/>
  <ellipse cx="52" cy="60" rx="1.8" ry="1.2" fill="#FFF9C4" opacity="0.55"/>
  <!-- Crown -->
  <path d="M42 30 Q36 20 30 24 Q34 28 42 30Z" fill="#2E7D32"/>
  <path d="M42 30 Q42 18 48 20 Q46 26 42 30Z" fill="#43A047"/>
  <path d="M42 30 Q50 20 56 24 Q50 28 42 30Z" fill="#388E3C"/>
  <!-- Smaller berries — on branches -->
  <path d="M22 90 Q18 86 16 76 Q16 70 22 66 Q28 70 28 76 Q26 86 22 90Z" fill="#E53935"/>
  <ellipse cx="20" cy="74" rx="1.5" ry="1" fill="#FFF9C4" opacity="0.45"/>
  <ellipse cx="24" cy="80" rx="1.5" ry="1" fill="#FFF9C4" opacity="0.4"/>
  <path d="M66 86 Q62 82 60 74 Q60 68 66 64 Q72 68 72 74 Q70 82 66 86Z" fill="#E53935"/>
  <ellipse cx="64" cy="70" rx="1.5" ry="1" fill="#FFF9C4" opacity="0.45"/>
  <ellipse cx="68" cy="76" rx="1.5" ry="1" fill="#FFF9C4" opacity="0.4"/>
</svg>
