<svg xmlns="http://www.w3.org/2000/svg" viewBox="0 0 100 120">
  <defs>
    <filter id="s"><feGaussianBlur stdDeviation="2"/></filter>
  </defs>
  <ellipse cx="50" cy="112" rx="22" ry="6" fill="#3E2723" opacity="0.13" filter="url(#s)"/>
  <path d="M50 108 Q44 104 36 100" stroke="#2E7D32" stroke-width="2" fill="none" stroke-linecap="round"/>
  <path d="M50 108 Q56 104 64 100" stroke="#388E3C" stroke-width="2" fill="none" stroke-linecap="round"/>
  <g fill="#388E3C">
    <path d="M36 100 Q28 92 24 94 Q26 98 36 100Z"/>
    <path d="M36 100 Q36 90 40 90 Q38 96 36 100Z"/>
  </g>
  <g fill="#43A047">
    <path d="M64 100 Q72 92 76 94 Q74 98 64 100Z"/>
    <path d="M64 100 Q64 90 60 90 Q62 96 64 100Z"/>
  </g>
  <!-- Small green unripe berry -->
  <path d="M38 98 Q38 100 36 102 Q34 104 36 106 Q38 108 40 106 Q42 102 40 100Z" fill="#66BB6A"/>
  <path d="M38 98 Q37 98 36 100 Q37 100 38 98Z" fill="#2E7D32"/>
  <!-- White flower -->
  <circle cx="60" cy="98" r="3" fill="#fff" opacity="0.6"/>
  <circle cx="60" cy="98" r="1.2" fill="#FDD835" opacity="0.5"/>
</svg>
