<svg xmlns="http://www.w3.org/2000/svg" viewBox="0 0 100 120">
  <defs>
    <linearGradient id="sG" x1="0" y1="0" x2="1" y2="0">
      <stop offset="0%" stop-color="#33691E"/>
      <stop offset="50%" stop-color="#558B2F"/>
      <stop offset="100%" stop-color="#33691E"/>
    </linearGradient>
    <radialGradient id="pG" cx="40%" cy="25%">
      <stop offset="0%" stop-color="#FFF9C4"/>
      <stop offset="30%" stop-color="#FFD54F"/>
      <stop offset="100%" stop-color="#F9A825"/>
    </radialGradient>
    <radialGradient id="cR" cx="40%" cy="35%">
      <stop offset="0%" stop-color="#A1887F"/>
      <stop offset="100%" stop-color="#4E342E"/>
    </radialGradient>
    <filter id="s"><feGaussianBlur stdDeviation="3"/></filter>
  </defs>
  <ellipse cx="50" cy="112" rx="28" ry="9" fill="#3E2723" opacity="0.15" filter="url(#s)"/>
  <!-- Stem — thick and curved -->
  <path d="M50 110 Q46 86 42 58" stroke="url(#sG)" stroke-width="6" fill="none" stroke-linecap="round"/>
  <path d="M50 110 Q47 88 43 60" stroke="#7CB342" stroke-width="1.5" fill="none" opacity="0.15"/>
  <!-- Big leaves -->
  <path d="M46 92 Q28 84 18 90 Q26 96 46 92Z" fill="#558B2F"/>
  <path d="M46 92 Q30 86 22 92" fill="#7CB342" opacity="0.3"/>
  <path d="M44 80 Q60 72 70 78 Q62 84 44 80Z" fill="#689F38"/>
  <path d="M44 80 Q56 74 64 78" fill="#8BC34A" opacity="0.25"/>
  <!-- Flower head — big and bold -->
  <g transform="translate(42 32)">
    <ellipse cx="0" cy="-16" rx="8" ry="14" fill="url(#pG)" transform="rotate(0 0 0)"/>
    <ellipse cx="0" cy="-16" rx="8" ry="14" fill="#FFCA28" transform="rotate(30 0 0)"/>
    <ellipse cx="0" cy="-16" rx="8" ry="14" fill="url(#pG)" transform="rotate(60 0 0)"/>
    <ellipse cx="0" cy="-16" rx="8" ry="14" fill="#FFCA28" transform="rotate(90 0 0)"/>
    <ellipse cx="0" cy="-16" rx="8" ry="14" fill="url(#pG)" transform="rotate(120 0 0)"/>
    <ellipse cx="0" cy="-16" rx="8" ry="14" fill="#FFD54F" transform="rotate(150 0 0)"/>
    <ellipse cx="0" cy="-16" rx="8" ry="14" fill="url(#pG)" transform="rotate(180 0 0)"/>
    <ellipse cx="0" cy="-16" rx="8" ry="14" fill="#FFCA28" transform="rotate(210 0 0)"/>
    <ellipse cx="0" cy="-16" rx="8" ry="14" fill="url(#pG)" transform="rotate(240 0 0)"/>
    <ellipse cx="0" cy="-16" rx="8" ry="14" fill="#FFD54F" transform="rotate(270 0 0)"/>
    <ellipse cx="0" cy="-16" rx="8" ry="14" fill="url(#pG)" transform="rotate(300 0 0)"/>
    <ellipse cx="0" cy="-16" rx="8" ry="14" fill="#FFCA28" transform="rotate(330 0 0)"/>
    <!-- Center -->
    <circle cx="0" cy="0" r="11" fill="url(#cR)"/>
    <circle cx="-3" cy="-4" r="2" fill="#3E2723"/>
    <circle cx="3" cy="-1" r="2" fill="#3E2723"/>
    <circle cx="-1" cy="3" r="2" fill="#3E2723"/>
    <circle cx="4" cy="-4" r="1.5" fill="#3E2723"/>
    <circle cx="-4" cy="1" r="1.5" fill="#3E2723"/>
    <circle cx="1" cy="-2" r="1.5" fill="#3E2723"/>
    <circle cx="-2" cy="-1" r="4" fill="#BCAAA4" opacity="0.12"/>
  </g>
</svg>
