<svg xmlns="http://www.w3.org/2000/svg" viewBox="0 0 100 120">
  <defs>
    <linearGradient id="stG" x1="0" y1="0" x2="1" y2="0">
      <stop offset="0%" stop-color="#33691E"/>
      <stop offset="50%" stop-color="#689F38"/>
      <stop offset="100%" stop-color="#33691E"/>
    </linearGradient>
    <radialGradient id="ptG" cx="45%" cy="30%">
      <stop offset="0%" stop-color="#FFE082"/>
      <stop offset="50%" stop-color="#FFD54F"/>
      <stop offset="100%" stop-color="#FFCA28"/>
    </radialGradient>
    <radialGradient id="ctrG" cx="40%" cy="35%">
      <stop offset="0%" stop-color="#8D6E63"/>
      <stop offset="100%" stop-color="#5D4037"/>
    </radialGradient>
    <filter id="sh"><feGaussianBlur stdDeviation="2.5"/></filter>
  </defs>
  <ellipse cx="50" cy="112" rx="26" ry="8" fill="#3E2723" opacity="0.18" filter="url(#sh)"/>
  <!-- Stem -->
  <path d="M50 110 Q48 80 46 55" stroke="url(#stG)" stroke-width="5.5" fill="none" stroke-linecap="round"/>
  <path d="M50 110 Q49 82 47 58" stroke="#8BC34A" stroke-width="1.5" fill="none" stroke-linecap="round" opacity="0.2"/>
  <!-- Leaves -->
  <ellipse cx="32" cy="85" rx="11" ry="5.5" fill="#558B2F" transform="rotate(-30 32 85)"/>
  <ellipse cx="33" cy="84" rx="8" ry="3.5" fill="#7CB342" opacity="0.5" transform="rotate(-30 33 84)"/>
  <ellipse cx="62" cy="78" rx="11" ry="5" fill="#689F38" transform="rotate(25 62 78)"/>
  <ellipse cx="63" cy="77" rx="8" ry="3" fill="#8BC34A" opacity="0.4" transform="rotate(25 63 77)"/>
  <!-- Flower head -->
  <g transform="translate(46 30)">
    <ellipse cx="0" cy="-15" rx="6" ry="11" fill="url(#ptG)" transform="rotate(0 0 0)"/>
    <ellipse cx="0" cy="-15" rx="6" ry="11" fill="#FFCA28" transform="rotate(30 0 0)"/>
    <ellipse cx="0" cy="-15" rx="6" ry="11" fill="url(#ptG)" transform="rotate(60 0 0)"/>
    <ellipse cx="0" cy="-15" rx="6" ry="11" fill="#FFCA28" transform="rotate(90 0 0)"/>
    <ellipse cx="0" cy="-15" rx="6" ry="11" fill="url(#ptG)" transform="rotate(120 0 0)"/>
    <ellipse cx="0" cy="-15" rx="6" ry="11" fill="#FFCA28" transform="rotate(150 0 0)"/>
    <ellipse cx="0" cy="-15" rx="6" ry="11" fill="url(#ptG)" transform="rotate(180 0 0)"/>
    <ellipse cx="0" cy="-15" rx="6" ry="11" fill="#FFCA28" transform="rotate(210 0 0)"/>
    <ellipse cx="0" cy="-15" rx="6" ry="11" fill="url(#ptG)" transform="rotate(240 0 0)"/>
    <ellipse cx="0" cy="-15" rx="6" ry="11" fill="#FFCA28" transform="rotate(270 0 0)"/>
    <ellipse cx="0" cy="-15" rx="6" ry="11" fill="url(#ptG)" transform="rotate(300 0 0)"/>
    <ellipse cx="0" cy="-15" rx="6" ry="11" fill="#FFCA28" transform="rotate(330 0 0)"/>
    <!-- Center -->
    <circle cx="0" cy="0" r="9" fill="url(#ctrG)"/>
    <circle cx="-3" cy="-3" r="1.5" fill="#4E342E"/>
    <circle cx="3" cy="0" r="1.5" fill="#4E342E"/>
    <circle cx="0" cy="3" r="1.5" fill="#4E342E"/>
    <circle cx="-2" cy="1" r="1" fill="#4E342E"/>
    <circle cx="2" cy="-2" r="1" fill="#4E342E"/>
    <circle cx="-1" cy="-1" r="3" fill="#BCAAA4" opacity="0.15"/>
  </g>
</svg>
