<svg xmlns="http://www.w3.org/2000/svg" viewBox="0 0 100 120">
  <ellipse cx="50" cy="110" rx="24" ry="8" fill="#5D4037" opacity="0.3"/>
  <path d="M50 110 Q48 80 46 55" stroke="#558B2F" stroke-width="5" fill="none" stroke-linecap="round"/>
  <ellipse cx="32" cy="85" rx="10" ry="5" fill="#689F38" transform="rotate(-30 32 85)"/>
  <ellipse cx="62" cy="78" rx="10" ry="5" fill="#7CB342" transform="rotate(25 62 78)"/>
  <g transform="translate(46 30)">
    <ellipse cx="0" cy="-14" rx="5" ry="10" fill="#FFD54F" transform="rotate(0 0 0)"/>
    <ellipse cx="0" cy="-14" rx="5" ry="10" fill="#FFCA28" transform="rotate(30 0 0)"/>
    <ellipse cx="0" cy="-14" rx="5" ry="10" fill="#FFD54F" transform="rotate(60 0 0)"/>
    <ellipse cx="0" cy="-14" rx="5" ry="10" fill="#FFCA28" transform="rotate(90 0 0)"/>
    <ellipse cx="0" cy="-14" rx="5" ry="10" fill="#FFD54F" transform="rotate(120 0 0)"/>
    <ellipse cx="0" cy="-14" rx="5" ry="10" fill="#FFCA28" transform="rotate(150 0 0)"/>
    <ellipse cx="0" cy="-14" rx="5" ry="10" fill="#FFD54F" transform="rotate(180 0 0)"/>
    <ellipse cx="0" cy="-14" rx="5" ry="10" fill="#FFCA28" transform="rotate(210 0 0)"/>
    <ellipse cx="0" cy="-14" rx="5" ry="10" fill="#FFD54F" transform="rotate(240 0 0)"/>
    <ellipse cx="0" cy="-14" rx="5" ry="10" fill="#FFCA28" transform="rotate(270 0 0)"/>
    <ellipse cx="0" cy="-14" rx="5" ry="10" fill="#FFD54F" transform="rotate(300 0 0)"/>
    <ellipse cx="0" cy="-14" rx="5" ry="10" fill="#FFCA28" transform="rotate(330 0 0)"/>
    <circle cx="0" cy="0" r="8" fill="#795548"/>
    <circle cx="-2" cy="-2" r="1.5" fill="#5D4037"/>
    <circle cx="3" cy="1" r="1.5" fill="#5D4037"/>
    <circle cx="0" cy="3" r="1.5" fill="#5D4037"/>
    <circle cx="-3" cy="2" r="1" fill="#5D4037"/>
  </g>
</svg>
