<svg xmlns="http://www.w3.org/2000/svg" viewBox="0 0 100 120">
  <defs>
    <linearGradient id="sG" x1="0" y1="0" x2="1" y2="0">
      <stop offset="0%" stop-color="#33691E"/>
      <stop offset="50%" stop-color="#558B2F"/>
      <stop offset="100%" stop-color="#33691E"/>
    </linearGradient>
    <filter id="s"><feGaussianBlur stdDeviation="3"/></filter>
  </defs>
  <ellipse cx="50" cy="114" rx="26" ry="7" fill="#3E2723" opacity="0.15" filter="url(#s)"/>
  <!-- Stems — multiple stalks -->
  <path d="M34 112 Q32 80 30 48" stroke="url(#sG)" stroke-width="3" fill="none" stroke-linecap="round"/>
  <path d="M50 112 Q48 78 46 44" stroke="#558B2F" stroke-width="3" fill="none" stroke-linecap="round"/>
  <path d="M66 112 Q68 80 70 48" stroke="url(#sG)" stroke-width="3" fill="none" stroke-linecap="round"/>
  <!-- Leaves -->
  <path d="M34 88 Q22 82 16 86 Q24 92 34 88Z" fill="#558B2F"/>
  <path d="M50 82 Q60 74 68 78 Q62 82 50 82Z" fill="#689F38"/>
  <path d="M66 90 Q76 84 82 88 Q76 94 66 90Z" fill="#558B2F"/>
  <!-- Flower spikes -->
  <g transform="translate(30,44)">
    <ellipse cx="0" cy="-5" rx="4.5" ry="5.5" fill="#7B1FA2"/>
    <ellipse cx="0" cy="-14" rx="4" ry="5" fill="#9C27B0"/>
    <ellipse cx="0" cy="-22" rx="3.5" ry="4.5" fill="#AB47BC"/>
    <ellipse cx="0" cy="-29" rx="3" ry="4" fill="#CE93D8"/>
    <ellipse cx="0" cy="-35" rx="2.5" ry="3.5" fill="#E1BEE7"/>
    <ellipse cx="-1" cy="-10" rx="2" ry="2.5" fill="#E1BEE7" opacity="0.15"/>
  </g>
  <g transform="translate(46,40)">
    <ellipse cx="0" cy="-5" rx="4.5" ry="5.5" fill="#8E24AA"/>
    <ellipse cx="0" cy="-14" rx="4" ry="5" fill="#AB47BC"/>
    <ellipse cx="0" cy="-22" rx="3.5" ry="4.5" fill="#CE93D8"/>
    <ellipse cx="0" cy="-29" rx="3" ry="4" fill="#E1BEE7"/>
    <ellipse cx="0" cy="-35" rx="2.5" ry="3.5" fill="#F3E5F5"/>
    <ellipse cx="-1" cy="-10" rx="2" ry="2.5" fill="#E1BEE7" opacity="0.15"/>
  </g>
  <g transform="translate(70,44)">
    <ellipse cx="0" cy="-5" rx="4.5" ry="5.5" fill="#7B1FA2"/>
    <ellipse cx="0" cy="-14" rx="4" ry="5" fill="#9C27B0"/>
    <ellipse cx="0" cy="-22" rx="3.5" ry="4.5" fill="#AB47BC"/>
    <ellipse cx="0" cy="-29" rx="3" ry="4" fill="#CE93D8"/>
    <ellipse cx="0" cy="-35" rx="2.5" ry="3.5" fill="#E1BEE7"/>
    <ellipse cx="-1" cy="-10" rx="2" ry="2.5" fill="#E1BEE7" opacity="0.15"/>
  </g>
</svg>
