<svg xmlns="http://www.w3.org/2000/svg" viewBox="0 0 100 120">
  <defs>
    <linearGradient id="stG" x1="0" y1="0" x2="1" y2="0">
      <stop offset="0%" stop-color="#33691E"/>
      <stop offset="50%" stop-color="#689F38"/>
      <stop offset="100%" stop-color="#33691E"/>
    </linearGradient>
    <filter id="sh"><feGaussianBlur stdDeviation="2"/></filter>
  </defs>
  <ellipse cx="50" cy="110" rx="20" ry="6" fill="#3E2723" opacity="0.15" filter="url(#sh)"/>
  <path d="M50 108 Q50 92 50 74" stroke="url(#stG)" stroke-width="3.5" fill="none" stroke-linecap="round"/>
  <ellipse cx="42" cy="94" rx="6" ry="3" fill="#558B2F" transform="rotate(-15 42 94)"/>
  <ellipse cx="43" cy="93" rx="4" ry="2" fill="#7CB342" opacity="0.35" transform="rotate(-15 43 93)"/>
  <path d="M50 74 Q36 66 40 50 Q44 42 50 45 Q56 42 60 50 Q64 66 50 74Z" fill="#EC407A"/>
  <path d="M50 74 Q42 68 44 55 Q47 47 50 50 Q50 62 50 74Z" fill="#F48FB1" opacity="0.5"/>
  <ellipse cx="46" cy="54" rx="2.5" ry="4" fill="#FCE4EC" opacity="0.2" transform="rotate(-5 46 54)"/>
</svg>
