<svg xmlns="http://www.w3.org/2000/svg" viewBox="0 0 100 120">
  <defs>
    <linearGradient id="stG" x1="0" y1="0" x2="1" y2="0">
      <stop offset="0%" stop-color="#33691E"/>
      <stop offset="50%" stop-color="#689F38"/>
      <stop offset="100%" stop-color="#33691E"/>
    </linearGradient>
    <radialGradient id="flG" cx="45%" cy="35%">
      <stop offset="0%" stop-color="#F8BBD0"/>
      <stop offset="50%" stop-color="#EC407A"/>
      <stop offset="100%" stop-color="#C2185B"/>
    </radialGradient>
    <filter id="sh"><feGaussianBlur stdDeviation="2.5"/></filter>
  </defs>
  <ellipse cx="50" cy="112" rx="24" ry="7" fill="#3E2723" opacity="0.18" filter="url(#sh)"/>
  <path d="M50 110 Q50 85 50 55" stroke="url(#stG)" stroke-width="4.5" fill="none" stroke-linecap="round"/>
  <path d="M50 110 Q50 86 50 58" stroke="#8BC34A" stroke-width="1" fill="none" opacity="0.2"/>
  <!-- Leaves -->
  <ellipse cx="38" cy="88" rx="9" ry="4.5" fill="#558B2F" transform="rotate(-25 38 88)"/>
  <ellipse cx="39" cy="87" rx="6" ry="2.5" fill="#7CB342" opacity="0.4" transform="rotate(-25 39 87)"/>
  <ellipse cx="60" cy="82" rx="9" ry="4" fill="#689F38" transform="rotate(20 60 82)"/>
  <ellipse cx="61" cy="81" rx="6" ry="2" fill="#8BC34A" opacity="0.4" transform="rotate(20 61 81)"/>
  <!-- Petals -->
  <path d="M50 55 Q28 44 34 22 Q40 12 50 16 Q60 12 66 22 Q72 44 50 55Z" fill="url(#flG)"/>
  <path d="M50 55 Q36 47 39 28 Q43 18 50 21 Q50 38 50 55Z" fill="#F48FB1" opacity="0.6"/>
  <path d="M50 55 Q64 47 61 28 Q57 18 50 21 Q50 38 50 55Z" fill="#EC407A" opacity="0.5"/>
  <!-- Stamen -->
  <circle cx="50" cy="34" r="2.5" fill="#FFEB3B"/>
  <circle cx="50" cy="34" r="1.2" fill="#FFF9C4" opacity="0.5"/>
  <!-- Highlight -->
  <ellipse cx="42" cy="30" rx="3" ry="5" fill="#FCE4EC" opacity="0.25" transform="rotate(-10 42 30)"/>
</svg>
