<svg xmlns="http://www.w3.org/2000/svg" viewBox="0 0 100 120">
  <defs>
    <linearGradient id="sG" x1="0" y1="0" x2="1" y2="0">
      <stop offset="0%" stop-color="#33691E"/>
      <stop offset="50%" stop-color="#558B2F"/>
      <stop offset="100%" stop-color="#33691E"/>
    </linearGradient>
    <radialGradient id="fG" cx="38%" cy="28%">
      <stop offset="0%" stop-color="#F8BBD0"/>
      <stop offset="40%" stop-color="#EC407A"/>
      <stop offset="100%" stop-color="#AD1457"/>
    </radialGradient>
    <filter id="s"><feGaussianBlur stdDeviation="3"/></filter>
  </defs>
  <ellipse cx="50" cy="112" rx="28" ry="8" fill="#3E2723" opacity="0.15" filter="url(#s)"/>
  <!-- Stem -->
  <path d="M50 110 Q48 85 48 55" stroke="url(#sG)" stroke-width="5.5" fill="none" stroke-linecap="round"/>
  <path d="M50 110 Q49 87 48 57" stroke="#7CB342" stroke-width="1.2" fill="none" opacity="0.15"/>
  <!-- Leaves -->
  <path d="M48 92 Q30 82 20 90 Q28 96 48 92Z" fill="#558B2F"/>
  <path d="M48 92 Q32 84 24 90" fill="#7CB342" opacity="0.25"/>
  <path d="M48 82 Q62 72 72 78 Q64 84 48 82Z" fill="#689F38"/>
  <path d="M48 82 Q58 74 66 78" fill="#8BC34A" opacity="0.2"/>
  <!-- Tulip flower — big cup shape -->
  <path d="M48 55 Q22 42 28 16 Q34 4 48 8 Q52 4 58 4 Q66 4 72 16 Q78 42 48 55Z" fill="url(#fG)"/>
  <!-- Depth -->
  <path d="M48 55 Q30 44 34 20 Q40 10 48 14 Q48 35 48 55Z" fill="#F48FB1" opacity="0.5"/>
  <path d="M48 55 Q66 44 62 20 Q56 10 48 14 Q48 35 48 55Z" fill="#C2185B" opacity="0.3"/>
  <!-- Highlight -->
  <path d="M36 26 Q40 16 48 14 Q42 20 38 30Z" fill="#FCE4EC" opacity="0.2"/>
  <!-- Stamen -->
  <circle cx="48" cy="28" r="3" fill="#FFEB3B"/>
  <circle cx="48" cy="28" r="1.5" fill="#FFF9C4" opacity="0.45"/>
</svg>
